<svg width="24" height="24" viewBox="0 0 24 24" fill="none" xmlns="http://www.w3.org/2000/svg">
<path d="M22 12C22 13.31 21.75 14.57 21.28 15.72C20.63 15.27 19.84 15 19 15C18.06 15 17.19 15.33 16.5 15.88C16.0306 16.253 15.6518 16.7275 15.392 17.2679C15.1322 17.8083 14.9982 18.4004 15 19C15 19.75 15.21 20.46 15.58 21.06C15.62 21.13 15.67 21.2 15.73 21.27C14.5459 21.7534 13.279 22.0014 12 22C6.48 22 2 17.52 2 12C2 6.48 6.48 2 12 2C17.52 2 22 6.48 22 12Z" stroke="#BB0A1E" stroke-linecap="round" stroke-linejoin="round"/>
<path d="M20.4899 18.98H17.5099M18.9999 17.52V20.51M9.37988 12V10.61C9.37988 8.89001 10.5999 8.18001 12.0899 9.04001L13.2899 9.73001L14.4899 10.42C15.9799 11.28 15.9799 12.69 14.4899 13.55L13.2899 14.24L12.0899 14.93C10.5999 15.79 9.37988 15.09 9.37988 13.36V12ZM22.9999 19C22.9999 19.75 22.7899 20.46 22.4199 21.06C22.2099 21.42 21.9399 21.74 21.6299 22C20.9299 22.63 20.0099 23 18.9999 23C18.3104 23.0014 17.6325 22.8233 17.0328 22.4831C16.4332 22.143 15.9324 21.6525 15.5799 21.06C15.1992 20.4404 14.9984 19.7272 14.9999 19C14.9999 17.74 15.5799 16.61 16.4999 15.88C17.0879 15.4087 17.7971 15.1132 18.5457 15.0274C19.2944 14.9416 20.052 15.0691 20.7314 15.3952C21.4107 15.7213 21.9841 16.2327 22.3855 16.8705C22.7868 17.5083 22.9998 18.2465 22.9999 19Z" stroke="#BB0A1E" stroke-miterlimit="10" stroke-linecap="round" stroke-linejoin="round"/>
</svg>
