<svg width="20" height="20" viewBox="0 0 20 20" fill="none" xmlns="http://www.w3.org/2000/svg">
<path d="M18.3084 10C18.3084 12.7583 16.0668 15 13.3084 15C12.0762 15.0028 10.8873 14.5451 9.9751 13.7167C11.0001 12.8083 11.6418 11.475 11.6418 10C11.6418 8.52501 11.0001 7.19168 9.9751 6.28335C10.8873 5.45493 12.0762 4.99723 13.3084 5.00001C16.0668 5.00001 18.3084 7.24168 18.3084 10Z" stroke="#BB0A1E" stroke-linecap="round" stroke-linejoin="round"/>
<path d="M11.6416 10C11.6416 11.475 10.9999 12.8083 9.97493 13.7167C9.06269 14.5451 7.87386 15.0028 6.6416 15C3.88327 15 1.6416 12.7583 1.6416 10C1.6416 7.24167 3.88327 5 6.6416 5C7.92493 5 9.0916 5.48333 9.97493 6.28333C10.9999 7.19167 11.6416 8.525 11.6416 10Z" stroke="#BB0A1E" stroke-linecap="round" stroke-linejoin="round"/>
</svg>
