<svg width="20" height="20" viewBox="0 0 20 20" fill="none" xmlns="http://www.w3.org/2000/svg">
<path d="M12.1213 12.1213C10.9497 13.2929 9.05025 13.2929 7.87868 12.1213M12.1213 12.1213C13.2929 10.9497 13.2929 9.05024 12.1213 7.87867M12.1213 12.1213L15.3033 15.3033M7.87868 12.1213C6.70711 10.9497 6.70711 9.05024 7.87868 7.87867M7.87868 12.1213L4.6967 15.3033M7.87868 7.87867C9.05025 6.70709 10.9497 6.70709 12.1213 7.87867M7.87868 7.87867L4.6967 4.69669M12.1213 7.87867L15.3033 4.69669M15.6569 15.6568C12.5327 18.781 7.46734 18.781 4.34315 15.6568C1.21895 12.5326 1.21895 7.46733 4.34315 4.34313C7.46734 1.21894 12.5327 1.21894 15.6569 4.34313C18.781 7.46733 18.781 12.5326 15.6569 15.6568Z" stroke="#BB0A1E" stroke-linecap="round" stroke-linejoin="round"/>
</svg>
