<svg width="20" height="20" viewBox="0 0 20 20" fill="none" xmlns="http://www.w3.org/2000/svg">
<path d="M15.8332 7.50001C15.8332 8.70834 15.4749 9.81667 14.8582 10.7417C14.4063 11.4156 13.8185 11.9877 13.1326 12.4211C12.4466 12.8545 11.6776 13.1397 10.8749 13.2583C10.5915 13.3083 10.2999 13.3333 9.99988 13.3333C9.69988 13.3333 9.40821 13.3083 9.12488 13.2583C8.32218 13.1397 7.55316 12.8545 6.86718 12.4211C6.1812 11.9877 5.59342 11.4156 5.14154 10.7417C4.5018 9.78193 4.16237 8.65341 4.16654 7.50001C4.16654 4.27501 6.77488 1.66667 9.99988 1.66667C13.2249 1.66667 15.8332 4.27501 15.8332 7.50001Z" stroke="#BB0A1E" stroke-linecap="round" stroke-linejoin="round"/>
<path d="M17.7085 15.3917L16.3335 15.7167C16.0252 15.7917 15.7835 16.025 15.7169 16.3333L15.4252 17.5583C15.3894 17.7087 15.3125 17.8462 15.2031 17.9553C15.0937 18.0645 14.9561 18.1411 14.8056 18.1766C14.6552 18.212 14.4978 18.2049 14.3512 18.1561C14.2045 18.1072 14.0744 18.0186 13.9752 17.9L10.0002 13.3333L6.02521 17.9083C5.92606 18.0269 5.79589 18.1156 5.64924 18.1644C5.50259 18.2133 5.34524 18.2203 5.19479 18.1849C5.04434 18.1494 4.90672 18.0729 4.7973 17.9637C4.68789 17.8545 4.61099 17.717 4.57521 17.5667L4.28355 16.3417C4.2481 16.1918 4.17164 16.0547 4.06273 15.9458C3.95383 15.8369 3.81676 15.7604 3.66688 15.725L2.29188 15.4C2.14782 15.3655 2.01552 15.2933 1.90854 15.1908C1.80156 15.0883 1.72374 14.9592 1.68304 14.8168C1.64234 14.6744 1.64023 14.5237 1.67693 14.3801C1.71363 14.2366 1.78781 14.1054 1.89188 14L5.14188 10.75C5.59375 11.424 6.18154 11.996 6.86752 12.4294C7.5535 12.8628 8.32252 13.148 9.12522 13.2667C9.40855 13.3167 9.70022 13.3417 10.0002 13.3417C10.3002 13.3417 10.5919 13.3167 10.8752 13.2667C12.5335 13.025 13.9585 12.0833 14.8585 10.75L18.1085 14C18.5669 14.45 18.3419 15.2417 17.7085 15.3917ZM10.4835 4.98333L10.9752 5.96666C11.0419 6.09999 11.2169 6.23333 11.3752 6.25833L12.2669 6.40833C12.8335 6.5 12.9669 6.91666 12.5585 7.325L11.8669 8.01666C11.7502 8.13333 11.6835 8.35833 11.7252 8.52499L11.9252 9.38333C12.0835 10.0583 11.7252 10.325 11.1252 9.96666L10.2919 9.475C10.2073 9.42984 10.1128 9.40622 10.0169 9.40622C9.92096 9.40622 9.82651 9.42984 9.74188 9.475L8.90855 9.96666C8.30855 10.3167 7.95021 10.0583 8.10855 9.38333L8.30855 8.52499C8.34188 8.36666 8.28355 8.13333 8.16688 8.01666L7.47521 7.325C7.06688 6.91666 7.20021 6.50833 7.76688 6.40833L8.65855 6.25833C8.80855 6.23333 8.98355 6.09999 9.05021 5.96666L9.54188 4.98333C9.78355 4.44999 10.2169 4.44999 10.4835 4.98333Z" stroke="#BB0A1E" stroke-linecap="round" stroke-linejoin="round"/>
</svg>
