<svg width="20" height="20" viewBox="0 0 20 20" fill="none" xmlns="http://www.w3.org/2000/svg">
<path d="M9.57998 2C9.96285 2.46821 10.3642 2.9249 10.7263 3.41156C11.379 4.28341 11.9372 5.21522 12.3085 6.24622C12.5 6.77901 12.6268 7.32334 12.6015 7.89534C12.5807 8.39354 12.4331 8.85945 12.1725 9.26769C11.7458 9.93888 11.2822 10.587 10.8162 11.2305C10.355 11.8671 9.87982 12.4921 9.53615 13.2048C8.98029 14.3581 9.02412 15.479 9.74143 16.5469C10.1981 17.2273 10.8439 17.6517 11.6466 17.8524C10.9569 18.0231 9.20863 17.8339 7.93085 16.5377C7.89856 16.623 7.86627 16.6945 7.8432 16.7683C7.82244 16.8398 7.81091 16.916 7.76017 16.9875C7.77401 16.8191 7.75325 16.6392 7.8086 16.4846C8.06001 15.765 7.9147 15.11 7.55489 14.4665C7.35654 14.109 7.17663 13.7353 7.03363 13.3525C6.94598 13.1172 6.93676 12.852 6.90677 12.5982C6.88371 12.4022 6.76377 12.2454 6.59079 12.22C6.44548 12.1992 6.2748 12.3076 6.24943 12.5014C6.21945 12.7505 6.2379 13.0065 6.25174 13.2602C6.26327 13.4862 6.29787 13.7123 6.30248 13.9383C6.07414 13.3179 5.79044 12.7182 6.00033 12.0193C6.10643 11.6687 6.12949 11.2882 6.15948 10.9168C6.17793 10.6908 6.06491 10.5639 5.86655 10.4994C5.72817 10.9076 5.57825 11.3112 5.4537 11.7264C5.07313 13.0019 5.01316 14.2797 5.46754 15.5505C5.79967 16.48 6.36475 17.2481 7.13281 17.8685C7.16279 17.8939 7.19278 17.917 7.22276 17.9423C7.22737 17.9446 7.22737 17.9516 7.24583 18C7.06131 17.9031 6.90216 17.8316 6.75455 17.7417C5.16539 16.7868 4.25664 15.3845 4.0306 13.5462C3.89452 12.4299 4.22435 11.4219 4.78021 10.4694C5.31992 9.54217 5.9911 8.70722 6.65076 7.86536C7.30349 7.03042 7.9493 6.19317 8.48209 5.27288C9.01489 4.3526 9.39085 3.37696 9.50156 2.31137C9.50617 2.26063 9.50848 2.2122 9.51309 2.16145C9.51539 2.11994 9.52001 2.07611 9.52231 2.0346C9.54077 2.02306 9.55922 2.01153 9.57998 2ZM6.26788 12.0654C6.45009 11.6595 6.64614 11.2582 6.6669 10.8061C6.67151 10.6931 6.64845 10.5709 6.60463 10.4694C6.55388 10.3563 6.4524 10.2872 6.30248 10.3241C6.48238 10.9145 6.24943 11.4842 6.26788 12.0654ZM6.58848 12.0724C6.61155 12.077 6.63461 12.0839 6.65768 12.0885C6.80068 11.7702 6.95521 11.4565 7.08437 11.1336C7.13281 11.0091 7.13742 10.8615 7.13511 10.7254C7.13281 10.5709 7.01518 10.474 6.83297 10.4578C6.92753 11.0206 6.66921 11.5327 6.58848 12.0724ZM6.91369 12.2546C6.92292 12.2569 6.92984 12.2592 6.93906 12.2615C7.01748 12.1485 7.10282 12.0378 7.17202 11.9201C7.25274 11.7817 7.33117 11.6411 7.38883 11.4911C7.45571 11.3135 7.40958 11.2144 7.28504 11.1544C7.16279 11.5188 7.03824 11.8855 6.91369 12.2546Z" fill="#FDFDFD"/>
<path d="M13.4827 8.19287C13.7503 8.75565 14.0086 9.2723 14.2438 9.79818C14.6244 10.6562 14.915 11.5465 14.9958 12.4875C15.1088 13.8045 14.7928 15.0154 14.0455 16.1133C13.7087 16.6046 13.2959 16.9875 12.6962 17.1028C11.9651 17.2412 11.3262 17.022 10.7795 16.5423C10.1729 16.0095 9.86616 15.3291 9.96073 14.5195C10.0022 14.1736 10.1222 13.8253 10.2652 13.5047C10.5927 12.7712 11.1163 12.1646 11.6076 11.5373C12.0135 11.0206 12.4102 10.497 12.7815 9.95502C13.1091 9.47988 13.3259 8.94709 13.4343 8.37508C13.4389 8.33126 13.455 8.28974 13.4827 8.19287Z" fill="#FDFDFD"/>
</svg>
