<svg width="14" height="14" viewBox="0 0 14 14" fill="none" xmlns="http://www.w3.org/2000/svg">
<path d="M7.09758 0.000665629C3.16112 -0.0525024 -0.0525177 3.16114 0.00065037 7.09759C0.0531454 10.8729 3.12714 13.9469 6.90241 13.9993C10.8395 14.0532 14.0525 10.8395 13.9987 6.90309C13.9468 3.12715 10.8728 0.0531607 7.09758 0.000665629ZM6.53258 6.47741L8.26728 4.49202C8.36125 4.38448 8.4941 4.31867 8.6366 4.30908C8.7791 4.29949 8.91957 4.3469 9.02711 4.44087C9.13465 4.53485 9.20046 4.6677 9.21005 4.8102C9.21964 4.95269 9.17224 5.09316 9.07826 5.20071L7.34357 7.18609C7.29703 7.23934 7.24047 7.28291 7.1771 7.3143C7.11373 7.34569 7.0448 7.36429 6.97424 7.36904C6.90369 7.37379 6.83288 7.36459 6.76588 7.34198C6.69888 7.31937 6.63698 7.28378 6.58373 7.23724C6.53048 7.19071 6.48692 7.13415 6.45553 7.07078C6.42414 7.00741 6.40554 6.93848 6.40079 6.86792C6.39604 6.79736 6.40524 6.72656 6.42785 6.65956C6.45046 6.59256 6.48605 6.53066 6.53258 6.47741ZM5.22492 9.53458C5.12396 9.63547 4.98706 9.69215 4.84433 9.69215C4.7016 9.69215 4.5647 9.63547 4.46374 9.53458L2.85019 7.91934C2.80021 7.86932 2.76057 7.80994 2.73354 7.7446C2.70651 7.67926 2.69261 7.60923 2.69264 7.53852C2.69267 7.4678 2.70663 7.39779 2.73372 7.33247C2.76081 7.26715 2.8005 7.20781 2.85053 7.15783C2.90055 7.10785 2.95993 7.06821 3.02527 7.04118C3.09061 7.01415 3.16064 7.00025 3.23135 7.00028C3.30207 7.00031 3.37208 7.01427 3.4374 7.04136C3.50272 7.06845 3.56206 7.10814 3.61204 7.15817L5.22727 8.7734C5.32786 8.87467 5.38411 9.01174 5.38367 9.15447C5.38323 9.29721 5.32613 9.43393 5.22492 9.53458ZM11.1744 5.20071L7.40952 9.50799C7.36102 9.56357 7.30161 9.60859 7.23498 9.64025C7.16835 9.67192 7.09593 9.68955 7.0222 9.69206H7.00403C6.93328 9.69207 6.86322 9.67814 6.79786 9.65106C6.7325 9.62398 6.67312 9.58428 6.6231 9.53424L5.00989 7.91901C4.90895 7.81798 4.85228 7.68099 4.85234 7.53818C4.85241 7.39537 4.9092 7.25843 5.01023 7.15749C5.11126 7.05655 5.24824 6.99988 5.39105 6.99995C5.53387 7.00001 5.6708 7.0568 5.77174 7.15783L6.77453 8.16163C6.8006 8.1877 6.83175 8.20815 6.86604 8.22169C6.90034 8.23523 6.93705 8.24158 6.9739 8.24035C7.01075 8.23912 7.04696 8.23034 7.08027 8.21454C7.11359 8.19874 7.1433 8.17626 7.16757 8.1485L10.3644 4.49202C10.4584 4.38448 10.5912 4.31867 10.7337 4.30908C10.8762 4.29949 11.0167 4.3469 11.1242 4.44087C11.2318 4.53485 11.2976 4.6677 11.3072 4.8102C11.3168 4.95269 11.2693 5.09316 11.1754 5.20071H11.1744Z" fill="#79C143"/>
</svg>
