<svg width="97" height="287" viewBox="0 0 97 287" fill="none" xmlns="http://www.w3.org/2000/svg">
<path d="M109.899 -29C117.44 -19.7784 125.344 -10.784 132.476 -1.19899C145.332 15.9722 156.325 34.3245 163.638 54.6302C167.409 65.1237 169.907 75.8443 169.408 87.1101C168.999 96.9222 166.091 106.098 160.958 114.139C152.554 127.358 143.424 140.123 134.247 152.797C125.162 165.335 115.804 177.645 109.036 191.682C98.088 214.395 98.9511 236.472 113.079 257.505C122.073 270.906 134.793 279.264 150.601 283.216C137.018 286.578 102.585 282.853 77.4189 257.323C76.783 259.004 76.147 260.412 75.6927 261.866C75.2839 263.274 75.0567 264.773 74.0574 266.181C74.3299 262.865 73.9211 259.322 75.0113 256.278C79.9628 242.105 77.1009 229.204 70.0144 216.53C66.1077 209.489 62.5645 202.13 59.748 194.589C58.0218 189.956 57.8401 184.732 57.2496 179.735C56.7953 175.873 54.4331 172.784 51.0261 172.285C48.1643 171.876 44.8027 174.011 44.303 177.827C43.7125 182.733 44.0759 187.775 44.3484 192.772C44.5756 197.224 45.257 201.676 45.3478 206.127C40.8506 193.908 35.2631 182.097 39.397 168.333C41.4866 161.428 41.9408 153.932 42.5314 146.619C42.8948 142.167 40.6689 139.669 36.7622 138.397C34.0366 146.437 31.0839 154.387 28.6309 162.563C21.1355 187.684 19.9544 212.851 28.9034 237.881C35.4449 256.188 46.5743 271.315 61.7014 283.534C62.2919 284.034 62.8825 284.488 63.473 284.988C63.5638 285.033 63.5638 285.17 63.9273 286.124C60.2931 284.216 57.1587 282.807 54.2514 281.036C22.9526 262.229 5.05452 234.61 0.602728 198.405C-2.07744 176.419 4.41855 156.567 15.3663 137.806C25.9961 119.545 39.2152 103.1 52.2072 86.5196C65.0629 70.0752 77.7823 53.5854 88.2759 35.4602C98.7694 17.335 106.174 -1.88039 108.354 -22.8674C108.445 -23.8668 108.491 -24.8208 108.581 -25.8201C108.627 -26.6378 108.718 -27.5009 108.763 -28.3186C109.127 -28.5457 109.49 -28.7729 109.899 -29ZM44.6664 169.241C48.2551 161.246 52.1164 153.342 52.5252 144.438C52.6161 142.212 52.1618 139.805 51.2987 137.806C50.2993 135.58 48.3005 134.217 45.3478 134.944C48.8911 146.573 44.303 157.794 44.6664 169.241ZM50.9807 169.377C51.435 169.468 51.8892 169.605 52.3435 169.695C55.1599 163.427 58.2035 157.249 60.7474 150.889C61.7014 148.436 61.7922 145.529 61.7468 142.848C61.7014 139.805 59.3846 137.897 55.7959 137.579C57.6584 148.663 52.5706 158.748 50.9807 169.377ZM57.3858 172.966C57.5676 173.012 57.7038 173.057 57.8855 173.102C59.43 170.877 61.1108 168.696 62.4736 166.379C64.0635 163.654 65.608 160.883 66.7437 157.93C68.0611 154.432 67.1525 152.479 64.6995 151.298C62.2919 158.475 59.8389 165.698 57.3858 172.966Z" fill="#BB0A1E"/>
</svg>
