<svg width="12" height="12" viewBox="0 0 12 12" fill="none" xmlns="http://www.w3.org/2000/svg">
<path d="M6.08364 0.00055746C2.70953 -0.0450152 -0.0450152 2.70953 0.00055746 6.08364C0.0455532 9.31958 2.6804 11.9544 5.91635 11.9994C9.29103 12.0456 12.045 9.29103 11.9989 5.91692C11.9544 2.6804 9.31958 0.0455532 6.08364 0.00055746ZM5.59936 5.55205L7.08624 3.85029C7.16679 3.75811 7.28066 3.70171 7.4028 3.69348C7.52494 3.68526 7.64534 3.7259 7.73752 3.80645C7.8297 3.887 7.88611 4.00087 7.89433 4.12301C7.90255 4.24515 7.86192 4.36555 7.78136 4.45773L6.29448 6.1595C6.2546 6.20514 6.20611 6.24248 6.1518 6.26938C6.09748 6.29629 6.0384 6.31223 5.97792 6.3163C5.91744 6.32037 5.85676 6.31249 5.79933 6.29311C5.74189 6.27373 5.68884 6.24322 5.6432 6.20334C5.59756 6.16345 5.56022 6.11497 5.53331 6.06065C5.50641 6.00634 5.49046 5.94725 5.48639 5.88678C5.48232 5.8263 5.4902 5.76561 5.50959 5.70818C5.52897 5.65075 5.55947 5.5977 5.59936 5.55205ZM4.4785 8.17248C4.39196 8.25896 4.27463 8.30754 4.15228 8.30754C4.02994 8.30754 3.9126 8.25896 3.82606 8.17248L2.44302 6.788C2.40018 6.74512 2.36621 6.69422 2.34303 6.63821C2.31986 6.58221 2.30795 6.52218 2.30798 6.46157C2.30801 6.40096 2.31997 6.34095 2.34319 6.28496C2.36641 6.22897 2.40043 6.17811 2.44331 6.13527C2.48619 6.09243 2.53708 6.05845 2.59309 6.03528C2.6491 6.01211 2.70912 6.0002 2.76973 6.00023C2.83034 6.00026 2.89036 6.01222 2.94634 6.03544C3.00233 6.05866 3.0532 6.09268 3.09604 6.13556L4.48052 7.52004C4.56674 7.60685 4.61495 7.72434 4.61457 7.84668C4.6142 7.96902 4.56525 8.08621 4.4785 8.17248ZM9.57802 4.45773L6.35102 8.14969C6.30944 8.19733 6.25852 8.23592 6.20141 8.26306C6.1443 8.2902 6.08222 8.30532 6.01903 8.30747H6.00345C5.94281 8.30748 5.88276 8.29554 5.82674 8.27232C5.77071 8.24911 5.71981 8.21509 5.67695 8.17219L4.29419 6.78771C4.20767 6.70111 4.1591 6.58369 4.15915 6.46128C4.15921 6.33887 4.20789 6.2215 4.29448 6.13498C4.38108 6.04846 4.49849 5.99989 4.6209 5.99994C4.74331 5.99999 4.86069 6.04867 4.94721 6.13527L5.80674 6.99567C5.82909 7.01802 5.85578 7.03554 5.88518 7.04715C5.91458 7.05876 5.94604 7.0642 5.97763 7.06315C6.00922 7.06209 6.04025 7.05456 6.0688 7.04102C6.09736 7.02747 6.12283 7.00821 6.14363 6.98442L8.88376 3.85029C8.96431 3.75811 9.07818 3.70171 9.20032 3.69348C9.32246 3.68526 9.44287 3.7259 9.53504 3.80645C9.62722 3.887 9.68363 4.00087 9.69185 4.12301C9.70007 4.24515 9.65944 4.36555 9.57889 4.45773H9.57802Z" fill="#0E90FC"/>
</svg>
