<svg width="24" height="24" viewBox="0 0 24 24" fill="none" xmlns="http://www.w3.org/2000/svg">
<path d="M21.9699 18.33C21.9699 18.69 21.8899 19.06 21.7199 19.42C21.5499 19.78 21.3299 20.12 21.0399 20.44C20.5499 20.98 20.0099 21.37 19.3999 21.62C18.7999 21.87 18.1499 22 17.4499 22C16.4299 22 15.3399 21.76 14.1899 21.27C13.0399 20.78 11.8899 20.12 10.7499 19.29C9.58805 18.4401 8.49163 17.5041 7.46994 16.49C6.45871 15.472 5.52604 14.3789 4.67994 13.22C3.85994 12.08 3.19994 10.94 2.71994 9.81C2.23994 8.67 1.99994 7.58 1.99994 6.54C1.99994 5.86 2.11994 5.21 2.35994 4.61C2.59994 4 2.97994 3.44 3.50994 2.94C4.14994 2.31 4.84994 2 5.58994 2C5.86994 2 6.14994 2.06 6.39994 2.18C6.65994 2.3 6.88994 2.48 7.06994 2.74L9.38994 6.01C9.56994 6.26 9.69994 6.49 9.78994 6.71C9.87994 6.92 9.92994 7.13 9.92994 7.32C9.92994 7.56 9.85994 7.8 9.71994 8.03C9.58994 8.26 9.39994 8.5 9.15994 8.74L8.39994 9.53C8.28994 9.64 8.23994 9.77 8.23994 9.93C8.23994 10.01 8.24994 10.08 8.26994 10.16C8.29994 10.24 8.32994 10.3 8.34994 10.36C8.52994 10.69 8.83994 11.12 9.27994 11.64C9.72994 12.16 10.2099 12.69 10.7299 13.22C11.2699 13.75 11.7899 14.24 12.3199 14.69C12.8399 15.13 13.2699 15.43 13.6099 15.61C13.6599 15.63 13.7199 15.66 13.7899 15.69C13.8699 15.72 13.9499 15.73 14.0399 15.73C14.2099 15.73 14.3399 15.67 14.4499 15.56L15.2099 14.81C15.4599 14.56 15.6999 14.37 15.9299 14.25C16.1599 14.11 16.3899 14.04 16.6399 14.04C16.8299 14.04 17.0299 14.08 17.2499 14.17C17.4699 14.26 17.6999 14.39 17.9499 14.56L21.2599 16.91C21.5199 17.09 21.6999 17.3 21.8099 17.55C21.9099 17.8 21.9699 18.05 21.9699 18.33Z" stroke="#7CC7B9" stroke-width="0.871182" stroke-miterlimit="10"/>
<path d="M18.5 9C18.5 8.4 18.03 7.48 17.33 6.73C16.69 6.04 15.84 5.5 15 5.5M22 9C22 5.13 18.87 2 15 2" stroke="#7CC7B9" stroke-width="0.871182" stroke-linecap="round" stroke-linejoin="round"/>
</svg>
