<svg width="159" height="35" viewBox="0 0 159 35" fill="none" xmlns="http://www.w3.org/2000/svg">
<path d="M12.2062 0C13.0437 1.02422 13.9216 2.02321 14.7138 3.08779C16.1416 4.99495 17.3626 7.0333 18.1749 9.2886C18.5937 10.4541 18.8712 11.6448 18.8157 12.8961C18.7703 13.9859 18.4474 15.005 17.8772 15.8981C16.9438 17.3663 15.9297 18.7841 14.9105 20.1917C13.9015 21.5843 12.8621 22.9516 12.1103 24.5106C10.8944 27.0333 10.9903 29.4854 12.5594 31.8214C13.5584 33.3098 14.9711 34.2381 16.7269 34.6771C15.2183 35.0505 11.3939 34.6367 8.59873 31.8012C8.52809 31.9879 8.45746 32.1443 8.407 32.3058C8.3616 32.4622 8.33637 32.6287 8.22537 32.7851C8.25564 32.4168 8.21023 32.0232 8.33132 31.6852C8.88127 30.111 8.56341 28.6781 7.77633 27.2704C7.34242 26.4884 6.94888 25.671 6.63607 24.8335C6.44434 24.3189 6.42416 23.7386 6.35857 23.1837C6.30811 22.7548 6.04575 22.4117 5.66735 22.3562C5.34949 22.3108 4.97613 22.5479 4.92063 22.9717C4.85504 23.5166 4.8954 24.0767 4.92567 24.6317C4.9509 25.1261 5.02658 25.6206 5.03667 26.115C4.53718 24.7578 3.91659 23.446 4.37572 21.9173C4.60781 21.1504 4.65827 20.3179 4.72386 19.5056C4.76422 19.0111 4.51699 18.7336 4.08309 18.5923C3.78036 19.4854 3.45241 20.3683 3.17996 21.2765C2.34747 24.0666 2.21629 26.8618 3.21023 29.6418C3.93677 31.6751 5.1729 33.3552 6.85302 34.7124C6.91861 34.7679 6.9842 34.8184 7.04979 34.8739C7.05988 34.8789 7.05988 34.894 7.10024 35C6.69661 34.7881 6.34848 34.6317 6.02557 34.4349C2.54928 32.3461 0.561394 29.2785 0.0669435 25.2573C-0.230736 22.8153 0.490758 20.6105 1.7067 18.5267C2.88733 16.4985 4.35554 14.672 5.79853 12.8305C7.22638 11.004 8.63909 9.17255 9.80458 7.15943C10.9701 5.14632 11.7925 3.01211 12.0347 0.68113C12.0447 0.570131 12.0498 0.464178 12.0599 0.353179C12.0649 0.262361 12.075 0.166498 12.0801 0.0756811C12.1204 0.0504541 12.1608 0.025227 12.2062 0ZM4.96099 22.0182C5.35958 21.1302 5.78844 20.2523 5.83385 19.2634C5.84394 19.0161 5.79348 18.7487 5.69762 18.5267C5.58662 18.2795 5.36462 18.1282 5.03667 18.2089C5.43021 19.5005 4.92063 20.7467 4.96099 22.0182ZM5.6623 22.0333C5.71276 22.0434 5.76321 22.0585 5.81366 22.0686C6.12648 21.3724 6.46452 20.6862 6.74706 19.9798C6.85302 19.7074 6.86311 19.3845 6.85806 19.0868C6.85302 18.7487 6.5957 18.5368 6.19711 18.5015C6.40398 19.7326 5.83889 20.8527 5.6623 22.0333ZM6.3737 22.4319C6.39389 22.4369 6.40902 22.442 6.4292 22.447C6.60075 22.1998 6.78743 21.9576 6.93879 21.7003C7.11538 21.3976 7.28692 21.0898 7.41306 20.7619C7.55937 20.3734 7.45847 20.1564 7.18601 20.0252C6.91861 20.8224 6.64616 21.6246 6.3737 22.4319Z" fill="#FDFDFD"/>
<path d="M20.743 13.5469C21.3282 14.778 21.8933 15.9082 22.408 17.0585C23.2405 18.9354 23.8762 20.8829 24.0528 22.9415C24.3 25.8224 23.6088 28.4712 21.9741 30.8729C21.2374 31.9475 20.3343 32.7851 19.0225 33.0373C17.4231 33.3401 16.0255 32.8607 14.8298 31.8113C13.5028 30.6458 12.8318 29.1574 13.0386 27.3865C13.1295 26.6297 13.3918 25.8678 13.7046 25.1665C14.4211 23.5621 15.5664 22.2351 16.6411 20.8628C17.5291 19.7326 18.3969 18.5873 19.2092 17.4016C19.9256 16.3623 20.3999 15.1968 20.637 13.9455C20.6471 13.8496 20.6824 13.7588 20.743 13.5469Z" fill="#FDFDFD"/>
<path d="M44.5422 11.8416V24.6216C44.5422 25.9233 44.4816 26.9021 44.3555 27.553C44.2294 28.2038 44.0275 28.7992 43.7399 29.3441C43.1295 30.5853 42.2465 31.559 41.0911 32.2603C39.9357 32.9616 38.6592 33.3098 37.2566 33.3098C35.1426 33.3098 33.3969 32.5984 32.0245 31.1705C30.6471 29.7427 29.9609 27.9415 29.9609 25.7568C29.9609 24.778 30.1274 23.8446 30.4655 22.9566C30.8035 22.0686 31.2879 21.2714 31.9337 20.5701C32.5845 19.8385 33.3666 19.2735 34.2748 18.8749C35.1829 18.4763 36.1315 18.2745 37.1153 18.2745C37.8368 18.2745 38.523 18.3552 39.1789 18.5166C39.8348 18.6781 40.4604 18.9304 41.0507 19.2634V22.0636C40.4503 21.6095 39.8499 21.2714 39.2495 21.0545C38.6542 20.8375 38.0386 20.7265 37.408 20.7265C36.0154 20.7265 34.8701 21.2058 33.972 22.1645C33.074 23.1231 32.6249 24.3491 32.6249 25.8527C32.6249 27.3259 33.0639 28.5267 33.9367 29.4601C34.8096 30.3935 35.9297 30.8577 37.2919 30.8577C38.6643 30.8577 39.7793 30.3885 40.637 29.445C41.4947 28.5015 41.9236 27.2704 41.9236 25.7518V11.8416H44.5422Z" fill="#FDFDFD"/>
<path d="M46.9287 25.7619C46.9287 24.7528 47.1154 23.7992 47.4938 22.891C47.8672 21.9828 48.4121 21.1655 49.1235 20.4339C49.8248 19.7225 50.6119 19.1826 51.4847 18.8143C52.3576 18.446 53.291 18.2593 54.2748 18.2593C55.2637 18.2593 56.1971 18.446 57.0902 18.8143C57.9782 19.1826 58.7703 19.7225 59.4615 20.4339C60.1628 21.1453 60.6976 21.9576 61.0659 22.8759C61.4343 23.7941 61.6209 24.7578 61.6209 25.7619C61.6209 26.7911 61.4343 27.7649 61.0659 28.6882C60.6976 29.6115 60.1628 30.4289 59.4615 31.1403C58.7703 31.8517 57.9832 32.3915 57.0902 32.7598C56.2022 33.1282 55.2637 33.3148 54.2748 33.3148C53.2859 33.3148 52.3576 33.1282 51.4847 32.7598C50.6119 32.3915 49.8248 31.8517 49.1235 31.1403C48.4121 30.4188 47.8722 29.6014 47.4938 28.6831C47.1154 27.7598 46.9287 26.7861 46.9287 25.7619ZM49.6381 25.7316C49.6381 27.1443 50.0922 28.3401 50.9953 29.3239C51.8984 30.3078 52.9933 30.7972 54.2748 30.7972C55.5564 30.7972 56.6512 30.3078 57.5543 29.3239C58.4575 28.3401 58.9116 27.1443 58.9116 25.7316C58.9116 24.329 58.4625 23.1382 57.5644 22.1645C56.6663 21.1857 55.5715 20.6963 54.2748 20.6963C52.9933 20.6963 51.8984 21.1857 50.9953 22.1645C50.0871 23.1382 49.6381 24.329 49.6381 25.7316Z" fill="#FDFDFD"/>
<path d="M64.0881 33.0474V25.1261C64.0881 23.0121 64.6532 21.3421 65.7783 20.106C66.9035 18.8698 68.402 18.2543 70.2788 18.2543C72.1557 18.2543 73.6492 18.8698 74.7642 20.106C75.8793 21.3421 76.4393 23.0121 76.4393 25.1261V33.0474H73.8611V24.6519C73.8611 23.5066 73.5281 22.5732 72.8621 21.8517C72.1961 21.1302 71.3333 20.7719 70.2788 20.7719C69.2344 20.7719 68.3717 21.1302 67.6956 21.8517C67.0195 22.5732 66.6815 23.5066 66.6815 24.6519V33.0474H64.0881Z" fill="#FDFDFD"/>
<path d="M90.9348 33.0474V25.8073C90.9348 24.2886 90.5059 23.0575 89.6482 22.114C88.7905 21.1705 87.6755 20.7013 86.3031 20.7013C84.9408 20.7013 83.8208 21.1655 82.9479 22.0989C82.0751 23.0323 81.6361 24.2331 81.6361 25.7064C81.6361 27.2048 82.0851 28.4359 82.9832 29.3945C83.8813 30.3532 85.0266 30.8325 86.4192 30.8325C87.0498 30.8325 87.6654 30.7265 88.2607 30.5045C88.8561 30.2876 89.4565 29.9495 90.0619 29.4955V32.2906C89.4716 32.6287 88.846 32.8759 88.1901 33.0373C87.5342 33.1988 86.843 33.2795 86.1265 33.2795C85.4353 33.2795 84.7491 33.1736 84.068 32.9617C83.3869 32.7497 82.7713 32.4521 82.2163 32.0636C81.1719 31.3421 80.3697 30.444 79.8198 29.3592C79.2698 28.2745 78.9923 27.0787 78.9923 25.7518C78.9923 23.5822 79.6785 21.7861 81.0508 20.3683C82.4232 18.9506 84.1639 18.2442 86.2779 18.2442C87.6704 18.2442 88.9419 18.5974 90.0973 19.2936C91.2527 19.995 92.1406 20.9586 92.7612 22.1796C93.0488 22.7346 93.2506 23.335 93.3768 23.9909C93.4979 24.6468 93.5635 25.6256 93.5635 26.9324V33.0474H90.9348Z" fill="#FDFDFD"/>
<path d="M96.7067 14.672H99.3151V18.5217H103.715V20.9788H99.3151V27.1947C99.3151 28.3602 99.5977 29.2129 100.168 29.7477C100.738 30.2876 101.641 30.555 102.882 30.555H103.71V33.0424H102.852C100.798 33.0424 99.2596 32.5933 98.2405 31.6952C97.2163 30.7972 96.7067 29.445 96.7067 27.6387V14.672Z" fill="#FDFDFD"/>
<path d="M120.208 26.6196C119.845 28.6932 119.002 30.333 117.691 31.5338C116.379 32.7397 114.779 33.3401 112.892 33.3401C112.252 33.3401 111.616 33.2543 110.99 33.0827C110.365 32.9112 109.774 32.6539 109.219 32.3209C108.054 31.6095 107.151 30.6811 106.51 29.5358C105.869 28.3905 105.546 27.1342 105.546 25.7619C105.546 24.7528 105.733 23.7992 106.101 22.891C106.47 21.9828 107.004 21.1655 107.706 20.4339C108.407 19.7124 109.204 19.1675 110.097 18.7891C110.99 18.4157 111.929 18.224 112.918 18.224C114.391 18.224 115.703 18.6125 116.863 19.3845C118.024 20.1615 118.962 21.2866 119.684 22.7699L110.163 28.0424L109.068 26.0747L116.132 22.1342C115.698 21.6498 115.208 21.2866 114.663 21.0394C114.118 20.7921 113.528 20.671 112.887 20.671C111.586 20.671 110.486 21.1554 109.593 22.1292C108.7 23.1029 108.251 24.3037 108.251 25.7366C108.251 27.1594 108.7 28.3602 109.598 29.334C110.496 30.3078 111.591 30.8022 112.887 30.8022C114.123 30.8022 115.158 30.3935 115.99 29.5812C116.823 28.7689 117.347 27.6488 117.554 26.226L120.208 26.6196Z" fill="#FDFDFD"/>
<path d="M122.872 33.0474V11.8416H125.481V33.0474H122.872Z" fill="#FFBB0D"/>
<path d="M128.78 14.3895C128.78 13.9556 128.932 13.5873 129.239 13.2795C129.547 12.9717 129.921 12.8204 130.365 12.8204C130.809 12.8204 131.182 12.9717 131.485 13.2745C131.787 13.5772 131.934 13.9455 131.934 14.3945C131.934 14.8486 131.782 15.2321 131.485 15.5399C131.182 15.8527 130.809 16.004 130.365 16.004C129.931 16.004 129.557 15.8476 129.244 15.5298C128.937 15.2119 128.78 14.8335 128.78 14.3895ZM129.063 33.0474V18.5217H131.671V33.0474H129.063Z" fill="#FFBB0D"/>
<path d="M135.249 33.0474V17.2452C135.249 15.4389 135.758 14.0868 136.772 13.1887C137.786 12.2906 139.325 11.8416 141.379 11.8416H142.948V14.329H141.439C140.183 14.329 139.27 14.6014 138.695 15.1413C138.119 15.6862 137.827 16.5388 137.827 17.7043V18.5166H142.948V20.9738H137.827V33.0474H135.249Z" fill="#FFBB0D"/>
<path d="M158.483 26.6196C158.119 28.6932 157.277 30.333 155.965 31.5338C154.653 32.7397 153.054 33.3401 151.167 33.3401C150.526 33.3401 149.89 33.2543 149.265 33.0827C148.639 32.9112 148.049 32.6539 147.494 32.3209C146.328 31.6095 145.425 30.6811 144.784 29.5358C144.144 28.3905 143.821 27.1342 143.821 25.7619C143.821 24.7528 144.007 23.7992 144.376 22.891C144.744 21.9828 145.279 21.1655 145.98 20.4339C146.682 19.7124 147.479 19.1675 148.372 18.7891C149.265 18.4157 150.203 18.224 151.192 18.224C152.665 18.224 153.977 18.6125 155.138 19.3845C156.298 20.1615 157.237 21.2866 157.958 22.7699L148.437 28.0424L147.343 26.0747L154.406 22.1342C153.972 21.6498 153.483 21.2866 152.938 21.0394C152.393 20.7921 151.803 20.671 151.162 20.671C149.86 20.671 148.76 21.1554 147.867 22.1292C146.974 23.1029 146.525 24.3037 146.525 25.7366C146.525 27.1594 146.974 28.3602 147.872 29.334C148.77 30.3078 149.865 30.8022 151.162 30.8022C152.398 30.8022 153.432 30.3935 154.265 29.5812C155.097 28.7689 155.622 27.6488 155.829 26.226L158.483 26.6196Z" fill="#FFBB0D"/>
</svg>
