<svg width="221" height="221" viewBox="0 0 221 221" fill="none" xmlns="http://www.w3.org/2000/svg">
<path d="M111.59 27C115.61 31.9162 119.824 36.7114 123.626 41.8214C130.48 50.9758 136.341 60.7598 140.24 71.5853C142.25 77.1796 143.582 82.8951 143.315 88.9011C143.097 94.1322 141.547 99.0242 138.811 103.311C134.33 110.358 129.463 117.163 124.571 123.92C119.727 130.604 114.738 137.168 111.13 144.651C105.293 156.76 105.753 168.53 113.285 179.743C118.08 186.887 124.861 191.343 133.289 193.45C126.048 195.242 107.691 193.256 94.2739 179.646C93.9349 180.542 93.5958 181.293 93.3536 182.068C93.1357 182.818 93.0146 183.618 92.4818 184.368C92.6271 182.6 92.4091 180.711 92.9904 179.089C95.6301 171.533 94.1044 164.655 90.3264 157.898C88.2436 154.144 86.3546 150.221 84.8531 146.201C83.9328 143.731 83.836 140.946 83.5211 138.282C83.2789 136.223 82.0196 134.576 80.2033 134.31C78.6775 134.092 76.8854 135.23 76.619 137.264C76.3042 139.88 76.4979 142.568 76.6432 145.232C76.7643 147.605 77.1276 149.979 77.176 152.352C74.7784 145.838 71.7996 139.541 74.0035 132.203C75.1175 128.522 75.3597 124.526 75.6745 120.627C75.8683 118.253 74.6816 116.921 72.5988 116.243C71.1458 120.53 69.5716 124.768 68.2638 129.127C64.2678 142.52 63.6382 155.936 68.4091 169.281C71.8965 179.04 77.8299 187.105 85.8945 193.62C86.2093 193.886 86.5242 194.128 86.839 194.395C86.8874 194.419 86.8874 194.491 87.0812 195C85.1437 193.983 83.4727 193.232 81.9227 192.288C65.2366 182.261 55.6947 167.537 53.3213 148.235C51.8925 136.514 55.3556 125.93 61.1922 115.928C66.8592 106.193 73.9066 97.4258 80.8329 88.5863C87.6866 79.8194 94.4676 71.0283 100.062 61.3653C105.656 51.7023 109.604 41.4581 110.766 30.2694C110.815 29.7366 110.839 29.2281 110.887 28.6953C110.912 28.2593 110.96 27.7992 110.984 27.3633C111.178 27.2422 111.372 27.1211 111.59 27ZM76.8128 132.687C78.726 128.425 80.7845 124.211 81.0025 119.464C81.0509 118.277 80.8087 116.994 80.3486 115.928C79.8158 114.742 78.7502 114.015 77.176 114.403C79.065 120.602 76.619 126.584 76.8128 132.687ZM80.1791 132.76C80.4212 132.808 80.6634 132.881 80.9056 132.929C82.4071 129.587 84.0297 126.294 85.3859 122.903C85.8945 121.595 85.9429 120.045 85.9187 118.617C85.8945 116.994 84.6594 115.977 82.7462 115.807C83.7391 121.716 81.0267 127.093 80.1791 132.76ZM83.5938 134.673C83.6907 134.697 83.7633 134.721 83.8602 134.746C84.6836 133.559 85.5797 132.397 86.3062 131.161C87.1538 129.708 87.9772 128.231 88.5827 126.657C89.285 124.792 88.8006 123.751 87.4929 123.121C86.2093 126.948 84.9016 130.798 83.5938 134.673Z" fill="#BB0A1E"/>
<path d="M152.567 92.0252C155.376 97.9344 158.088 103.359 160.558 108.881C164.554 117.89 167.606 127.238 168.454 137.119C169.64 150.948 166.322 163.662 158.476 175.19C154.94 180.348 150.605 184.368 144.308 185.579C136.631 187.032 129.923 184.732 124.183 179.694C117.814 174.1 114.593 166.956 115.586 158.455C116.022 154.822 117.281 151.165 118.782 147.799C122.221 140.098 127.719 133.729 132.877 127.141C137.14 121.716 141.305 116.219 145.204 110.528C148.643 105.539 150.92 99.9445 152.058 93.9384C152.106 93.4783 152.276 93.0424 152.567 92.0252Z" fill="#BB0A1E"/>
</svg>
