<svg width="218" height="48" viewBox="0 0 218 48" fill="none" xmlns="http://www.w3.org/2000/svg">
<path d="M16.7399 0C17.8885 1.40464 19.0925 2.77469 20.1789 4.23468C22.1371 6.85022 23.8116 9.64567 24.9256 12.7386C25.4999 14.337 25.8805 15.97 25.8044 17.686C25.7421 19.1806 25.2992 20.5783 24.5174 21.8031C23.2373 23.8166 21.8465 25.761 20.4487 27.6915C19.0648 29.6013 17.6395 31.4764 16.6085 33.6145C14.9409 37.0742 15.0723 40.4371 17.2243 43.6408C18.5943 45.682 20.5318 46.9552 22.9397 47.5572C20.8708 48.0692 15.6259 47.5018 11.7925 43.6131C11.6957 43.8691 11.5988 44.0836 11.5296 44.305C11.4673 44.5195 11.4327 44.7479 11.2805 44.9624C11.322 44.4573 11.2597 43.9175 11.4258 43.4539C12.18 41.2951 11.7441 39.33 10.6647 37.3995C10.0696 36.3269 9.52989 35.206 9.10089 34.0574C8.83795 33.3516 8.81027 32.5559 8.72032 31.7947C8.65113 31.2066 8.29132 30.7361 7.77236 30.6599C7.33644 30.5977 6.8244 30.9229 6.74829 31.5041C6.65834 32.2514 6.71369 33.0195 6.75521 33.7806C6.7898 34.4587 6.8936 35.1368 6.90743 35.8149C6.22241 33.9536 5.37132 32.1545 6.00099 30.0579C6.31928 29.0062 6.38848 27.8645 6.47843 26.7505C6.53379 26.0724 6.19473 25.6918 5.59966 25.4981C5.1845 26.7228 4.73474 27.9337 4.36109 29.1792C3.21939 33.0056 3.03948 36.839 4.40261 40.6516C5.399 43.4401 7.09426 45.7443 9.39842 47.6056C9.48838 47.6817 9.57833 47.7509 9.66828 47.827C9.68212 47.8339 9.68212 47.8547 9.73748 48C9.18392 47.7094 8.70648 47.4949 8.26364 47.225C3.49616 44.3604 0.769911 40.1534 0.0918082 34.6386C-0.316437 31.2896 0.673039 28.2658 2.34062 25.4081C3.95976 22.6265 5.97331 20.1217 7.95227 17.5961C9.91046 15.0912 11.8479 12.5795 13.4463 9.81865C15.0447 7.05781 16.1725 4.13089 16.5047 0.934121C16.5185 0.781894 16.5254 0.636586 16.5393 0.484359C16.5462 0.35981 16.56 0.228341 16.5669 0.103791C16.6223 0.0691942 16.6777 0.0345971 16.7399 0ZM6.80364 30.1963C7.35028 28.9785 7.93843 27.7745 8.0007 26.4183C8.01454 26.0793 7.94535 25.7126 7.81388 25.4081C7.66165 25.069 7.3572 24.8615 6.90743 24.9722C7.44715 26.7435 6.74829 28.4526 6.80364 30.1963ZM7.76544 30.2171C7.83464 30.2309 7.90383 30.2517 7.97302 30.2655C8.40203 29.3107 8.86563 28.3696 9.25312 27.4009C9.39842 27.0272 9.41226 26.5844 9.40534 26.1762C9.39842 25.7126 9.04553 25.4219 8.4989 25.3735C8.7826 27.0618 8.00762 28.5979 7.76544 30.2171ZM8.74108 30.7637C8.76876 30.7706 8.78952 30.7776 8.81719 30.7845C9.05245 30.4454 9.30847 30.1133 9.51605 29.7604C9.75823 29.3452 9.99349 28.9232 10.1665 28.4734C10.3671 27.9406 10.2288 27.6431 9.85511 27.4632C9.48838 28.5564 9.11473 29.6566 8.74108 30.7637Z" fill="#BB0A1E"/>
<path d="M28.4476 18.5786C29.2502 20.267 30.0252 21.8169 30.731 23.3946C31.8727 25.9686 32.7445 28.6395 32.9867 31.4626C33.3258 35.4136 32.3778 39.0463 30.1359 42.3399C29.1257 43.8138 27.8871 44.9624 26.0881 45.3084C23.8946 45.7235 21.9779 45.0662 20.338 43.6269C18.5182 42.0285 17.5979 39.9873 17.8816 37.5586C18.0062 36.5207 18.366 35.4759 18.795 34.5141C19.7776 32.3137 21.3483 30.4939 22.8221 28.6118C24.0399 27.0618 25.2301 25.4911 26.3441 23.8651C27.3266 22.4397 27.9771 20.8413 28.3023 19.1253C28.3161 18.9938 28.3646 18.8693 28.4476 18.5786Z" fill="#BB0A1E"/>
<path d="M61.0865 16.2399V33.7668C61.0865 35.552 61.0034 36.8943 60.8305 37.7869C60.6575 38.6795 60.3807 39.496 59.9863 40.2433C59.149 41.9455 57.9381 43.281 56.3536 44.2428C54.769 45.2045 53.0184 45.682 51.0948 45.682C48.1956 45.682 45.8015 44.7064 43.9194 42.7482C42.0304 40.79 41.0894 38.3197 41.0894 35.3236C41.0894 33.9813 41.3177 32.7012 41.7813 31.4833C42.2449 30.2655 42.9092 29.1723 43.7948 28.2105C44.6875 27.2071 45.76 26.4322 47.0055 25.8855C48.251 25.3389 49.5518 25.0621 50.9011 25.0621C51.8906 25.0621 52.8316 25.1728 53.7311 25.3943C54.6307 25.6157 55.4887 25.9616 56.2982 26.4183V30.2586C55.4748 29.6359 54.6514 29.1723 53.828 28.8747C53.0115 28.5772 52.1673 28.425 51.3024 28.425C49.3927 28.425 47.8219 29.0823 46.5903 30.397C45.3586 31.7117 44.7428 33.3931 44.7428 35.4551C44.7428 37.4756 45.3448 39.1224 46.5419 40.4025C47.7389 41.6826 49.275 42.3192 51.1433 42.3192C53.0254 42.3192 54.5545 41.6756 55.7308 40.3817C56.9071 39.0878 57.4953 37.3994 57.4953 35.3167V16.2399H61.0865Z" fill="#BB0A1E"/>
<path d="M64.3594 35.3306C64.3594 33.9467 64.6154 32.6389 65.1343 31.3934C65.6464 30.1479 66.3937 29.027 67.3693 28.0237C68.3311 27.048 69.4105 26.3076 70.6076 25.8025C71.8047 25.2974 73.0848 25.0414 74.434 25.0414C75.7903 25.0414 77.0703 25.2974 78.2951 25.8025C79.5129 26.3076 80.5992 27.048 81.5472 28.0237C82.509 28.9993 83.2425 30.1133 83.7476 31.3726C84.2527 32.632 84.5087 33.9536 84.5087 35.3306C84.5087 36.7421 84.2527 38.0776 83.7476 39.3438C83.2425 40.6101 82.509 41.731 81.5472 42.7067C80.5992 43.6823 79.5198 44.4227 78.2951 44.9278C77.0773 45.4329 75.7903 45.6889 74.434 45.6889C73.0778 45.6889 71.8047 45.4329 70.6076 44.9278C69.4105 44.4227 68.3311 43.6823 67.3693 42.7067C66.3937 41.7172 65.6533 40.5962 65.1343 39.3369C64.6154 38.0706 64.3594 36.7352 64.3594 35.3306ZM68.0751 35.289C68.0751 37.2265 68.6978 38.8664 69.9364 40.2157C71.175 41.565 72.6765 42.2361 74.434 42.2361C76.1916 42.2361 77.6931 41.565 78.9317 40.2157C80.1702 38.8664 80.793 37.2265 80.793 35.289C80.793 33.3654 80.1772 31.7325 78.9455 30.397C77.7138 29.0546 76.2123 28.3835 74.434 28.3835C72.6765 28.3835 71.175 29.0546 69.9364 30.397C68.6909 31.7325 68.0751 33.3654 68.0751 35.289Z" fill="#BB0A1E"/>
<path d="M87.8923 45.3222V34.4587C87.8923 31.5595 88.6672 29.2691 90.2103 27.5739C91.7533 25.8786 93.8084 25.0345 96.3824 25.0345C98.9564 25.0345 101.005 25.8786 102.534 27.5739C104.063 29.2691 104.831 31.5595 104.831 34.4587V45.3222H101.295V33.8083C101.295 32.2376 100.839 30.9575 99.9251 29.968C99.0118 28.9785 97.8286 28.4872 96.3824 28.4872C94.9501 28.4872 93.7669 28.9785 92.8397 29.968C91.9125 30.9575 91.4489 32.2376 91.4489 33.8083V45.3222H87.8923Z" fill="#BB0A1E"/>
<path d="M124.711 45.3222V35.3928C124.711 33.3101 124.122 31.6217 122.946 30.3278C121.77 29.0339 120.241 28.3904 118.359 28.3904C116.49 28.3904 114.954 29.0269 113.757 30.307C112.56 31.5871 111.958 33.2339 111.958 35.2544C111.958 37.3095 112.574 38.9978 113.806 40.3125C115.037 41.6272 116.608 42.2845 118.518 42.2845C119.383 42.2845 120.227 42.1392 121.043 41.8348C121.86 41.5372 122.683 41.0736 123.513 40.4509V44.2843C122.704 44.7479 121.846 45.0869 120.946 45.3083C120.047 45.5298 119.099 45.6405 118.116 45.6405C117.168 45.6405 116.227 45.4952 115.293 45.2045C114.359 44.9139 113.515 44.5057 112.754 43.9729C111.321 42.9834 110.221 41.7517 109.467 40.2641C108.713 38.7764 108.332 37.1365 108.332 35.3167C108.332 32.3413 109.273 29.878 111.155 27.9337C113.037 25.9893 115.425 25.0206 118.324 25.0206C120.234 25.0206 121.977 25.505 123.562 26.4598C125.146 27.4216 126.364 28.7432 127.215 30.4177C127.61 31.1789 127.887 32.0023 128.06 32.9018C128.226 33.8013 128.316 35.1437 128.316 36.9358V45.3222H124.711Z" fill="#BB0A1E"/>
<path d="M132.626 20.1216H136.204V25.4012H142.237V28.7709H136.204V37.2956C136.204 38.894 136.591 40.0634 137.373 40.7969C138.155 41.5372 139.394 41.904 141.096 41.904H142.23V45.3152H141.054C138.238 45.3152 136.128 44.6994 134.73 43.4678C133.325 42.2361 132.626 40.3817 132.626 37.9045V20.1216Z" fill="#BB0A1E"/>
<path d="M164.857 36.5068C164.359 39.3507 163.203 41.5995 161.404 43.2463C159.605 44.9001 157.412 45.7235 154.824 45.7235C153.945 45.7235 153.073 45.6059 152.215 45.3706C151.357 45.1353 150.548 44.7825 149.786 44.3258C148.188 43.3501 146.95 42.077 146.071 40.5063C145.192 38.9355 144.749 37.2126 144.749 35.3305C144.749 33.9466 145.005 32.6389 145.51 31.3934C146.015 30.1479 146.749 29.0269 147.711 28.0236C148.672 27.0341 149.766 26.2869 150.99 25.7679C152.215 25.2559 153.502 24.9929 154.858 24.9929C156.879 24.9929 158.678 25.5257 160.269 26.5844C161.861 27.65 163.148 29.193 164.137 31.2273L151.08 38.4581L149.579 35.7595L159.266 30.3555C158.671 29.6912 158 29.193 157.253 28.854C156.505 28.5149 155.696 28.3488 154.817 28.3488C153.032 28.3488 151.523 29.0131 150.299 30.3485C149.074 31.684 148.458 33.3308 148.458 35.2959C148.458 37.2472 149.074 38.894 150.305 40.2295C151.537 41.5649 153.039 42.243 154.817 42.243C156.512 42.243 157.931 41.6826 159.072 40.5685C160.214 39.4545 160.934 37.9184 161.217 35.9671L164.857 36.5068Z" fill="#BB0A1E"/>
<path d="M168.51 45.3222V16.2399H172.088V45.3222H168.51Z" fill="#6D6E71"/>
<path d="M176.613 19.7342C176.613 19.1391 176.821 18.634 177.243 18.2119C177.665 17.7898 178.177 17.5822 178.786 17.5822C179.395 17.5822 179.907 17.7898 180.322 18.205C180.737 18.6202 180.938 19.1253 180.938 19.7411C180.938 20.3639 180.73 20.8897 180.322 21.3118C179.907 21.7408 179.395 21.9484 178.786 21.9484C178.191 21.9484 177.679 21.7339 177.25 21.298C176.828 20.862 176.613 20.3431 176.613 19.7342ZM177.001 45.3222V25.4012H180.578V45.3222H177.001Z" fill="#6D6E71"/>
<path d="M185.484 45.3222V23.6506C185.484 21.1734 186.183 19.319 187.573 18.0874C188.964 16.8557 191.075 16.2399 193.891 16.2399H196.043V19.6511H193.974C192.251 19.6511 190.999 20.0248 190.21 20.7652C189.421 21.5125 189.02 22.6818 189.02 24.2802V25.3943H196.043V28.764H189.02V45.3222H185.484Z" fill="#6D6E71"/>
<path d="M217.348 36.5068C216.849 39.3507 215.694 41.5995 213.895 43.2463C212.096 44.9001 209.902 45.7235 207.315 45.7235C206.436 45.7235 205.564 45.6059 204.706 45.3706C203.848 45.1353 203.038 44.7825 202.277 44.3258C200.679 43.3501 199.44 42.077 198.561 40.5063C197.683 38.9355 197.24 37.2126 197.24 35.3305C197.24 33.9466 197.496 32.6389 198.001 31.3934C198.506 30.1479 199.24 29.0269 200.201 28.0236C201.163 27.0341 202.256 26.2869 203.481 25.7679C204.706 25.2559 205.993 24.9929 207.349 24.9929C209.37 24.9929 211.169 25.5257 212.76 26.5844C214.352 27.65 215.639 29.193 216.628 31.2273L203.571 38.4581L202.07 35.7595L211.757 30.3555C211.162 29.6912 210.491 29.193 209.743 28.854C208.996 28.5149 208.186 28.3488 207.308 28.3488C205.522 28.3488 204.014 29.0131 202.789 30.3485C201.565 31.684 200.949 33.3308 200.949 35.2959C200.949 37.2472 201.565 38.894 202.796 40.2295C204.028 41.5649 205.529 42.243 207.308 42.243C209.003 42.243 210.421 41.6826 211.563 40.5685C212.705 39.4545 213.424 37.9184 213.708 35.9671L217.348 36.5068Z" fill="#6D6E71"/>
</svg>
