<svg width="19" height="19" viewBox="0 0 19 19" fill="none" xmlns="http://www.w3.org/2000/svg">
<path d="M17.6667 7.66667V10.1667C17.6667 13.5 16 15.1667 12.6667 15.1667H12.25C11.9917 15.1667 11.7417 15.2917 11.5833 15.5L10.3333 17.1667C9.78333 17.9 8.88333 17.9 8.33333 17.1667L7.08333 15.5C6.95 15.3167 6.64167 15.1667 6.41667 15.1667H6C2.66667 15.1667 1 14.3333 1 10.1667V6C1 2.66667 2.66667 1 6 1H11" stroke="#434343" stroke-miterlimit="10" stroke-linecap="round" stroke-linejoin="round"/>
<path d="M15.5833 5.16667C16.1359 5.16667 16.6658 4.94717 17.0565 4.55647C17.4472 4.16577 17.6667 3.63587 17.6667 3.08333C17.6667 2.5308 17.4472 2.00089 17.0565 1.61019C16.6658 1.21949 16.1359 1 15.5833 1C15.0308 1 14.5009 1.21949 14.1102 1.61019C13.7195 2.00089 13.5 2.5308 13.5 3.08333C13.5 3.63587 13.7195 4.16577 14.1102 4.55647C14.5009 4.94717 15.0308 5.16667 15.5833 5.16667Z" stroke="#434343" stroke-linecap="round" stroke-linejoin="round"/>
<path d="M12.6633 8.5H12.6717M9.32918 8.5H9.33752M5.99585 8.5H6.00252" stroke="#434343" stroke-linecap="round" stroke-linejoin="round"/>
</svg>
