<svg width="106" height="18" viewBox="0 0 106 18" fill="none" xmlns="http://www.w3.org/2000/svg">
<path d="M12.7273 0V10.3933C12.7273 11.452 12.678 12.248 12.5754 12.7773C12.4729 13.3066 12.3087 13.7908 12.0749 14.2339C11.5784 15.2433 10.8603 16.0352 9.92069 16.6056C8.98106 17.1759 7.94295 17.459 6.80227 17.459C5.08304 17.459 3.66334 16.8805 2.54728 15.7193C1.42711 14.5581 0.86908 13.0932 0.86908 11.3166C0.86908 10.5205 1.00448 9.76146 1.2794 9.0393C1.55431 8.31714 1.94821 7.66884 2.47342 7.0985C3.00273 6.50353 3.63872 6.04398 4.3773 5.71983C5.11587 5.39568 5.88726 5.23155 6.68738 5.23155C7.27414 5.23155 7.83217 5.2972 8.36558 5.4285C8.899 5.5598 9.40779 5.76496 9.88786 6.03577V8.31304C9.39958 7.94375 8.91131 7.66884 8.42303 7.4924C7.93885 7.31596 7.43826 7.22569 6.92537 7.22569C5.79289 7.22569 4.86147 7.6155 4.13111 8.3951C3.40074 9.1747 3.03556 10.1718 3.03556 11.3945C3.03556 12.5926 3.39253 13.5692 4.10238 14.3283C4.81223 15.0874 5.72314 15.4649 6.831 15.4649C7.94706 15.4649 8.85386 15.0833 9.5514 14.316C10.2489 13.5487 10.5977 12.5475 10.5977 11.3125V0H12.7273Z" fill="#BB0A1E"/>
<path d="M14.6681 11.3207C14.6681 10.5 14.8199 9.72453 15.1276 8.98595C15.4313 8.24738 15.8744 7.58267 16.453 6.98771C17.0233 6.40916 17.6634 5.97012 18.3733 5.67059C19.0831 5.37106 19.8422 5.21924 20.6423 5.21924C21.4465 5.21924 22.2056 5.37106 22.9319 5.67059C23.654 5.97012 24.2982 6.40916 24.8604 6.98771C25.4307 7.56626 25.8657 8.22687 26.1652 8.97364C26.4647 9.72042 26.6165 10.5041 26.6165 11.3207C26.6165 12.1577 26.4647 12.9496 26.1652 13.7005C25.8657 14.4514 25.4307 15.1161 24.8604 15.6946C24.2982 16.2732 23.6581 16.7122 22.9319 17.0118C22.2097 17.3113 21.4465 17.4631 20.6423 17.4631C19.8381 17.4631 19.0831 17.3113 18.3733 17.0118C17.6634 16.7122 17.0233 16.2732 16.453 15.6946C15.8744 15.1079 15.4354 14.4432 15.1276 13.6964C14.8199 12.9455 14.6681 12.1536 14.6681 11.3207ZM16.8715 11.296C16.8715 12.4449 17.2408 13.4174 17.9752 14.2175C18.7097 15.0176 19.6001 15.4156 20.6423 15.4156C21.6845 15.4156 22.5749 15.0176 23.3094 14.2175C24.0438 13.4174 24.4131 12.4449 24.4131 11.296C24.4131 10.1554 24.0479 9.18701 23.3176 8.3951C22.5872 7.59908 21.6968 7.20107 20.6423 7.20107C19.6001 7.20107 18.7097 7.59908 17.9752 8.3951C17.2367 9.18701 16.8715 10.1554 16.8715 11.296Z" fill="#BB0A1E"/>
<path d="M28.6229 17.2457V10.8037C28.6229 9.08444 29.0825 7.72629 29.9975 6.72101C30.9125 5.71574 32.1311 5.21515 33.6575 5.21515C35.1839 5.21515 36.3984 5.71574 37.3052 6.72101C38.212 7.72629 38.6675 9.08444 38.6675 10.8037V17.2457H36.5708V10.418C36.5708 9.48656 36.3 8.72747 35.7584 8.14071C35.2167 7.55396 34.5151 7.26263 33.6575 7.26263C32.8082 7.26263 32.1065 7.55396 31.5567 8.14071C31.0069 8.72747 30.732 9.48656 30.732 10.418V17.2457H28.6229Z" fill="#BB0A1E"/>
<path d="M50.456 17.2457V11.3576C50.456 10.1226 50.1072 9.1214 49.4097 8.35411C48.7121 7.58681 47.8053 7.20522 46.6893 7.20522C45.5814 7.20522 44.6705 7.58271 43.9607 8.3418C43.2508 9.10088 42.8938 10.0774 42.8938 11.2756C42.8938 12.4942 43.259 13.4954 43.9894 14.275C44.7198 15.0546 45.6512 15.4444 46.7836 15.4444C47.2965 15.4444 47.7971 15.3582 48.2813 15.1777C48.7655 15.0013 49.2538 14.7263 49.7461 14.3571V16.6302C49.2661 16.9051 48.7573 17.1062 48.2239 17.2375C47.6904 17.3688 47.1283 17.4344 46.5457 17.4344C45.9835 17.4344 45.4255 17.3483 44.8716 17.1759C44.3176 17.0036 43.8171 16.7615 43.3657 16.4456C42.5163 15.8588 41.8639 15.1285 41.4167 14.2463C40.9694 13.3641 40.7438 12.3916 40.7438 11.3125C40.7438 9.54813 41.3018 8.0874 42.4179 6.93441C43.5339 5.78141 44.9495 5.20697 46.6688 5.20697C47.8012 5.20697 48.8352 5.49419 49.7749 6.06043C50.7145 6.63077 51.4367 7.41448 51.9413 8.40745C52.1752 8.8588 52.3394 9.34707 52.4419 9.88049C52.5404 10.4139 52.5937 11.2099 52.5937 12.2726V17.2457H50.456Z" fill="#BB0A1E"/>
<path d="M55.15 2.30188H57.2714V5.4326H60.8493V7.43085H57.2714V12.486C57.2714 13.4338 57.5011 14.1272 57.9648 14.5622C58.4285 15.0012 59.1629 15.2187 60.1723 15.2187H60.8452V17.2415H60.1477C58.4777 17.2415 57.2262 16.8764 56.3974 16.146C55.5644 15.4156 55.15 14.316 55.15 12.847V2.30188Z" fill="#BB0A1E"/>
<path d="M74.2626 12.0182C73.9671 13.7046 73.2819 15.0381 72.2151 16.0147C71.1483 16.9953 69.8476 17.4836 68.313 17.4836C67.7919 17.4836 67.2749 17.4139 66.7661 17.2743C66.2573 17.1348 65.7772 16.9256 65.3259 16.6548C64.378 16.0762 63.6436 15.3212 63.1225 14.3898C62.6013 13.4584 62.3387 12.4367 62.3387 11.3206C62.3387 10.5 62.4906 9.7245 62.7901 8.98593C63.0896 8.24736 63.5246 7.58264 64.0949 6.98768C64.6652 6.40093 65.3135 5.95779 66.0398 5.65005C66.7661 5.34641 67.5293 5.19049 68.3335 5.19049C69.5316 5.19049 70.5984 5.50643 71.5422 6.13422C72.4859 6.76611 73.2491 7.68112 73.8358 8.88745L66.0931 13.1753L65.2028 11.575L70.9472 8.37045C70.5943 7.97655 70.1963 7.68112 69.7532 7.48006C69.31 7.27901 68.83 7.18053 68.3089 7.18053C67.2502 7.18053 66.3558 7.57444 65.6295 8.36635C64.9032 9.15826 64.538 10.1348 64.538 11.3001C64.538 12.4572 64.9032 13.4338 65.6336 14.2257C66.364 15.0176 67.2544 15.4197 68.3089 15.4197C69.3141 15.4197 70.1553 15.0874 70.8323 14.4267C71.5093 13.7661 71.9361 12.8552 72.1043 11.6981L74.2626 12.0182Z" fill="#BB0A1E"/>
<path d="M76.429 17.2456V0H78.5504V17.2456H76.429Z" fill="#6D6E71"/>
<path d="M81.2339 2.07211C81.2339 1.71924 81.357 1.4197 81.6073 1.16941C81.8576 0.919116 82.1612 0.796021 82.5223 0.796021C82.8834 0.796021 83.187 0.919116 83.4332 1.16531C83.6794 1.4115 83.7984 1.71103 83.7984 2.07621C83.7984 2.4455 83.6753 2.75734 83.4332 3.00763C83.187 3.26203 82.8834 3.38512 82.5223 3.38512C82.1694 3.38512 81.8658 3.25793 81.6114 2.99943C81.3611 2.74093 81.2339 2.43319 81.2339 2.07211ZM81.4637 17.2457V5.43261H83.585V17.2457H81.4637Z" fill="#6D6E71"/>
<path d="M86.4941 17.2456V4.3945C86.4941 2.92556 86.9086 1.82591 87.7333 1.09555C88.558 0.365183 89.8095 0 91.4795 0H92.7556V2.02287H91.5287C90.507 2.02287 89.7644 2.24444 89.2966 2.68348C88.8289 3.12662 88.5909 3.82006 88.5909 4.76789V5.4285H92.7556V7.42675H88.5909V17.2456H86.4941Z" fill="#6D6E71"/>
<path d="M105.389 12.0182C105.094 13.7046 104.409 15.0381 103.342 16.0147C102.275 16.9953 100.974 17.4836 99.4397 17.4836C98.9186 17.4836 98.4016 17.4139 97.8928 17.2743C97.384 17.1348 96.9039 16.9256 96.4526 16.6548C95.5047 16.0762 94.7703 15.3212 94.2492 14.3898C93.7281 13.4584 93.4655 12.4367 93.4655 11.3206C93.4655 10.5 93.6173 9.7245 93.9168 8.98593C94.2163 8.24736 94.6513 7.58264 95.2216 6.98768C95.792 6.40093 96.4403 5.95779 97.1665 5.65005C97.8928 5.34641 98.656 5.19049 99.4602 5.19049C100.658 5.19049 101.725 5.50643 102.669 6.13422C103.613 6.76611 104.376 7.68112 104.963 8.88745L97.2199 13.1753L96.3295 11.575L102.074 8.37045C101.721 7.97655 101.323 7.68112 100.88 7.48006C100.437 7.27901 99.9567 7.18053 99.4356 7.18053C98.377 7.18053 97.4825 7.57444 96.7562 8.36635C96.0299 9.15826 95.6648 10.1348 95.6648 11.3001C95.6648 12.4572 96.0299 13.4338 96.7603 14.2257C97.4907 15.0176 98.3811 15.4197 99.4356 15.4197C100.441 15.4197 101.282 15.0874 101.959 14.4267C102.636 13.7661 103.063 12.8552 103.231 11.6981L105.389 12.0182Z" fill="#6D6E71"/>
</svg>
