<svg width="40" height="40" viewBox="0 0 40 40" fill="none" xmlns="http://www.w3.org/2000/svg">
<circle cx="20" cy="20" r="20" fill="black"/>
<path d="M7.9863 16.5274L8.01808 16.4068C8.07296 16.201 8.04753 15.982 7.94695 15.7943C7.84637 15.6065 7.67816 15.464 7.47643 15.3957L6.19092 14.9624C6.08199 14.925 5.96653 14.9105 5.85173 14.9196C5.73693 14.9288 5.62524 14.9615 5.52362 15.0157C5.42201 15.0699 5.33263 15.1444 5.26106 15.2346C5.1895 15.3249 5.13726 15.4289 5.10762 15.5402L5.02818 15.8406C4.99865 15.9517 4.99224 16.0676 5.00936 16.1812C5.02648 16.2949 5.06676 16.4038 5.1277 16.5012C5.18864 16.5987 5.26894 16.6825 5.36363 16.7477C5.45832 16.8128 5.56537 16.8578 5.67816 16.8798L7.01133 17.1362C7.2208 17.1778 7.43826 17.138 7.61941 17.0249C7.80056 16.9118 7.93177 16.7339 7.9863 16.5274V16.5274Z" fill="#F6DE81"/>
<path d="M9.5836 13.7881L9.67171 13.6993C9.8218 13.5485 9.90901 13.3463 9.91571 13.1337C9.92242 12.9211 9.84811 12.7138 9.70782 12.5539L8.81302 11.5334C8.73715 11.4467 8.64423 11.3765 8.54005 11.3272C8.43587 11.2779 8.32266 11.2507 8.20748 11.2471C8.0923 11.2435 7.97761 11.2637 7.87056 11.3063C7.76352 11.349 7.6664 11.4133 7.58528 11.4951L7.36862 11.7154C7.28721 11.797 7.22349 11.8945 7.18142 12.0018C7.13935 12.1091 7.11984 12.224 7.12411 12.3392C7.12838 12.4544 7.15633 12.5674 7.20623 12.6713C7.25613 12.7753 7.32689 12.8678 7.41412 12.9431L8.43892 13.8293C8.59944 13.9687 8.8069 14.042 9.01938 14.0343C9.23185 14.0267 9.43351 13.9387 9.5836 13.7881V13.7881Z" fill="#F6DE81"/>
<mask id="mask0_202_193" style="mask-type:alpha" maskUnits="userSpaceOnUse" x="7" y="6" width="28" height="28">
<rect x="7.71729" y="6" width="27.2828" height="27.2828" fill="#C4C4C4"/>
</mask>
<g mask="url(#mask0_202_193)">
<path d="M25.3967 26.1936L19.7881 32.6443C19.6138 32.8448 19.3985 33.0055 19.1567 33.1156C18.915 33.2258 18.6524 33.2828 18.3868 33.2828C18.1211 33.2828 17.8585 33.2258 17.6168 33.1156C17.375 33.0055 17.1597 32.8448 16.9854 32.6443L11.3768 26.1936C11.2389 26.0353 11.1495 25.8407 11.1193 25.633C11.0891 25.4252 11.1193 25.2132 11.2064 25.0222C11.2934 24.8312 11.4336 24.6692 11.6102 24.5558C11.7868 24.4423 11.9924 24.3821 12.2023 24.3823H14.7104V12.582C14.7104 12.2389 14.8467 11.9098 15.0893 11.6671C15.332 11.4244 15.6611 11.2881 16.0043 11.2881H20.7748C21.1179 11.2881 21.4471 11.4244 21.6897 11.6671C21.9324 11.9098 22.0687 12.2389 22.0687 12.582V24.3831H24.5784C24.7875 24.3843 24.9919 24.4456 25.1673 24.5596C25.3427 24.6735 25.4817 24.8354 25.5679 25.026C25.6541 25.2166 25.6837 25.4279 25.6534 25.6349C25.623 25.8418 25.534 26.0358 25.3967 26.1936V26.1936Z" fill="#C0E3A0"/>
<path d="M15.8719 24.3823H14.7036V12.582C14.7036 12.2389 14.8399 11.9098 15.0826 11.6671C15.3253 11.4244 15.6544 11.2881 15.9975 11.2881H17.1659C16.8227 11.2881 16.4936 11.4244 16.2509 11.6671C16.0083 11.9098 15.8719 12.2389 15.8719 12.582V24.3823Z" fill="#A8D4A4"/>
<path d="M18.9686 33.187C18.6209 33.3024 18.2469 33.3122 17.8936 33.2154C17.5404 33.1185 17.2237 32.9193 16.9834 32.6428L11.3748 26.1921C11.237 26.0338 11.1476 25.8391 11.1173 25.6314C11.0871 25.4237 11.1173 25.2116 11.2044 25.0206C11.2915 24.8296 11.4317 24.6677 11.6083 24.5542C11.7849 24.4407 11.9904 24.3805 12.2003 24.3807H13.3639C13.154 24.3805 12.9485 24.4407 12.7718 24.5542C12.5952 24.6677 12.455 24.8296 12.368 25.0206C12.2809 25.2116 12.2507 25.4237 12.2809 25.6314C12.3112 25.8391 12.4005 26.0338 12.5384 26.1921L18.147 32.642C18.3664 32.8948 18.6504 33.0832 18.9686 33.187V33.187Z" fill="#A8D4A4"/>
<path d="M22.062 12.582V19.9712C20.9442 19.7247 19.5863 19.6892 19.0965 18.8424C18.4645 17.7562 19.7956 16.042 19.7956 14.6967C19.7956 13.6264 18.9559 12.3269 18.9267 11.2881H20.7672C20.9372 11.288 21.1056 11.3214 21.2626 11.3864C21.4197 11.4514 21.5625 11.5467 21.6827 11.6668C21.8029 11.787 21.8983 11.9297 21.9634 12.0867C22.0285 12.2437 22.062 12.4121 22.062 12.582V12.582Z" fill="#A8D4A4"/>
<path d="M34.0698 14.6967C34.0698 13.3538 35.3969 11.6373 34.7689 10.5511C34.1204 9.43017 31.9504 9.73193 30.8294 9.08338C29.7433 8.45143 28.9336 6.40784 27.5907 6.40784C26.2477 6.40784 25.4373 8.45459 24.3519 9.08338C23.2309 9.73193 21.061 9.43096 20.4124 10.5511C19.7805 11.6373 21.1115 13.3515 21.1115 14.6967C21.1115 16.042 19.7844 17.7562 20.4124 18.8424C21.061 19.9633 23.2309 19.6616 24.3519 20.3101C25.4381 20.9421 26.2477 22.9856 27.5907 22.9856C28.9336 22.9856 29.744 20.9389 30.8294 20.3101C31.9504 19.6616 34.1204 19.9625 34.7689 18.8424C35.3969 17.7562 34.0698 16.042 34.0698 14.6967Z" fill="#BB0A1E"/>
<path d="M28.1751 22.8529C27.9917 22.9392 27.7917 22.9845 27.589 22.9856C26.2461 22.9856 25.4356 20.9389 24.3502 20.3101C23.2292 19.6616 21.0593 19.9625 20.4115 18.8424C19.7796 17.7562 21.1098 16.042 21.1098 14.6967C21.1098 13.3515 19.7827 11.6381 20.4115 10.5511C21.0601 9.43017 23.23 9.73193 24.3502 9.08338C25.4364 8.45143 26.2461 6.40784 27.589 6.40784C27.7917 6.40894 27.9917 6.45423 28.1751 6.54055C27.16 7.00346 26.4372 8.55096 25.5209 9.08338C24.3999 9.73193 22.23 9.43017 21.5822 10.5511C20.9503 11.6381 22.2805 13.3523 22.2805 14.6967C22.2805 16.0412 20.9534 17.7562 21.5822 18.8424C22.2308 19.9633 24.4007 19.6623 25.5209 20.3101C26.4396 20.8425 27.16 22.39 28.1751 22.8529Z" fill="#922146"/>
<path d="M31.6737 25.1564L31.6389 25.2884C31.5789 25.5135 31.6067 25.753 31.7167 25.9584C31.8267 26.1637 32.0107 26.3195 32.2314 26.3943L33.6375 26.8683C33.7566 26.9091 33.8829 26.9251 34.0085 26.915C34.1341 26.905 34.2562 26.8692 34.3674 26.81C34.4785 26.7507 34.5763 26.6692 34.6546 26.5705C34.7328 26.4718 34.79 26.358 34.8224 26.2363L34.9093 25.9077C34.9416 25.7862 34.9486 25.6594 34.9299 25.5351C34.9111 25.4108 34.8671 25.2916 34.8004 25.1851C34.7338 25.0785 34.6459 24.9868 34.5424 24.9155C34.4388 24.8443 34.3217 24.7951 34.1983 24.7709L32.7401 24.4905C32.511 24.445 32.2731 24.4885 32.075 24.6123C31.8768 24.736 31.7333 24.9306 31.6737 25.1564Z" fill="#F6DE81"/>
<path d="M29.9273 28.1527L29.8309 28.2498C29.6668 28.4149 29.5716 28.636 29.5644 28.8686C29.5572 29.1012 29.6386 29.3279 29.7922 29.5027L30.7709 30.6189C30.8539 30.7138 30.9555 30.7905 31.0695 30.8444C31.1834 30.8983 31.3073 30.9281 31.4333 30.9321C31.5593 30.936 31.6847 30.9139 31.8018 30.8672C31.9189 30.8206 32.0251 30.7503 32.1138 30.6608L32.3508 30.4198C32.4399 30.3306 32.5096 30.2239 32.5556 30.1065C32.6016 29.9891 32.6229 29.8635 32.6183 29.7375C32.6136 29.6115 32.583 29.4878 32.5284 29.3742C32.4739 29.2605 32.3965 29.1593 32.3011 29.0769L31.1786 28.1045C31.0026 27.9526 30.7757 27.8731 30.5434 27.8821C30.3112 27.891 30.091 27.9877 29.9273 28.1527Z" fill="#F6DE81"/>
<path d="M26.9794 29.9862L26.8474 30.0217C26.6229 30.0825 26.4299 30.2263 26.3073 30.4239C26.1847 30.6216 26.1417 30.8584 26.187 31.0866L26.4769 32.5424C26.5015 32.6659 26.5511 32.783 26.6228 32.8864C26.6945 32.9898 26.7867 33.0774 26.8937 33.1437C27.0007 33.21 27.1201 33.2537 27.2447 33.2719C27.3692 33.29 27.4962 33.2824 27.6176 33.2494L27.9455 33.1602C28.0668 33.1272 28.18 33.0697 28.2782 32.9912C28.3763 32.9127 28.4573 32.8149 28.5161 32.7038C28.5749 32.5927 28.6103 32.4707 28.62 32.3454C28.6298 32.2201 28.6136 32.0941 28.5727 31.9752L28.0868 30.5723C28.0109 30.3525 27.8543 30.1697 27.6487 30.0609C27.4431 29.9521 27.2039 29.9254 26.9794 29.9862V29.9862Z" fill="#F6DE81"/>
<path d="M18.4588 25.869L17.7787 25.4005L17.804 22.7937H17.1578V22.0717H17.804V21.2912C17.804 21.0674 17.7563 20.9555 17.661 20.9555C17.5388 20.9868 17.4287 21.0539 17.345 21.1483L16.9927 20.5858C17.0719 20.4631 17.1762 20.3585 17.2988 20.279C17.4213 20.1995 17.5593 20.1468 17.7036 20.1245C18.3277 20.1245 18.6397 20.5442 18.6397 21.3837C18.6464 21.6138 18.6323 21.8441 18.5978 22.0717H19.1935V22.7597H18.5931V24.9716C19.5105 24.6809 19.9692 24.3201 19.9692 23.8894C19.9692 23.7045 19.8936 23.6121 19.7425 23.6121C19.6867 23.6121 19.555 23.7045 19.3475 23.8894L18.9359 23.3435C19.0003 23.1699 19.1195 23.0221 19.2754 22.9223C19.4314 22.8225 19.6156 22.7763 19.8001 22.7905C19.9301 22.7878 20.059 22.8149 20.1769 22.8696C20.2948 22.9244 20.3986 23.0054 20.4803 23.1065C20.6567 23.3109 20.7522 23.5728 20.7489 23.8428C20.7494 24.7691 19.986 25.4445 18.4588 25.869Z" fill="white"/>
<path d="M22.9977 16.7483C23.1234 16.6719 23.2663 16.6283 23.4133 16.6214C23.5458 16.6171 23.6766 16.6512 23.7901 16.7195C23.9082 16.7908 24.0055 16.8919 24.0724 17.0126C24.143 17.1311 24.1818 17.2657 24.1851 17.4036C24.1874 17.5375 24.1515 17.6693 24.0815 17.7835C24.0037 17.9089 23.8948 18.012 23.7654 18.0828L23.2113 18.4027L22.4415 17.0694L22.9977 16.7483ZM23.515 17.7312C23.5995 17.6882 23.664 17.614 23.6947 17.5243C23.7067 17.4791 23.709 17.4317 23.7013 17.3855C23.6937 17.3393 23.6763 17.2953 23.6503 17.2563C23.6296 17.2141 23.6001 17.1769 23.5638 17.147C23.5275 17.1172 23.4853 17.0954 23.44 17.0831C23.3469 17.0649 23.2504 17.0836 23.171 17.1353L23.0711 17.193L23.4151 17.7889L23.515 17.7312ZM24.2605 16.0192L25.0307 17.3532L24.6121 17.5949L23.8419 16.2609L24.2605 16.0192ZM25.7508 16.9557C25.6139 17.0423 25.4529 17.0828 25.2913 17.0714C25.2175 17.0636 25.1466 17.0386 25.0843 16.9984C25.0219 16.9582 24.9699 16.9039 24.9323 16.8399L25.377 16.5832C25.4276 16.6561 25.4837 16.6748 25.5453 16.6393C25.5654 16.6282 25.5818 16.6115 25.5923 16.5911C25.5969 16.581 25.5988 16.5698 25.5978 16.5587C25.5969 16.5476 25.593 16.537 25.5867 16.5278C25.5769 16.5118 25.5628 16.4989 25.5461 16.4905C25.5293 16.4821 25.5105 16.4786 25.4919 16.4804C25.4255 16.4824 25.3594 16.49 25.2943 16.5032C25.2074 16.5203 25.1194 16.5315 25.0309 16.5367C24.9561 16.5397 24.8815 16.5249 24.8135 16.4935C24.7356 16.4559 24.6722 16.3938 24.633 16.3167C24.5853 16.2385 24.5644 16.1468 24.5735 16.0556C24.5844 15.9667 24.6204 15.8827 24.6771 15.8133C24.7414 15.7333 24.8206 15.6666 24.9102 15.6167C25.0449 15.5273 25.2059 15.4864 25.3669 15.5008C25.4368 15.5112 25.5034 15.5374 25.5616 15.5775C25.6199 15.6175 25.6681 15.6704 25.7028 15.7319L25.2486 15.9942C25.241 15.9789 25.2304 15.9653 25.2176 15.9541C25.2047 15.9429 25.1897 15.9344 25.1735 15.929C25.1467 15.9227 25.1185 15.9272 25.095 15.9415C25.0868 15.946 25.0797 15.9522 25.0741 15.9597C25.0685 15.9671 25.0646 15.9757 25.0626 15.9848C25.0605 15.9951 25.0604 16.0056 25.0624 16.0159C25.0644 16.0262 25.0685 16.036 25.0743 16.0446C25.084 16.0601 25.0979 16.0726 25.1143 16.0807C25.1307 16.0888 25.1491 16.0921 25.1673 16.0904C25.2341 16.0875 25.3006 16.0797 25.3662 16.0668C25.4513 16.052 25.5373 16.0426 25.6236 16.0386C25.6961 16.0361 25.7683 16.0491 25.8354 16.0768C25.9093 16.1088 25.9702 16.1651 26.0077 16.2364C26.0556 16.3128 26.0797 16.4018 26.077 16.4919C26.0744 16.5821 26.0451 16.6695 25.9928 16.743C25.929 16.8311 25.8463 16.9037 25.7508 16.9557ZM25.9715 15.9161C25.8995 15.7952 25.8579 15.6587 25.8503 15.5182C25.8434 15.388 25.8746 15.2587 25.9402 15.1461C26.0131 15.0248 26.1171 14.9251 26.2414 14.8573C26.348 14.7947 26.4675 14.7569 26.5908 14.7468C26.7032 14.737 26.8164 14.7562 26.9193 14.8024C27.0256 14.8511 27.1194 14.9233 27.1936 15.0136L26.7523 15.2683C26.7101 15.2372 26.6599 15.2187 26.6075 15.2151C26.5552 15.2107 26.5027 15.2222 26.457 15.2482C26.4241 15.2655 26.396 15.2906 26.3749 15.3212C26.3538 15.3518 26.3404 15.387 26.3359 15.4239C26.3282 15.5112 26.3498 15.5985 26.3972 15.6722C26.4373 15.7501 26.5021 15.8124 26.5816 15.8494C26.6158 15.8639 26.653 15.87 26.69 15.867C26.7271 15.864 26.7628 15.8522 26.7943 15.8324C26.8399 15.807 26.8768 15.7686 26.9002 15.722C26.9233 15.6749 26.9324 15.6221 26.9265 15.57L27.3677 15.3152C27.4088 15.4246 27.4245 15.5419 27.4135 15.6583C27.4023 15.7708 27.3624 15.8786 27.2978 15.9714C27.2274 16.0731 27.1349 16.1576 27.0274 16.2187C26.9068 16.2923 26.7689 16.3326 26.6277 16.3354C26.4972 16.3361 26.3694 16.2987 26.2599 16.2276C26.1395 16.1492 26.0404 16.0422 25.9715 15.9161V15.9161ZM28.4736 15.3837C28.353 15.4548 28.216 15.4931 28.0761 15.4946C27.939 15.4967 27.804 15.4619 27.685 15.3939C27.5621 15.3229 27.4608 15.2201 27.3917 15.0962C27.3175 14.9729 27.2785 14.8317 27.2791 14.6878C27.2798 14.5511 27.3175 14.4171 27.3882 14.3001C27.461 14.1813 27.5624 14.0826 27.6831 14.0129C27.8037 13.9433 27.9399 13.9048 28.0792 13.9011C28.2155 13.899 28.3498 13.934 28.4678 14.0024C28.5914 14.0737 28.6934 14.1772 28.7629 14.3018C28.8361 14.4243 28.8747 14.5643 28.8746 14.707C28.8745 14.8439 28.8374 14.9783 28.767 15.0957C28.6964 15.2153 28.5957 15.3143 28.4749 15.3829L28.4736 15.3837ZM28.2484 14.9938C28.2857 14.9751 28.3181 14.9482 28.3434 14.9151C28.3687 14.882 28.3862 14.8436 28.3945 14.8027C28.4071 14.7138 28.3872 14.6232 28.3385 14.5477C28.2973 14.467 28.2284 14.4038 28.1444 14.3697C28.0636 14.3481 27.9775 14.3595 27.905 14.4014C27.8326 14.4432 27.7797 14.5121 27.7579 14.5929C27.7454 14.6826 27.7658 14.7739 27.8151 14.8499C27.8561 14.9299 27.9246 14.9924 28.0079 15.0259C28.0481 15.0391 28.0907 15.0429 28.1326 15.0371C28.1744 15.0312 28.2144 15.0159 28.2494 14.9923L28.2484 14.9938ZM28.9406 13.3172L29.375 14.0697C29.4021 14.1233 29.4459 14.1665 29.4999 14.1928C29.5266 14.2025 29.5553 14.2056 29.5835 14.2019C29.6116 14.1981 29.6385 14.1877 29.6618 14.1714C29.6887 14.1592 29.7123 14.1407 29.7306 14.1176C29.749 14.0945 29.7616 14.0673 29.7674 14.0383C29.7738 13.9782 29.7592 13.9176 29.726 13.8671L29.2915 13.1145L29.7081 12.874L30.1426 13.6265C30.2091 13.7384 30.2443 13.8661 30.2448 13.9962C30.2459 14.1138 30.2116 14.2289 30.1464 14.3267C30.0775 14.4283 29.9859 14.5124 29.8787 14.5724C29.7765 14.6332 29.6611 14.6685 29.5423 14.6754C29.4293 14.6811 29.3172 14.6523 29.221 14.5928C29.1111 14.5218 29.0211 14.4241 28.9594 14.3087L28.5253 13.5569L28.9406 13.3172ZM31.9376 13.3655L31.5189 13.6073L30.6919 13.1908L31.079 13.8612L30.6603 14.103L29.8901 12.7689L30.3088 12.5272L31.1471 12.9554L30.7521 12.2713L31.1708 12.0295L31.9376 13.3655ZM32.4035 11.3178L32.5947 11.6489L32.2403 11.8535L32.8194 12.8564L32.4007 13.0981L31.8217 12.0952L31.4714 12.2975L31.2802 11.9663L32.4035 11.3178ZM33.0288 10.8382L33.4961 11.7597L33.1376 11.9667L32.5725 11.1017L33.0288 10.8382ZM33.6304 12.4064C33.5687 12.4463 33.4942 12.4617 33.4217 12.4494C33.3898 12.444 33.3594 12.4316 33.3329 12.413C33.3063 12.3943 33.2843 12.37 33.2684 12.3418C33.2516 12.3135 33.2413 12.2819 33.2381 12.2491C33.235 12.2164 33.2392 12.1834 33.2503 12.1525C33.2752 12.083 33.3255 12.0256 33.3911 11.9918C33.4526 11.9526 33.5267 11.9382 33.5985 11.9514C33.6309 11.9572 33.6615 11.9701 33.6883 11.9892C33.7151 12.0083 33.7373 12.0331 33.7534 12.0617C33.7699 12.0896 33.78 12.1209 33.7828 12.1532C33.7857 12.1855 33.7813 12.218 33.7699 12.2483C33.7448 12.3166 33.6951 12.373 33.6304 12.4064Z" fill="white"/>
</g>
</svg>
