<svg width="41" height="40" viewBox="0 0 41 40" fill="none" xmlns="http://www.w3.org/2000/svg">
<path d="M19.6268 0.000541325C9.94469 0.0086983 1.04385 8.07653 0.130388 17.7273C-0.849812 25.947 3.77607 34.5384 11.3262 38.0298C18.3378 41.4567 27.3374 40.3722 33.1527 35.0955C39.0695 29.9755 41.6548 21.2485 39.0558 13.8031C36.5842 6.20717 29.29 0.391907 21.2564 0.0399435C20.7139 0.00448371 20.1702 -0.00217431 19.6268 0.000541325ZM20.0234 6.26792C27.1537 6.06051 33.6907 12.3494 33.7744 19.4826C34.0828 26.0083 29.1802 32.4163 22.677 33.5104C16.3841 34.771 9.40467 31.1341 7.20199 25.0247C4.83069 18.9832 7.24995 11.3432 13.0218 8.17225C15.1322 6.93312 17.5755 6.26487 20.0234 6.26792ZM27.7003 11.4837C26.1843 14.5566 24.6684 17.6296 23.1525 20.7026C21.2676 18.2509 19.3827 15.7992 17.4979 13.3475C15.786 18.4105 14.0741 23.4734 12.3622 28.5364L18.1199 21.1356C20.0997 23.401 22.0794 25.6663 24.0592 27.9317C25.2729 22.449 26.4866 16.9663 27.7003 11.4837Z" fill="#BB0A1E"/>
</svg>
