<svg width="40" height="40" viewBox="0 0 40 40" fill="none" xmlns="http://www.w3.org/2000/svg">
<path d="M14.5605 31.8474H25.5042V32.9666H14.5605V31.8474Z" fill="#F56132"/>
<path d="M25.5042 33.1238H14.5605C14.5188 33.1238 14.4788 33.1072 14.4494 33.0777C14.4199 33.0483 14.4033 33.0083 14.4033 32.9666V31.8474C14.4033 31.8057 14.4199 31.7657 14.4494 31.7362C14.4788 31.7067 14.5188 31.6902 14.5605 31.6902H25.5042C25.5459 31.6902 25.5859 31.7067 25.6153 31.7362C25.6448 31.7657 25.6614 31.8057 25.6614 31.8474V32.9666C25.6614 33.0083 25.6448 33.0483 25.6153 33.0777C25.5859 33.1072 25.5459 33.1238 25.5042 33.1238ZM14.7177 32.8094H25.347V32.0046H14.7177V32.8094Z" fill="#093F68"/>
<path d="M34.8428 33.1238H5.15719C5.1155 33.1238 5.07552 33.1072 5.04604 33.0777C5.01656 33.0483 5 33.0083 5 32.9666C5 32.9249 5.01656 32.8849 5.04604 32.8554C5.07552 32.8259 5.1155 32.8094 5.15719 32.8094H34.8428C34.8845 32.8094 34.9245 32.8259 34.954 32.8554C34.9834 32.8849 35 32.9249 35 32.9666C35 33.0083 34.9834 33.0483 34.954 33.0777C34.9245 33.1072 34.8845 33.1238 34.8428 33.1238Z" fill="#093F68"/>
<path d="M32.9831 31.2799H29.2231C29.1814 31.2799 29.1414 31.2633 29.112 31.2339C29.0825 31.2044 29.0659 31.1644 29.0659 31.1227C29.0659 31.081 29.0825 31.041 29.112 31.0116C29.1414 30.9821 29.1814 30.9655 29.2231 30.9655H32.9831C33.0248 30.9655 33.0648 30.9821 33.0943 31.0116C33.1238 31.041 33.1403 31.081 33.1403 31.1227C33.1403 31.1644 33.1238 31.2044 33.0943 31.2339C33.0648 31.2633 33.0248 31.2799 32.9831 31.2799Z" fill="#093F68"/>
<path d="M31.6566 30.1733H27.164C27.1223 30.1733 27.0824 30.1567 27.0529 30.1273C27.0234 30.0978 27.0068 30.0578 27.0068 30.0161C27.0068 29.9744 27.0234 29.9344 27.0529 29.905C27.0824 29.8755 27.1223 29.8589 27.164 29.8589H31.6566C31.6983 29.8589 31.7382 29.8755 31.7677 29.905C31.7972 29.9344 31.8138 29.9744 31.8138 30.0161C31.8138 30.0578 31.7972 30.0978 31.7677 30.1273C31.7382 30.1567 31.6983 30.1733 31.6566 30.1733Z" fill="#093F68"/>
<path d="M32.4096 32.0046H27.6294C27.5877 32.0046 27.5477 31.988 27.5182 31.9585C27.4887 31.929 27.4722 31.8891 27.4722 31.8474C27.4722 31.8057 27.4887 31.7657 27.5182 31.7362C27.5477 31.7067 27.5877 31.6902 27.6294 31.6902H32.4096C32.4512 31.6902 32.4912 31.7067 32.5207 31.7362C32.5502 31.7657 32.5667 31.8057 32.5667 31.8474C32.5667 31.8891 32.5502 31.929 32.5207 31.9585C32.4912 31.988 32.4512 32.0046 32.4096 32.0046Z" fill="#093F68"/>
<circle cx="20" cy="20" r="20" fill="#79C143"/>
<path d="M32.5399 9.16622C32.3935 9.06958 32.2294 9.00275 32.0572 8.96956C31.8849 8.93638 31.7078 8.93748 31.5359 8.97281C31.3641 9.00814 31.2009 9.07701 31.0557 9.17547C30.9105 9.27393 30.7862 9.40005 30.6897 9.54662L22.629 19.9904H17.3709L9.31171 9.54662C9.2152 9.40006 9.09078 9.27394 8.94553 9.17546C8.80028 9.07699 8.63706 9.00808 8.46519 8.97269C8.29331 8.93729 8.11615 8.93609 7.94381 8.96917C7.77148 9.00224 7.60734 9.06893 7.46078 9.16543C7.31421 9.26194 7.18809 9.38636 7.08962 9.53161C6.99114 9.67686 6.92224 9.84008 6.88684 10.012C6.85145 10.1838 6.85025 10.361 6.88332 10.5333C6.91639 10.7057 6.98308 10.8698 7.07959 11.0164L15.0602 23.1374C15.1797 23.3213 15.5176 30.6197 15.5176 30.6197H24.4775C24.4775 30.6197 24.8139 23.3213 24.935 23.1374L32.9156 11.0164C33.1108 10.7211 33.1809 10.3605 33.1104 10.0136C33.04 9.6667 32.8348 9.36195 32.5399 9.16622V9.16622Z" fill="#68E1FD"/>
<path d="M24.4841 30.7769H15.5242C15.4825 30.7769 15.4426 30.7603 15.4131 30.7309C15.3836 30.7014 15.367 30.6614 15.367 30.6197C15.2381 27.8201 15.0149 23.5665 14.9253 23.2018L6.95414 11.0981C6.73631 10.7673 6.65882 10.3635 6.73871 9.97555C6.81859 9.58761 7.04932 9.24729 7.38013 9.02946C7.71094 8.81163 8.11473 8.73414 8.50268 8.81402C8.89062 8.89391 9.23094 9.12464 9.44877 9.45545L17.4545 19.8301H22.5585L30.5753 9.44759C30.7939 9.1226 31.1314 8.89649 31.5151 8.81799C31.8988 8.73948 32.298 8.81486 32.6267 9.02789C32.7905 9.13573 32.9314 9.27479 33.0415 9.43712C33.1516 9.59945 33.2286 9.78188 33.2681 9.97397C33.3077 10.1661 33.309 10.3641 33.272 10.5567C33.2351 10.7493 33.1605 10.9327 33.0526 11.0965L25.083 23.2003C24.9934 23.565 24.7687 27.8186 24.6398 30.6181C24.64 30.6388 24.6361 30.6593 24.6284 30.6784C24.6207 30.6976 24.6093 30.715 24.5948 30.7298C24.5804 30.7445 24.5632 30.7562 24.5442 30.7643C24.5252 30.7724 24.5048 30.7767 24.4841 30.7769ZM15.6673 30.4625H24.3332C24.4904 27.1442 24.6932 23.2317 24.8048 23.0509L32.7901 10.9299C32.9613 10.6685 33.022 10.3499 32.959 10.0439C32.896 9.73782 32.7143 9.46918 32.4537 9.29668C32.3244 9.21151 32.1796 9.15265 32.0275 9.12346C31.8755 9.09427 31.7191 9.09532 31.5675 9.12656C31.4158 9.1578 31.2718 9.21861 31.1436 9.30552C31.0154 9.39243 30.9057 9.50373 30.8205 9.63307L22.7535 20.0879C22.7387 20.1066 22.7198 20.1217 22.6983 20.1321C22.6767 20.1424 22.6532 20.1477 22.6293 20.1476H17.3712C17.3473 20.1477 17.3238 20.1424 17.3022 20.1321C17.2807 20.1217 17.2618 20.1066 17.247 20.0879L9.18783 9.64251C9.10601 9.50682 8.99771 9.38899 8.86938 9.29604C8.74105 9.2031 8.59533 9.13693 8.44089 9.1015C8.28645 9.06607 8.12646 9.06209 7.97045 9.0898C7.81444 9.11751 7.66561 9.17634 7.53282 9.26279C7.40003 9.34924 7.286 9.46154 7.19754 9.59299C7.10907 9.72444 7.04797 9.87236 7.01788 10.0279C6.98779 10.1835 6.98932 10.3435 7.02239 10.4985C7.05546 10.6535 7.11939 10.8002 7.21036 10.9299L15.191 23.0509C15.3089 23.2301 15.5132 27.1442 15.6673 30.4625Z" fill="#093F68"/>
<path d="M19.1475 21.1505H20.853V28.4536H19.1475V21.1505Z" fill="#093F68"/>
<path d="M20.853 28.6124H19.1474C19.1057 28.6124 19.0658 28.5958 19.0363 28.5663C19.0068 28.5368 18.9902 28.4969 18.9902 28.4552V21.1505C18.9902 21.1088 19.0068 21.0688 19.0363 21.0393C19.0658 21.0098 19.1057 20.9933 19.1474 20.9933H20.853C20.8946 20.9933 20.9346 21.0098 20.9641 21.0393C20.9936 21.0688 21.0101 21.1088 21.0101 21.1505V28.4552C21.0101 28.4969 20.9936 28.5368 20.9641 28.5663C20.9346 28.5958 20.8946 28.6124 20.853 28.6124ZM19.3046 28.298H20.6958V21.3077H19.3046V28.298Z" fill="#093F68"/>
<path d="M31.6316 7.92756V6.39337C31.6316 6.22203 31.5635 6.0577 31.4424 5.93654C31.3212 5.81538 31.1569 5.74731 30.9855 5.74731C30.8142 5.74731 30.6499 5.81538 30.5287 5.93654C30.4075 6.0577 30.3395 6.22203 30.3395 6.39337V8.32997C30.1933 8.56733 30.1084 8.94459 30.1084 9.54349C30.1084 11.1673 30.8661 11.4471 31.6426 11.4471C32.4191 11.4471 33.3811 10.8435 33.4754 10.3845C33.6594 9.54978 32.3547 7.99358 31.6316 7.92756V7.92756Z" fill="#FFC9B0"/>
<path d="M31.6489 11.6043C30.9227 11.6043 29.9575 11.3921 29.9575 9.54348C29.9575 8.98545 30.0314 8.57676 30.1823 8.29696V6.39337C30.1823 6.18033 30.2669 5.97602 30.4176 5.82538C30.5682 5.67475 30.7725 5.59012 30.9855 5.59012C31.1986 5.59012 31.4029 5.67475 31.5535 5.82538C31.7042 5.97602 31.7888 6.18033 31.7888 6.39337V7.79552C32.2604 7.92284 32.7665 8.42428 33.0856 8.86127C33.29 9.13793 33.7537 9.84058 33.6358 10.4159C33.5179 10.9912 32.4631 11.6043 31.6489 11.6043V11.6043ZM30.4967 8.30324C30.5067 8.34259 30.501 8.38428 30.481 8.41956C30.3395 8.64906 30.2719 9.01847 30.2719 9.55134C30.2719 11.0902 30.9683 11.2977 31.6489 11.2977C32.4003 11.2977 33.257 10.7051 33.3277 10.3546C33.3906 10.0402 33.2004 9.54663 32.8325 9.0499C32.4396 8.5186 31.9287 8.10675 31.6175 8.08475C31.5783 8.08121 31.5418 8.06309 31.5153 8.03399C31.4889 8.00489 31.4743 7.96691 31.4744 7.92756V6.39337C31.4744 6.26371 31.4229 6.13937 31.3312 6.04769C31.2395 5.95601 31.1152 5.9045 30.9855 5.9045C30.8559 5.9045 30.7315 5.95601 30.6399 6.04769C30.5482 6.13937 30.4967 6.26371 30.4967 6.39337V8.30324Z" fill="#093F68"/>
<path d="M33.153 7.58014H31.0797C30.8731 7.58014 30.7056 7.74764 30.7056 7.95425V7.95583C30.7056 8.16245 30.8731 8.32994 31.0797 8.32994H33.153C33.3597 8.32994 33.5272 8.16245 33.5272 7.95583V7.95425C33.5272 7.74764 33.3597 7.58014 33.153 7.58014Z" fill="#FFC9B0"/>
<path d="M33.1531 8.48715H31.0813C31.009 8.49108 30.9367 8.48024 30.8687 8.45527C30.8007 8.43031 30.7386 8.39175 30.686 8.34196C30.6334 8.29216 30.5915 8.23217 30.5629 8.16565C30.5343 8.09913 30.5195 8.02747 30.5195 7.95506C30.5195 7.88264 30.5343 7.81099 30.5629 7.74447C30.5915 7.67795 30.6334 7.61796 30.686 7.56816C30.7386 7.51837 30.8007 7.47981 30.8687 7.45485C30.9367 7.42988 31.009 7.41903 31.0813 7.42297H33.1531C33.2254 7.41903 33.2978 7.42988 33.3658 7.45485C33.4337 7.47981 33.4959 7.51837 33.5485 7.56816C33.6011 7.61796 33.6429 7.67795 33.6716 7.74447C33.7002 7.81099 33.7149 7.88264 33.7149 7.95506C33.7149 8.02747 33.7002 8.09913 33.6716 8.16565C33.6429 8.23217 33.6011 8.29216 33.5485 8.34196C33.4959 8.39175 33.4337 8.43031 33.3658 8.45527C33.2978 8.48024 33.2254 8.49108 33.1531 8.48715V8.48715ZM31.0813 7.73735C31.0512 7.73479 31.0208 7.73851 30.9922 7.74829C30.9636 7.75806 30.9373 7.77368 30.915 7.79415C30.8927 7.81461 30.875 7.83948 30.8628 7.86718C30.8506 7.89488 30.8443 7.92481 30.8443 7.95506C30.8443 7.98531 30.8506 8.01524 30.8628 8.04294C30.875 8.07064 30.8927 8.09551 30.915 8.11597C30.9373 8.13644 30.9636 8.15205 30.9922 8.16183C31.0208 8.17161 31.0512 8.17533 31.0813 8.17277H33.1531C33.1833 8.17533 33.2136 8.17161 33.2423 8.16183C33.2709 8.15205 33.2972 8.13644 33.3195 8.11597C33.3417 8.09551 33.3595 8.07064 33.3717 8.04294C33.3839 8.01524 33.3901 7.98531 33.3901 7.95506C33.3901 7.92481 33.3839 7.89488 33.3717 7.86718C33.3595 7.83948 33.3417 7.81461 33.3195 7.79415C33.2972 7.77368 33.2709 7.75806 33.2423 7.74829C33.2136 7.73851 33.1833 7.73479 33.1531 7.73735H31.0813Z" fill="#093F68"/>
<path d="M33.153 8.32996H31.0797C30.8731 8.32996 30.7056 8.49745 30.7056 8.70407V8.70564C30.7056 8.91226 30.8731 9.07976 31.0797 9.07976H33.153C33.3597 9.07976 33.5272 8.91226 33.5272 8.70564V8.70407C33.5272 8.49745 33.3597 8.32996 33.153 8.32996Z" fill="#FFC9B0"/>
<path d="M33.1529 9.23537H31.0811C30.9402 9.23537 30.8051 9.1794 30.7054 9.07976C30.6058 8.98012 30.5498 8.84498 30.5498 8.70407C30.5498 8.56316 30.6058 8.42802 30.7054 8.32838C30.8051 8.22874 30.9402 8.17276 31.0811 8.17276H33.1529C33.2938 8.17276 33.4289 8.22874 33.5286 8.32838C33.6282 8.42802 33.6842 8.56316 33.6842 8.70407C33.6842 8.84498 33.6282 8.98012 33.5286 9.07976C33.4289 9.1794 33.2938 9.23537 33.1529 9.23537V9.23537ZM31.0811 8.48714C31.0236 8.48714 30.9684 8.51 30.9277 8.55068C30.887 8.59136 30.8642 8.64654 30.8642 8.70407C30.8642 8.7616 30.887 8.81678 30.9277 8.85746C30.9684 8.89814 31.0236 8.92099 31.0811 8.92099H33.1529C33.2104 8.92099 33.2656 8.89814 33.3063 8.85746C33.347 8.81678 33.3698 8.7616 33.3698 8.70407C33.3698 8.64654 33.347 8.59136 33.3063 8.55068C33.2656 8.51 33.2104 8.48714 33.1529 8.48714H31.0811Z" fill="#093F68"/>
<path d="M33.153 9.07819H31.0797C30.8731 9.07819 30.7056 9.24568 30.7056 9.4523V9.45387C30.7056 9.66049 30.8731 9.82799 31.0797 9.82799H33.153C33.3597 9.82799 33.5272 9.66049 33.5272 9.45387V9.4523C33.5272 9.24568 33.3597 9.07819 33.153 9.07819Z" fill="#FFC9B0"/>
<path d="M33.1531 9.9852H31.0813C31.009 9.98913 30.9367 9.97828 30.8687 9.95332C30.8007 9.92836 30.7386 9.8898 30.686 9.84C30.6334 9.79021 30.5915 9.73022 30.5629 9.6637C30.5343 9.59718 30.5195 9.52552 30.5195 9.45311C30.5195 9.38069 30.5343 9.30904 30.5629 9.24252C30.5915 9.176 30.6334 9.11601 30.686 9.06621C30.7386 9.01641 30.8007 8.97786 30.8687 8.95289C30.9367 8.92793 31.009 8.91708 31.0813 8.92101H33.1531C33.2254 8.91708 33.2978 8.92793 33.3658 8.95289C33.4337 8.97786 33.4959 9.01641 33.5485 9.06621C33.6011 9.11601 33.6429 9.176 33.6716 9.24252C33.7002 9.30904 33.7149 9.38069 33.7149 9.45311C33.7149 9.52552 33.7002 9.59718 33.6716 9.6637C33.6429 9.73022 33.6011 9.79021 33.5485 9.84C33.4959 9.8898 33.4337 9.92836 33.3658 9.95332C33.2978 9.97828 33.2254 9.98913 33.1531 9.9852V9.9852ZM31.0813 9.2354C31.0512 9.23283 31.0208 9.23656 30.9922 9.24633C30.9636 9.25611 30.9373 9.27173 30.915 9.29219C30.8927 9.31266 30.875 9.33753 30.8628 9.36523C30.8506 9.39293 30.8443 9.42285 30.8443 9.45311C30.8443 9.48336 30.8506 9.51328 30.8628 9.54098C30.875 9.56868 30.8927 9.59355 30.915 9.61402C30.9373 9.63449 30.9636 9.6501 30.9922 9.65988C31.0208 9.66966 31.0512 9.67338 31.0813 9.67082H33.1531C33.1833 9.67338 33.2136 9.66966 33.2423 9.65988C33.2709 9.6501 33.2972 9.63449 33.3195 9.61402C33.3417 9.59355 33.3595 9.56868 33.3717 9.54098C33.3839 9.51328 33.3901 9.48336 33.3901 9.45311C33.3901 9.42285 33.3839 9.39293 33.3717 9.36523C33.3595 9.33753 33.3417 9.31266 33.3195 9.29219C33.2972 9.27173 33.2709 9.25611 33.2423 9.24633C33.2136 9.23656 33.1833 9.23283 33.1531 9.2354H31.0813Z" fill="#093F68"/>
<path d="M33.2726 10.8922C33.2518 10.8921 33.2312 10.8879 33.2121 10.8798C33.1929 10.8717 33.1755 10.8599 33.161 10.845C33.1317 10.8156 33.1153 10.7757 33.1153 10.7342C33.1153 10.6927 33.1317 10.6528 33.161 10.6234C33.2802 10.5141 33.3546 10.3646 33.3701 10.2037C33.3701 10.1457 33.347 10.0902 33.3061 10.0492C33.2651 10.0082 33.2095 9.98518 33.1516 9.98518H31.0813C31.0512 9.98262 31.0208 9.98634 30.9922 9.99612C30.9636 10.0059 30.9373 10.0215 30.915 10.042C30.8927 10.0624 30.875 10.0873 30.8628 10.115C30.8506 10.1427 30.8443 10.1726 30.8443 10.2029C30.8443 10.2331 30.8506 10.2631 30.8628 10.2908C30.875 10.3185 30.8927 10.3433 30.915 10.3638C30.9373 10.3843 30.9636 10.3999 30.9922 10.4097C31.0208 10.4194 31.0512 10.4232 31.0813 10.4206H32.2901C32.3318 10.4206 32.3718 10.4372 32.4013 10.4666C32.4308 10.4961 32.4473 10.5361 32.4473 10.5778C32.4473 10.6195 32.4308 10.6595 32.4013 10.6889C32.3718 10.7184 32.3318 10.735 32.2901 10.735H31.0813C31.009 10.7389 30.9367 10.7281 30.8687 10.7031C30.8007 10.6781 30.7386 10.6396 30.686 10.5898C30.6334 10.54 30.5915 10.48 30.5629 10.4135C30.5343 10.347 30.5195 10.2753 30.5195 10.2029C30.5195 10.1305 30.5343 10.0588 30.5629 9.9923C30.5915 9.92578 30.6334 9.86579 30.686 9.816C30.7386 9.7662 30.8007 9.72764 30.8687 9.70268C30.9367 9.67772 31.009 9.66687 31.0813 9.6708H33.1531C33.2945 9.6708 33.43 9.72694 33.5299 9.82688C33.6299 9.92681 33.686 10.0624 33.686 10.2037C33.673 10.4491 33.5647 10.6798 33.3842 10.8466C33.3695 10.8612 33.3521 10.8727 33.3329 10.8805C33.3138 10.8883 33.2933 10.8923 33.2726 10.8922V10.8922Z" fill="#093F68"/>
<path d="M8.3684 7.92756V6.39337C8.3684 6.22203 8.43646 6.0577 8.55762 5.93654C8.67878 5.81538 8.84311 5.74731 9.01445 5.74731C9.1858 5.74731 9.35012 5.81538 9.47128 5.93654C9.59244 6.0577 9.66051 6.22203 9.66051 6.39337V8.32997C9.8067 8.56733 9.89315 8.94459 9.89315 9.54349C9.89315 11.1673 9.13392 11.4471 8.35896 11.4471C7.58401 11.4471 6.622 10.8435 6.51982 10.3845C6.34849 9.54978 7.64532 7.99358 8.3684 7.92756Z" fill="#FFC9B0"/>
<path d="M8.35132 11.6043C7.53707 11.6043 6.4776 10.9755 6.36442 10.4159C6.25124 9.8563 6.70867 9.13793 6.91459 8.86127C7.22897 8.43057 7.74613 7.91812 8.20985 7.79552V6.39337C8.20985 6.18033 8.29448 5.97602 8.44511 5.82538C8.59575 5.67475 8.80006 5.59012 9.0131 5.59012C9.22613 5.59012 9.43044 5.67475 9.58108 5.82538C9.73172 5.97602 9.81635 6.18033 9.81635 6.39337V8.29696C9.97354 8.57676 10.0427 8.98545 10.0427 9.54348C10.0443 11.3858 9.07912 11.6043 8.35132 11.6043V11.6043ZM9.0131 5.9045C8.9489 5.9045 8.88533 5.91715 8.82601 5.94171C8.7667 5.96628 8.71281 6.00229 8.66741 6.04769C8.62202 6.09308 8.58601 6.14697 8.56144 6.20629C8.53687 6.2656 8.52423 6.32917 8.52423 6.39337V7.92756C8.52439 7.96691 8.50978 8.00489 8.4833 8.03399C8.45681 8.06309 8.42038 8.08121 8.38119 8.08475C8.0668 8.11304 7.56065 8.5186 7.1661 9.0499C6.79827 9.54663 6.60807 10.0465 6.67251 10.3546C6.74325 10.6988 7.59837 11.2977 8.35132 11.2977C9.03196 11.2977 9.72832 11.0902 9.72832 9.55134C9.72832 9.01847 9.65915 8.64906 9.51925 8.41956C9.50778 8.40096 9.50032 8.38016 9.49735 8.35851C9.49437 8.33686 9.49594 8.31482 9.50196 8.29381V6.40751C9.50385 6.34227 9.49265 6.2773 9.46903 6.21645C9.44541 6.1556 9.40984 6.1001 9.36442 6.05321C9.319 6.00633 9.26466 5.96902 9.20459 5.94348C9.14452 5.91794 9.07994 5.90468 9.01467 5.9045H9.0131Z" fill="#093F68"/>
<path d="M6.84696 8.32837H8.92032C9.12694 8.32837 9.29443 8.16087 9.29443 7.95425V7.95268C9.29443 7.74606 9.12694 7.57857 8.92032 7.57857H6.84696C6.64034 7.57857 6.47285 7.74606 6.47285 7.95268V7.95425C6.47285 8.16087 6.64034 8.32837 6.84696 8.32837Z" fill="#FFC9B0"/>
<path d="M8.92056 8.48716H6.84721C6.71109 8.47976 6.58298 8.42047 6.48924 8.3215C6.39551 8.22252 6.34326 8.09139 6.34326 7.95507C6.34326 7.81875 6.39551 7.68761 6.48924 7.58864C6.58298 7.48966 6.71109 7.43037 6.84721 7.42297H8.92056C9.05668 7.43037 9.18479 7.48966 9.27853 7.58864C9.37227 7.68761 9.42451 7.81875 9.42451 7.95507C9.42451 8.09139 9.37227 8.22252 9.27853 8.3215C9.18479 8.42047 9.05668 8.47976 8.92056 8.48716ZM6.84721 7.73736C6.79266 7.742 6.74185 7.76694 6.70481 7.80726C6.66778 7.84757 6.64723 7.90032 6.64723 7.95507C6.64723 8.00981 6.66778 8.06256 6.70481 8.10288C6.74185 8.14319 6.79266 8.16814 6.84721 8.17278H8.92056C8.97511 8.16814 9.02593 8.14319 9.06296 8.10288C9.09999 8.06256 9.12055 8.00981 9.12055 7.95507C9.12055 7.90032 9.09999 7.84757 9.06296 7.80726C9.02593 7.76694 8.97511 7.742 8.92056 7.73736H6.84721Z" fill="#093F68"/>
<path d="M6.84696 9.07819H8.92032C9.12694 9.07819 9.29443 8.91069 9.29443 8.70407V8.7025C9.29443 8.49588 9.12694 8.32838 8.92032 8.32838H6.84696C6.64034 8.32838 6.47285 8.49588 6.47285 8.7025V8.70407C6.47285 8.91069 6.64034 9.07819 6.84696 9.07819Z" fill="#FFC9B0"/>
<path d="M8.92058 9.23537H6.84722C6.70631 9.23537 6.57117 9.1794 6.47153 9.07976C6.37189 8.98012 6.31592 8.84498 6.31592 8.70407C6.31592 8.56316 6.37189 8.42802 6.47153 8.32838C6.57117 8.22874 6.70631 8.17276 6.84722 8.17276H8.92058C9.06149 8.17276 9.19663 8.22874 9.29627 8.32838C9.39591 8.42802 9.45189 8.56316 9.45189 8.70407C9.45189 8.84498 9.39591 8.98012 9.29627 9.07976C9.19663 9.1794 9.06149 9.23537 8.92058 9.23537V9.23537ZM6.84722 8.48714C6.78969 8.48714 6.73452 8.51 6.69384 8.55068C6.65316 8.59136 6.6303 8.64654 6.6303 8.70407C6.6303 8.7616 6.65316 8.81678 6.69384 8.85746C6.73452 8.89814 6.78969 8.92099 6.84722 8.92099H8.92058C8.97811 8.92099 9.03329 8.89814 9.07397 8.85746C9.11465 8.81678 9.1375 8.7616 9.1375 8.70407C9.1375 8.64654 9.11465 8.59136 9.07397 8.55068C9.03329 8.51 8.97811 8.48714 8.92058 8.48714H6.84722Z" fill="#093F68"/>
<path d="M6.84696 9.82956H8.92032C9.12694 9.82956 9.29443 9.66206 9.29443 9.45544V9.45387C9.29443 9.24725 9.12694 9.07976 8.92032 9.07976H6.84696C6.64034 9.07976 6.47285 9.24725 6.47285 9.45387V9.45544C6.47285 9.66206 6.64034 9.82956 6.84696 9.82956Z" fill="#FFC9B0"/>
<path d="M8.92056 9.98518H6.84721C6.71109 9.97777 6.58298 9.91849 6.48924 9.81951C6.39551 9.72054 6.34326 9.5894 6.34326 9.45308C6.34326 9.31676 6.39551 9.18563 6.48924 9.08665C6.58298 8.98768 6.71109 8.92839 6.84721 8.92099H8.92056C9.05668 8.92839 9.18479 8.98768 9.27853 9.08665C9.37227 9.18563 9.42451 9.31676 9.42451 9.45308C9.42451 9.5894 9.37227 9.72054 9.27853 9.81951C9.18479 9.91849 9.05668 9.97777 8.92056 9.98518V9.98518ZM6.84721 9.23537C6.79266 9.24001 6.74185 9.26496 6.70481 9.30527C6.66778 9.34559 6.64723 9.39834 6.64723 9.45308C6.64723 9.50783 6.66778 9.56058 6.70481 9.60089C6.74185 9.64121 6.79266 9.66615 6.84721 9.67079H8.92056C8.97511 9.66615 9.02593 9.64121 9.06296 9.60089C9.09999 9.56058 9.12055 9.50783 9.12055 9.45308C9.12055 9.39834 9.09999 9.34559 9.06296 9.30527C9.02593 9.26496 8.97511 9.24001 8.92056 9.23537H6.84721Z" fill="#093F68"/>
<path d="M6.72727 10.8922C6.68604 10.892 6.64652 10.8756 6.61724 10.8466C6.43671 10.6798 6.32842 10.4491 6.31543 10.2037C6.31523 10.1338 6.32881 10.0645 6.35542 9.99988C6.38203 9.93524 6.42113 9.87648 6.47049 9.82698C6.51985 9.77748 6.57849 9.7382 6.64305 9.7114C6.70762 9.6846 6.77683 9.67081 6.84674 9.67081H8.92009C9.05621 9.67821 9.18432 9.7375 9.27806 9.83647C9.3718 9.93544 9.42404 10.0666 9.42404 10.2029C9.42404 10.3392 9.3718 10.4704 9.27806 10.5693C9.18432 10.6683 9.05621 10.7276 8.92009 10.735H7.71129C7.6696 10.735 7.62962 10.7184 7.60014 10.689C7.57066 10.6595 7.5541 10.6195 7.5541 10.5778C7.5541 10.5361 7.57066 10.4961 7.60014 10.4667C7.62962 10.4372 7.6696 10.4206 7.71129 10.4206H8.92009C8.97464 10.416 9.02546 10.391 9.06249 10.3507C9.09952 10.3104 9.12008 10.2576 9.12008 10.2029C9.12008 10.1482 9.09952 10.0954 9.06249 10.0551C9.02546 10.0148 8.97464 9.98983 8.92009 9.98519H6.84674C6.81812 9.98519 6.78978 9.99085 6.76336 10.0019C6.73694 10.0129 6.71296 10.029 6.69279 10.0493C6.67263 10.0696 6.65668 10.0937 6.64587 10.1202C6.63506 10.1467 6.62961 10.1751 6.62982 10.2037C6.64522 10.3646 6.7197 10.5141 6.83888 10.6234C6.86816 10.6528 6.88459 10.6927 6.88459 10.7342C6.88459 10.7757 6.86816 10.8156 6.83888 10.845C6.82432 10.8599 6.80696 10.8717 6.7878 10.8798C6.76865 10.8879 6.74807 10.8921 6.72727 10.8922V10.8922Z" fill="#093F68"/>
<path d="M25.3894 31.8474H14.6108L13.0766 24.8335C13.0531 24.7264 13.0539 24.6154 13.079 24.5086C13.1041 24.4019 13.1529 24.3021 13.2217 24.2167C13.2905 24.1313 13.3776 24.0625 13.4765 24.0152C13.5755 23.968 13.6838 23.9436 13.7934 23.9438H26.2116C26.3211 23.9438 26.4292 23.9684 26.528 24.0158C26.6267 24.0631 26.7136 24.132 26.7822 24.2174C26.8509 24.3027 26.8995 24.4024 26.9245 24.509C26.9495 24.6156 26.9503 24.7265 26.9268 24.8335L25.3894 31.8474Z" fill="#F56132"/>
<path d="M25.3895 32.0046H14.6109C14.5743 32.0054 14.5386 31.9934 14.5099 31.9708C14.4812 31.9481 14.4614 31.9161 14.4537 31.8804L12.9195 24.8665C12.891 24.7364 12.8921 24.6017 12.9227 24.4721C12.9532 24.3425 13.0125 24.2214 13.0961 24.1178C13.1796 24.0142 13.2854 23.9306 13.4056 23.8733C13.5257 23.816 13.6572 23.7863 13.7903 23.7866H26.2085C26.3415 23.7866 26.4728 23.8164 26.5927 23.8738C26.7127 23.9312 26.8183 24.0148 26.9017 24.1184C26.9851 24.222 27.0442 24.343 27.0746 24.4725C27.1051 24.6019 27.1062 24.7366 27.0777 24.8665L25.5435 31.8804C25.536 31.9156 25.5166 31.9471 25.4885 31.9698C25.4605 31.9924 25.4255 32.0046 25.3895 32.0046V32.0046ZM14.7366 31.6902H25.2685L26.7759 24.8005C26.7945 24.7163 26.794 24.6291 26.7743 24.5452C26.7547 24.4612 26.7165 24.3828 26.6624 24.3157C26.6084 24.2485 26.54 24.1944 26.4622 24.1572C26.3845 24.12 26.2994 24.1008 26.2132 24.101H13.7951C13.7088 24.1005 13.6235 24.1196 13.5456 24.1566C13.4677 24.1937 13.3991 24.2479 13.3451 24.3151C13.291 24.3823 13.2528 24.4609 13.2332 24.5449C13.2137 24.6289 13.2134 24.7163 13.2323 24.8005L14.7366 31.6902Z" fill="#093F68"/>
<path d="M19.1455 20.9273H20.8746V21.9176C20.8746 22.1119 20.7974 22.2982 20.6601 22.4355C20.5227 22.5729 20.3364 22.6501 20.1421 22.6501H19.8812C19.6869 22.6501 19.5006 22.5729 19.3632 22.4355C19.2258 22.2982 19.1487 22.1119 19.1487 21.9176V20.9273H19.1455Z" fill="#FFC9B0"/>
<path d="M20.1409 22.8104H19.8799C19.6438 22.81 19.4175 22.7159 19.2507 22.5488C19.0839 22.3817 18.9902 22.1553 18.9902 21.9192V20.9273C18.9902 20.8856 19.0068 20.8456 19.0363 20.8161C19.0658 20.7866 19.1057 20.7701 19.1474 20.7701H20.8765C20.9182 20.7701 20.9582 20.7866 20.9877 20.8161C21.0172 20.8456 21.0337 20.8856 21.0337 20.9273V21.9176C21.0339 22.0349 21.011 22.1511 20.9662 22.2595C20.9214 22.3679 20.8556 22.4664 20.7727 22.5494C20.6897 22.6323 20.5912 22.6981 20.4828 22.7429C20.3744 22.7877 20.2582 22.8106 20.1409 22.8104V22.8104ZM19.3046 21.0813V21.9176C19.3046 22.0703 19.3652 22.2168 19.473 22.3249C19.5809 22.4331 19.7272 22.4941 19.8799 22.4945H20.1409C20.2935 22.4936 20.4396 22.4325 20.5473 22.3245C20.6551 22.2164 20.7158 22.0702 20.7162 21.9176V21.0845L19.3046 21.0813Z" fill="#093F68"/>
<path d="M14.336 16.4348C13.7072 16.0245 13.6459 15.031 13.5327 14.3441C13.1441 11.9942 13.3832 9.58321 14.226 7.35539C14.2843 8.05025 14.423 8.736 14.6394 9.39888C14.3769 8.5972 15.3342 7.1982 15.6831 6.54428C16.1547 5.653 16.6263 4.9818 17.4248 4.31373L18.412 6.57572C18.8786 5.82965 19.219 5.01177 19.4196 4.15497C19.3677 4.37661 22.0337 6.6213 22.1123 6.6103C22.2474 6.59301 22.4266 5.66715 22.4125 5.33705C23.5128 6.53642 24.7059 7.95743 24.5299 9.58122C24.9189 9.15752 25.1852 8.63583 25.3001 8.07218C26.0353 9.85261 26.2723 11.7996 25.9855 13.7044C25.888 14.3567 25.7575 15.7478 25.2372 16.2194C24.7531 16.6548 23.648 16.3389 23.0538 16.3577L17.7266 16.5244C16.8055 16.5527 15.4426 16.8623 14.5592 16.5417C14.481 16.5145 14.4061 16.4787 14.336 16.4348V16.4348Z" fill="#725858"/>
<path d="M15.5821 16.8466C15.2184 16.8559 14.8558 16.8027 14.51 16.6894C14.4204 16.6572 14.335 16.6144 14.2554 16.5621C13.6486 16.166 13.5245 15.3203 13.4239 14.6412C13.4097 14.5453 13.3971 14.4541 13.3814 14.3661C12.9859 11.9876 13.2284 9.54673 14.0841 7.29249C14.0968 7.2593 14.1204 7.23139 14.151 7.21333C14.1816 7.19527 14.2174 7.18812 14.2526 7.19304C14.2878 7.19797 14.3203 7.21468 14.3448 7.24045C14.3693 7.26622 14.3843 7.29953 14.3874 7.33494C14.4162 7.70887 14.4687 8.08059 14.5446 8.44785C14.7485 7.88583 15.012 7.34725 15.3306 6.84135C15.4139 6.69674 15.4878 6.56627 15.5475 6.45781C15.9773 5.58449 16.5831 4.80954 17.3269 4.18167C17.3467 4.16627 17.3698 4.15581 17.3944 4.15116C17.419 4.14652 17.4444 4.14781 17.4684 4.15495C17.4919 4.16065 17.5138 4.17171 17.5323 4.18725C17.5509 4.20279 17.5656 4.2224 17.5753 4.24455L18.4446 6.23302C18.8216 5.57325 19.1007 4.8621 19.2729 4.12194C19.2776 4.10181 19.2861 4.08279 19.2981 4.06596C19.3101 4.04914 19.3253 4.03484 19.3428 4.02389C19.3603 4.01294 19.3799 4.00556 19.4002 4.00215C19.4206 3.99874 19.4415 3.99939 19.4616 4.00405C19.494 4.01158 19.5231 4.02917 19.5449 4.05431C19.5666 4.07944 19.5798 4.11083 19.5826 4.14395C19.7398 4.43318 21.5695 6.03025 22.0788 6.40122C22.1866 6.0588 22.2484 5.70359 22.2627 5.34489C22.2619 5.313 22.2707 5.28161 22.2881 5.25488C22.3055 5.22815 22.3307 5.20735 22.3602 5.19524C22.3897 5.18312 22.4222 5.18028 22.4534 5.18707C22.4845 5.19387 22.5129 5.20999 22.5347 5.23329C23.5627 6.3462 24.6395 7.64146 24.7086 9.11434C24.9251 8.78982 25.0762 8.42622 25.1535 8.04387C25.16 8.01086 25.177 7.98083 25.2019 7.95819C25.2268 7.93556 25.2583 7.92151 25.2918 7.91812C25.3248 7.91554 25.3577 7.92342 25.3859 7.94064C25.4141 7.95785 25.4362 7.98352 25.449 8.014C26.1986 9.81986 26.4394 11.7965 26.1454 13.7295C26.1344 13.8049 26.1218 13.8867 26.1092 13.9841C26.0055 14.7418 25.8498 15.8877 25.3468 16.342C24.9507 16.6988 24.2654 16.6265 23.6602 16.5621C23.4627 16.5357 23.2637 16.5221 23.0644 16.5212L17.7356 16.6878C17.4762 16.6878 17.1776 16.7271 16.8632 16.7601C16.4379 16.8104 16.0103 16.8392 15.5821 16.8466V16.8466ZM14.1564 8.04387C13.4982 10.0718 13.3365 12.2281 13.6848 14.3315C13.6989 14.4196 13.7131 14.5139 13.7272 14.6113C13.8184 15.2291 13.93 15.9962 14.4189 16.3153C14.4787 16.3536 14.5424 16.3852 14.6091 16.4096C15.2033 16.625 16.0631 16.5354 16.8223 16.4568C17.1367 16.4222 17.4511 16.3907 17.7168 16.3829L23.0455 16.2163C23.2595 16.2163 23.4732 16.2305 23.6853 16.2587C24.1978 16.3137 24.836 16.3813 25.1283 16.1172C25.5465 15.7431 25.6989 14.6208 25.7901 13.9527C25.8027 13.8584 25.8153 13.7704 25.8263 13.6949C26.0916 11.9709 25.9203 10.2079 25.328 8.56732C25.1786 8.98291 24.9477 9.36449 24.6489 9.68966C24.6264 9.71396 24.5968 9.73053 24.5644 9.73702C24.5319 9.74352 24.4982 9.73959 24.4681 9.72582C24.4385 9.71228 24.4139 9.68989 24.3975 9.66173C24.3812 9.63358 24.374 9.60104 24.377 9.56863C24.5341 8.13661 23.5517 6.83507 22.5378 5.70958C22.4875 6.12456 22.3806 6.74075 22.1354 6.77062C21.8902 6.80048 19.7948 4.8576 19.4883 4.53221C19.2775 5.28367 18.9599 6.00097 18.5452 6.66216C18.5301 6.68647 18.5086 6.7062 18.4831 6.71922C18.4576 6.73224 18.4291 6.73805 18.4005 6.73604C18.372 6.73381 18.3447 6.72385 18.3214 6.70723C18.2981 6.69062 18.2798 6.66796 18.2685 6.64172L17.3615 4.56994C16.7241 5.14853 16.201 5.84171 15.8195 6.61343C15.7597 6.72503 15.6827 6.85865 15.5962 7.00641C15.1985 7.69648 14.5918 8.74337 14.7961 9.34227C14.8073 9.38138 14.8029 9.42329 14.7838 9.45921C14.7647 9.49512 14.7324 9.52223 14.6937 9.53485C14.6551 9.54746 14.613 9.5446 14.5764 9.52687C14.5398 9.50913 14.5115 9.4779 14.4975 9.43973C14.3455 8.9827 14.2299 8.51438 14.1516 8.03915L14.1564 8.04387Z" fill="#093F68"/>
<path d="M15.5254 17.8872C16.4517 17.8872 17.2026 17.2404 17.2026 16.4426C17.2026 15.6448 16.4517 14.998 15.5254 14.998C14.5991 14.998 13.8481 15.6448 13.8481 16.4426C13.8481 17.2404 14.5991 17.8872 15.5254 17.8872Z" fill="#FFC9B0"/>
<path d="M15.5258 18.046C14.5135 18.046 13.6914 17.326 13.6914 16.4426C13.6914 15.5592 14.5135 14.844 15.5258 14.844C16.5381 14.844 17.3587 15.5623 17.3587 16.4457C17.3587 17.3292 16.5366 18.046 15.5258 18.046V18.046ZM15.5258 15.1552C14.688 15.1552 14.0058 15.7337 14.0058 16.4426C14.0058 17.1515 14.688 17.7316 15.5258 17.7316C16.3637 17.7316 17.0443 17.1531 17.0443 16.4426C17.0443 15.7321 16.3684 15.1583 15.5258 15.1583V15.1552Z" fill="#093F68"/>
<path d="M24.4917 17.8872C25.418 17.8872 26.1689 17.2404 26.1689 16.4426C26.1689 15.6448 25.418 14.998 24.4917 14.998C23.5654 14.998 22.8145 15.6448 22.8145 16.4426C22.8145 17.2404 23.5654 17.8872 24.4917 17.8872Z" fill="#FFC9B0"/>
<path d="M24.4917 18.046C23.4793 18.046 22.6572 17.326 22.6572 16.4426C22.6572 15.5592 23.4793 14.844 24.4917 14.844C25.504 14.844 26.3245 15.5623 26.3245 16.4457C26.3245 17.3292 25.5024 18.046 24.4917 18.046V18.046ZM24.4917 15.1552C23.6522 15.1552 22.9716 15.7337 22.9716 16.4426C22.9716 17.1515 23.6522 17.7316 24.4917 17.7316C25.3311 17.7316 26.0101 17.1531 26.0101 16.4426C26.0101 15.7321 25.3279 15.1583 24.4917 15.1583V15.1552Z" fill="#093F68"/>
<path d="M17.6667 15.828C17.9254 15.828 18.1351 15.6183 18.1351 15.3595C18.1351 15.1008 17.9254 14.8911 17.6667 14.8911C17.408 14.8911 17.1982 15.1008 17.1982 15.3595C17.1982 15.6183 17.408 15.828 17.6667 15.828Z" fill="#093F68"/>
<path d="M22.4972 15.828C22.7559 15.828 22.9657 15.6183 22.9657 15.3595C22.9657 15.1008 22.7559 14.8911 22.4972 14.8911C22.2385 14.8911 22.0288 15.1008 22.0288 15.3595C22.0288 15.6183 22.2385 15.828 22.4972 15.828Z" fill="#093F68"/>
<path d="M21.8524 17.62C21.8384 18.0999 21.6379 18.5554 21.2935 18.8899C20.9491 19.2244 20.4878 19.4115 20.0077 19.4115C19.5276 19.4115 19.0664 19.2244 18.722 18.8899C18.3776 18.5554 18.1771 18.0999 18.1631 17.62H21.8524Z" fill="white"/>
<path d="M20.0085 19.621C19.4778 19.6206 18.9689 19.4097 18.5934 19.0345C18.218 18.6594 18.0067 18.1507 18.0059 17.62C18.0059 17.5783 18.0224 17.5383 18.0519 17.5088C18.0814 17.4793 18.1214 17.4628 18.1631 17.4628H21.8523C21.894 17.4628 21.934 17.4793 21.9635 17.5088C21.993 17.5383 22.0095 17.5783 22.0095 17.62C22.0091 18.1505 21.7982 18.6593 21.423 19.0345C21.0478 19.4096 20.5391 19.6206 20.0085 19.621V19.621ZM18.3265 17.7772C18.365 18.1964 18.5588 18.5862 18.8698 18.8699C19.1808 19.1537 19.5867 19.311 20.0077 19.311C20.4287 19.311 20.8345 19.1537 21.1456 18.8699C21.4566 18.5862 21.6504 18.1964 21.6889 17.7772H18.3265Z" fill="#093F68"/>
<path d="M19.9834 17.0902C19.8302 17.0902 19.6772 17.0776 19.526 17.0525C19.4852 17.0452 19.449 17.0221 19.4252 16.9883C19.4013 16.9544 19.3918 16.9126 19.3987 16.8717C19.4021 16.8513 19.4095 16.8317 19.4206 16.8141C19.4316 16.7965 19.446 16.7813 19.463 16.7693C19.4799 16.7573 19.4991 16.7488 19.5193 16.7443C19.5396 16.7397 19.5606 16.7392 19.581 16.7428C19.8065 16.7819 20.0367 16.7851 20.2632 16.7523C20.2836 16.6092 20.106 16.1235 19.8687 15.6598C19.8504 15.623 19.8473 15.5806 19.86 15.5415C19.8726 15.5025 19.9 15.4699 19.9364 15.4508C19.9727 15.4317 20.0151 15.4276 20.0544 15.4393C20.0938 15.4511 20.1269 15.4777 20.1469 15.5136C20.3119 15.828 20.6813 16.5967 20.5446 16.9C20.5294 16.9383 20.5054 16.9725 20.4745 16.9998C20.4437 17.0271 20.4068 17.0468 20.367 17.0572C20.2408 17.0833 20.1121 17.0943 19.9834 17.0902V17.0902Z" fill="#093F68"/>
<path d="M16.3963 13.9778C16.355 13.98 16.3137 13.974 16.2747 13.9602C16.2357 13.9464 16.1999 13.9251 16.1691 13.8974C16.1071 13.8416 16.0698 13.7633 16.0654 13.68C16.061 13.5966 16.0899 13.5149 16.1458 13.4528C16.2016 13.3908 16.2799 13.3535 16.3633 13.3491L18.5844 13.1149C18.6677 13.1061 18.7512 13.1308 18.8163 13.1836C18.8815 13.2364 18.923 13.3129 18.9318 13.3962C18.9405 13.4796 18.9158 13.5631 18.863 13.6282C18.8103 13.6934 18.7338 13.7349 18.6504 13.7436L16.4293 13.9763L16.3963 13.9778Z" fill="#093F68"/>
<path d="M24.0198 14.1854C24 14.1877 23.9799 14.1877 23.9601 14.1854L21.7594 13.7704C21.6775 13.7547 21.6051 13.7072 21.5583 13.6382C21.5114 13.5692 21.4938 13.4845 21.5095 13.4025C21.5251 13.3206 21.5727 13.2483 21.6416 13.2014C21.7106 13.1545 21.7954 13.137 21.8773 13.1526L24.078 13.5676C24.1614 13.5753 24.2383 13.6158 24.2918 13.6802C24.3453 13.7447 24.371 13.8277 24.3633 13.9111C24.3556 13.9944 24.3151 14.0713 24.2506 14.1248C24.1862 14.1783 24.1032 14.2041 24.0198 14.1964V14.1854Z" fill="#093F68"/>
<path d="M20.0087 20.9273C18.781 20.9268 17.6038 20.439 16.7357 19.5709C15.8677 18.7028 15.3798 17.5256 15.3794 16.298V11.6703C16.5575 10.7244 17.9698 10.1154 19.4664 9.90814C23.5989 11.447 24.6364 11.6703 24.6364 11.6703V16.298C24.6364 17.5255 24.1489 18.7027 23.2811 19.5708C22.4132 20.4389 21.2362 20.9268 20.0087 20.9273V20.9273Z" fill="#FFC9B0"/>
<path d="M20.0086 21.0845C18.7396 21.0832 17.5228 20.5785 16.6255 19.6812C15.7281 18.7838 15.2234 17.5671 15.2222 16.298V11.6703C15.2222 11.6484 15.2269 11.6267 15.2358 11.6066C15.2447 11.5866 15.2578 11.5687 15.274 11.554C15.3385 11.4958 16.879 10.1282 19.4459 9.75255C19.4717 9.74589 19.4987 9.74589 19.5245 9.75255C23.5848 11.2663 24.6584 11.5068 24.6694 11.5084C24.7051 11.516 24.7371 11.5359 24.7597 11.5646C24.7824 11.5933 24.7944 11.629 24.7936 11.6656V16.2933C24.7936 17.5629 24.2896 18.7806 23.3925 19.679C22.4953 20.5773 21.2783 21.0828 20.0086 21.0845V21.0845ZM15.5366 11.7426V16.3011C15.5254 16.8954 15.6328 17.4859 15.8525 18.0381C16.0722 18.5904 16.3998 19.0933 16.8161 19.5175C17.2324 19.9416 17.7291 20.2786 18.2771 20.5086C18.8251 20.7386 19.4135 20.8571 20.0079 20.8571C20.6022 20.8571 21.1906 20.7386 21.7386 20.5086C22.2866 20.2786 22.7833 19.9416 23.1996 19.5175C23.6159 19.0933 23.9435 18.5904 24.1632 18.0381C24.3829 17.4859 24.4903 16.8954 24.4792 16.3011V11.7929C24.1051 11.6954 22.8082 11.3213 19.449 10.0638C18.0221 10.2772 16.6744 10.8555 15.5366 11.7426V11.7426Z" fill="#093F68"/>
<path d="M18.5528 15.1584H16.7813C16.5379 15.158 16.3047 15.0611 16.1326 14.889C15.9605 14.717 15.8637 14.4837 15.8633 14.2404V13.5126C15.8637 13.2692 15.9605 13.036 16.1326 12.8639C16.3047 12.6918 16.5379 12.595 16.7813 12.5946H18.5528C18.796 12.595 19.0291 12.6919 19.2009 12.864C19.3728 13.0361 19.4693 13.2694 19.4693 13.5126V14.2404C19.4693 14.4836 19.3728 14.7168 19.2009 14.8889C19.0291 15.061 18.796 15.158 18.5528 15.1584V15.1584ZM16.7813 12.909C16.6212 12.909 16.4677 12.9726 16.3545 13.0858C16.2413 13.199 16.1777 13.3525 16.1777 13.5126V14.2404C16.1777 14.4005 16.2413 14.554 16.3545 14.6672C16.4677 14.7804 16.6212 14.844 16.7813 14.844H18.5528C18.7126 14.8436 18.8658 14.7798 18.9786 14.6666C19.0915 14.5535 19.1549 14.4002 19.1549 14.2404V13.5126C19.1549 13.3528 19.0915 13.1995 18.9786 13.0863C18.8658 12.9732 18.7126 12.9094 18.5528 12.909H16.7813Z" fill="#093F68"/>
<path d="M23.2594 15.1584H21.4878C21.2445 15.158 21.0112 15.0611 20.8392 14.889C20.6671 14.717 20.5702 14.4837 20.5698 14.2404V13.5126C20.5702 13.2692 20.6671 13.036 20.8392 12.8639C21.0112 12.6918 21.2445 12.595 21.4878 12.5946H23.2594C23.5026 12.595 23.7357 12.6919 23.9075 12.864C24.0793 13.0361 24.1758 13.2694 24.1758 13.5126V14.2404C24.1758 14.4836 24.0793 14.7168 23.9075 14.8889C23.7357 15.061 23.5026 15.158 23.2594 15.1584V15.1584ZM21.4878 12.909C21.3277 12.909 21.1742 12.9726 21.061 13.0858C20.9478 13.199 20.8842 13.3525 20.8842 13.5126V14.2404C20.8842 14.4005 20.9478 14.554 21.061 14.6672C21.1742 14.7804 21.3277 14.844 21.4878 14.844H23.2594C23.4192 14.8436 23.5723 14.7798 23.6852 14.6666C23.798 14.5535 23.8614 14.4002 23.8614 14.2404V13.5126C23.8614 13.3528 23.798 13.1995 23.6852 13.0863C23.5723 12.9732 23.4192 12.9094 23.2594 12.909H21.4878Z" fill="#093F68"/>
<path d="M20.7269 13.849C20.6914 13.8488 20.6571 13.8366 20.6294 13.8144C20.1343 13.4261 19.5212 13.8144 19.4945 13.8238C19.4771 13.8349 19.4576 13.8424 19.4373 13.8459C19.4169 13.8494 19.3961 13.8489 19.376 13.8444C19.3558 13.8399 19.3368 13.8314 19.3199 13.8195C19.303 13.8076 19.2886 13.7925 19.2776 13.7751C19.2558 13.74 19.2487 13.6977 19.2578 13.6574C19.2669 13.6171 19.2915 13.582 19.3263 13.5597C19.3593 13.5377 20.1532 13.041 20.8244 13.5597C20.8406 13.5726 20.8542 13.5885 20.8643 13.6067C20.8743 13.6248 20.8807 13.6447 20.8831 13.6653C20.8854 13.6859 20.8836 13.7068 20.8779 13.7267C20.8721 13.7466 20.8625 13.7652 20.8495 13.7814C20.8357 13.8013 20.8174 13.8178 20.7961 13.8296C20.7749 13.8413 20.7512 13.8479 20.7269 13.849Z" fill="#093F68"/>
<path d="M14.8275 15.1584C14.7962 15.1582 14.7656 15.1488 14.7398 15.1312C14.7139 15.1136 14.6938 15.0887 14.6822 15.0597C14.6706 15.0307 14.6678 14.9988 14.6744 14.9682C14.6809 14.9376 14.6965 14.9097 14.719 14.888L15.9121 13.7594C15.9429 13.7342 15.982 13.7216 16.0217 13.7242C16.0613 13.7268 16.0985 13.7442 16.1258 13.7731C16.1531 13.802 16.1684 13.8401 16.1688 13.8799C16.1691 13.9196 16.1543 13.958 16.1274 13.9873L14.9344 15.1159C14.9054 15.1431 14.8672 15.1582 14.8275 15.1584V15.1584Z" fill="#093F68"/>
<path d="M25.2352 15.1584C25.195 15.1586 25.1562 15.1434 25.1268 15.1159L23.9337 13.9873C23.917 13.9736 23.9032 13.9566 23.8934 13.9374C23.8835 13.9182 23.8777 13.8972 23.8763 13.8757C23.8749 13.8541 23.878 13.8325 23.8853 13.8122C23.8926 13.7919 23.9041 13.7733 23.9189 13.7576C23.9337 13.7419 23.9516 13.7294 23.9715 13.721C23.9914 13.7125 24.0128 13.7082 24.0344 13.7084C24.0559 13.7085 24.0773 13.7132 24.097 13.7219C24.1167 13.7307 24.1345 13.7434 24.149 13.7593L25.3421 14.888C25.3714 14.9174 25.3878 14.9573 25.3878 14.9988C25.3878 15.0403 25.3714 15.0802 25.3421 15.1096C25.3141 15.1391 25.2758 15.1565 25.2352 15.1584Z" fill="#093F68"/>
<path d="M20.3527 16.6643C20.214 16.664 20.076 16.6449 19.9424 16.6077C19.9044 16.5946 19.8728 16.5673 19.8542 16.5316C19.8356 16.4959 19.8314 16.4545 19.8425 16.4158C19.8536 16.3771 19.8791 16.3441 19.9138 16.3236C19.9484 16.3032 19.9896 16.2968 20.0289 16.3059C20.0572 16.3059 20.7378 16.4992 20.8871 16.0528C21.0082 15.6865 20.3323 14.8597 19.878 14.4243C19.863 14.41 19.851 14.393 19.8426 14.3741C19.8342 14.3552 19.8297 14.3349 19.8291 14.3142C19.8286 14.2935 19.8322 14.273 19.8396 14.2537C19.8471 14.2344 19.8582 14.2168 19.8725 14.2018C19.8867 14.1869 19.9038 14.1749 19.9226 14.1665C19.9415 14.1581 19.9619 14.1535 19.9825 14.153C20.0032 14.1525 20.0237 14.1561 20.043 14.1635C20.0623 14.1709 20.0799 14.1821 20.0949 14.1963C20.2301 14.3252 21.409 15.479 21.1842 16.1518C21.0522 16.5511 20.6828 16.6643 20.3527 16.6643V16.6643Z" fill="#093F68"/>
<path d="M17.8202 14.1728C18.0251 14.1728 18.1912 14.0067 18.1912 13.8018C18.1912 13.5969 18.0251 13.4308 17.8202 13.4308C17.6153 13.4308 17.4492 13.5969 17.4492 13.8018C17.4492 14.0067 17.6153 14.1728 17.8202 14.1728Z" fill="#093F68"/>
<path d="M22.4969 14.1728C22.7018 14.1728 22.8679 14.0067 22.8679 13.8018C22.8679 13.5969 22.7018 13.4308 22.4969 13.4308C22.2921 13.4308 22.126 13.5969 22.126 13.8018C22.126 14.0067 22.2921 14.1728 22.4969 14.1728Z" fill="#093F68"/>
<path d="M16.3983 12.4987C16.3322 12.4985 16.2678 12.4774 16.2144 12.4385C16.1609 12.3996 16.1211 12.3448 16.1005 12.282C16.08 12.2191 16.0798 12.1514 16.0999 12.0884C16.1201 12.0255 16.1596 11.9705 16.2128 11.9312C16.2694 11.8904 17.6276 10.9315 18.9731 11.6624C19.0465 11.702 19.1011 11.7692 19.125 11.8491C19.1489 11.9289 19.14 12.0151 19.1004 12.0884C19.0608 12.1618 18.9937 12.2164 18.9138 12.2403C18.8339 12.2642 18.7478 12.2554 18.6744 12.2157C17.6716 11.6734 16.5917 12.4327 16.5807 12.4405C16.5274 12.4784 16.4637 12.4987 16.3983 12.4987Z" fill="#093F68"/>
<path d="M23.316 12.5003C23.2505 12.4998 23.1868 12.479 23.1337 12.4405C23.1148 12.428 22.0333 11.675 21.0399 12.2157C21.0036 12.2354 20.9637 12.2476 20.9227 12.2518C20.8816 12.2561 20.8401 12.2521 20.8005 12.2403C20.761 12.2285 20.7241 12.209 20.6921 12.1829C20.6601 12.1569 20.6335 12.1248 20.6139 12.0884C20.5943 12.0521 20.582 12.0123 20.5778 11.9712C20.5736 11.9301 20.5775 11.8886 20.5893 11.8491C20.6012 11.8095 20.6207 11.7727 20.6467 11.7406C20.6728 11.7086 20.7049 11.682 20.7412 11.6624C22.0946 10.9315 23.4449 11.8904 23.5015 11.9312C23.5554 11.9702 23.5955 12.0254 23.6161 12.0886C23.6367 12.1519 23.6367 12.2201 23.6161 12.2833C23.5954 12.3466 23.5553 12.4017 23.5014 12.4406C23.4474 12.4796 23.3826 12.5005 23.316 12.5003Z" fill="#093F68"/>
<path d="M21.2255 17.3276H19.3125C19.3125 17.3276 19.5561 20.2372 20.2698 19.9999C20.9834 19.7625 21.2255 17.3276 21.2255 17.3276V17.3276Z" fill="#093F68"/>
<path d="M20.1864 20.1665C20.1046 20.166 20.0248 20.1414 19.9569 20.0957C19.3832 19.7185 19.1898 17.7379 19.1568 17.3417C19.155 17.3201 19.1577 17.2983 19.1647 17.2777C19.1717 17.2572 19.183 17.2383 19.1977 17.2223C19.2122 17.2062 19.2299 17.1933 19.2496 17.1844C19.2694 17.1754 19.2907 17.1707 19.3124 17.1704H21.2254C21.2474 17.1705 21.2691 17.1751 21.2891 17.184C21.3091 17.193 21.3271 17.206 21.3418 17.2223C21.3564 17.2386 21.3674 17.2578 21.3742 17.2786C21.381 17.2995 21.3833 17.3215 21.3811 17.3433C21.1406 19.7468 20.4552 20.0973 20.32 20.1429C20.2771 20.1582 20.2319 20.1662 20.1864 20.1665ZM19.4853 17.4848C19.5718 18.3478 19.7997 19.6195 20.1282 19.8317C20.1406 19.8418 20.1554 19.8484 20.1711 19.8509C20.1869 19.8534 20.203 19.8516 20.2178 19.8458C20.6407 19.7028 20.9394 18.3886 21.0494 17.4879L19.4853 17.4848Z" fill="#093F68"/>
<path d="M20.1501 29.3087C20.7613 29.3087 21.2567 28.935 21.2567 28.474C21.2567 28.013 20.7613 27.6393 20.1501 27.6393C19.5389 27.6393 19.0435 28.013 19.0435 28.474C19.0435 28.935 19.5389 29.3087 20.1501 29.3087Z" fill="#F56132"/>
<path d="M20.1501 29.4628C19.4522 29.4628 18.8926 29.0179 18.8926 28.4725C18.8926 27.927 19.4585 27.4806 20.1501 27.4806C20.8418 27.4806 21.4076 27.9254 21.4076 28.4725C21.4076 29.0195 20.8465 29.4628 20.1501 29.4628ZM20.1501 27.795C19.6267 27.795 19.207 28.0984 19.207 28.4725C19.207 28.8466 19.633 29.1484 20.1501 29.1484C20.6673 29.1484 21.0933 28.845 21.0933 28.4725C21.0933 28.0999 20.6736 27.7965 20.1501 27.7965V27.795Z" fill="#093F68"/>
<path d="M20.1504 27.7966H20.1237C20.0827 27.7896 20.046 27.7667 20.0219 27.7328C19.9977 27.6989 19.988 27.6569 19.9948 27.6158C20.009 27.5356 20.1394 26.8424 20.6236 26.7858C20.6442 26.7835 20.6651 26.7852 20.6851 26.7909C20.7051 26.7966 20.7237 26.8062 20.74 26.8191C20.7563 26.832 20.7699 26.848 20.78 26.8662C20.79 26.8843 20.7965 26.9043 20.7988 26.9249C20.8012 26.9456 20.7995 26.9665 20.7938 26.9865C20.7881 27.0065 20.7785 27.0251 20.7656 27.0414C20.7527 27.0577 20.7367 27.0712 20.7185 27.0813C20.7003 27.0914 20.6804 27.0978 20.6597 27.1002C20.4648 27.1238 20.3453 27.4948 20.3092 27.6708C20.3018 27.7071 20.2818 27.7397 20.2528 27.7627C20.2237 27.7857 20.1875 27.7977 20.1504 27.7966V27.7966Z" fill="#093F68"/>
<path d="M9.29427 28.4552H12.4491V31.6415C12.4491 31.9771 12.3158 32.2989 12.0785 32.5362C11.8412 32.7735 11.5193 32.9069 11.1837 32.9069H10.5549C10.2193 32.9069 9.89748 32.7735 9.66018 32.5362C9.42287 32.2989 9.28955 31.9771 9.28955 31.6415V28.4552H9.29427V28.4552Z" fill="#FFBC0E"/>
<path d="M11.1807 33.0641H10.552C10.1762 33.0636 9.81575 32.9147 9.54928 32.6497C9.28281 32.3847 9.13188 32.0251 9.12939 31.6493V28.4552C9.12939 28.4135 9.14596 28.3735 9.17543 28.344C9.20491 28.3146 9.2449 28.298 9.28659 28.298H12.4414C12.4831 28.298 12.5231 28.3146 12.5526 28.344C12.5821 28.3735 12.5986 28.4135 12.5986 28.4552V31.6415C12.5978 32.0177 12.4483 32.3783 12.1827 32.6448C11.9171 32.9113 11.557 33.062 11.1807 33.0641ZM9.45164 28.6124V31.6415C9.45371 31.934 9.57138 32.2139 9.77899 32.42C9.98659 32.6261 10.2673 32.7418 10.5598 32.7418H11.1886C11.4813 32.7418 11.7622 32.6262 11.97 32.4201C12.1779 32.214 12.2959 31.9342 12.2984 31.6415V28.6124H9.45164Z" fill="#093F68"/>
<path d="M9.29441 31.5236H9.2614C8.91064 31.5116 8.57824 31.3639 8.33434 31.1115C8.09044 30.8591 7.9541 30.5219 7.9541 30.1709C7.9541 29.82 8.09044 29.4827 8.33434 29.2304C8.57824 28.978 8.91064 28.8303 9.2614 28.8183H9.29441C9.3361 28.8183 9.37608 28.8349 9.40556 28.8643C9.43504 28.8938 9.4516 28.9338 9.4516 28.9755V31.3664C9.4516 31.4081 9.43504 31.448 9.40556 31.4775C9.37608 31.507 9.3361 31.5236 9.29441 31.5236ZM9.13722 29.1484C8.88474 29.178 8.65194 29.2993 8.48298 29.4893C8.31403 29.6792 8.2207 29.9246 8.2207 30.1788C8.2207 30.433 8.31403 30.6784 8.48298 30.8683C8.65194 31.0582 8.88474 31.1795 9.13722 31.2092V29.1484Z" fill="#093F68"/>
<path d="M33.7783 29.3072V26.3064H27.7374V29.3072H26.9404V31.1526H27.6289V32.9666H33.6698V31.1227H32.9829V29.3072H33.7783Z" fill="white"/>
<path d="M33.6703 33.1238H27.6294C27.5877 33.1238 27.5477 33.1072 27.5182 33.0777C27.4888 33.0482 27.4722 33.0083 27.4722 32.9666V31.3098H26.9409C26.8992 31.3098 26.8592 31.2932 26.8297 31.2637C26.8003 31.2342 26.7837 31.1943 26.7837 31.1526V29.3056C26.7837 29.2639 26.8003 29.2239 26.8297 29.1944C26.8592 29.1649 26.8992 29.1484 26.9409 29.1484H27.5807V26.3064C27.5807 26.2647 27.5972 26.2247 27.6267 26.1952C27.6562 26.1657 27.6962 26.1492 27.7378 26.1492H33.7787C33.8204 26.1492 33.8604 26.1657 33.8899 26.1952C33.9193 26.2247 33.9359 26.2647 33.9359 26.3064V29.3056C33.9359 29.3473 33.9193 29.3872 33.8899 29.4167C33.8604 29.4462 33.8204 29.4628 33.7787 29.4628H33.1405V30.9639H33.6703C33.7119 30.9639 33.7519 30.9805 33.7814 31.01C33.8109 31.0395 33.8274 31.0794 33.8274 31.1211V32.965C33.8277 32.9858 33.8237 33.0064 33.8159 33.0256C33.8081 33.0449 33.7966 33.0624 33.782 33.0772C33.7673 33.0919 33.7499 33.1036 33.7308 33.1116C33.7116 33.1196 33.691 33.1238 33.6703 33.1238ZM27.7866 32.8094H33.5131V31.2799H32.9833C32.9416 31.2799 32.9017 31.2633 32.8722 31.2339C32.8427 31.2044 32.8261 31.1644 32.8261 31.1227V29.3056C32.8261 29.2639 32.8427 29.2239 32.8722 29.1944C32.9017 29.1649 32.9416 29.1484 32.9833 29.1484H33.6215V26.4636H27.895V29.3056C27.895 29.3473 27.8785 29.3872 27.849 29.4167C27.8195 29.4462 27.7795 29.4628 27.7378 29.4628H27.0981V30.9938H27.6294C27.6711 30.9938 27.7111 31.0104 27.7405 31.0399C27.77 31.0693 27.7866 31.1093 27.7866 31.151V32.8094Z" fill="#093F68"/>
<path d="M29.8866 29.4628H27.7378C27.6961 29.4628 27.6561 29.4462 27.6266 29.4167C27.5971 29.3873 27.5806 29.3473 27.5806 29.3056C27.5806 29.2639 27.5971 29.2239 27.6266 29.1944C27.6561 29.165 27.6961 29.1484 27.7378 29.1484H29.8866C29.9283 29.1484 29.9682 29.165 29.9977 29.1944C30.0272 29.2239 30.0438 29.2639 30.0438 29.3056C30.0438 29.3473 30.0272 29.3873 29.9977 29.4167C29.9682 29.4462 29.9283 29.4628 29.8866 29.4628Z" fill="#093F68"/>
<path d="M32.9835 29.4628H31.3471C31.3054 29.4628 31.2655 29.4462 31.236 29.4167C31.2065 29.3873 31.1899 29.3473 31.1899 29.3056C31.1899 29.2639 31.2065 29.2239 31.236 29.1944C31.2655 29.165 31.3054 29.1484 31.3471 29.1484H32.9835C33.0252 29.1484 33.0652 29.165 33.0946 29.1944C33.1241 29.2239 33.1407 29.2639 33.1407 29.3056C33.1407 29.3473 33.1241 29.3873 33.0946 29.4167C33.0652 29.4462 33.0252 29.4628 32.9835 29.4628Z" fill="#093F68"/>
<path d="M33.7785 28.2257H28.6289C28.5872 28.2257 28.5472 28.2091 28.5177 28.1797C28.4882 28.1502 28.4717 28.1102 28.4717 28.0685C28.4717 28.0268 28.4882 27.9868 28.5177 27.9574C28.5472 27.9279 28.5872 27.9113 28.6289 27.9113H33.7816C33.8233 27.9113 33.8633 27.9279 33.8928 27.9574C33.9222 27.9868 33.9388 28.0268 33.9388 28.0685C33.9388 28.1102 33.9222 28.1502 33.8928 28.1797C33.8633 28.2091 33.8233 28.2257 33.7816 28.2257H33.7785Z" fill="#093F68"/>
<path d="M31.8123 27.2967H27.8291C27.7874 27.2967 27.7474 27.2801 27.7179 27.2506C27.6884 27.2212 27.6719 27.1812 27.6719 27.1395C27.6719 27.0978 27.6884 27.0578 27.7179 27.0283C27.7474 26.9989 27.7874 26.9823 27.8291 26.9823H31.8123C31.854 26.9823 31.894 26.9989 31.9234 27.0283C31.9529 27.0578 31.9695 27.0978 31.9695 27.1395C31.9695 27.1812 31.9529 27.2212 31.9234 27.2506C31.894 27.2801 31.854 27.2967 31.8123 27.2967Z" fill="#093F68"/>
<path d="M8.1943 21.6928C8.15261 21.6928 8.11263 21.6763 8.08315 21.6468C8.05367 21.6173 8.03711 21.5773 8.03711 21.5356V20.9745C8.03711 20.9328 8.05367 20.8928 8.08315 20.8633C8.11263 20.8338 8.15261 20.8173 8.1943 20.8173C8.23599 20.8173 8.27597 20.8338 8.30545 20.8633C8.33493 20.8928 8.35149 20.9328 8.35149 20.9745V21.5341C8.3517 21.5548 8.34779 21.5754 8.33998 21.5947C8.33217 21.6139 8.32063 21.6315 8.30601 21.6462C8.29139 21.661 8.274 21.6727 8.25482 21.6807C8.23565 21.6887 8.21508 21.6928 8.1943 21.6928Z" fill="#DFEAEF"/>
<path d="M8.1943 22.9063C8.15261 22.9063 8.11263 22.8898 8.08315 22.8603C8.05367 22.8308 8.03711 22.7908 8.03711 22.7491V22.1911C8.03711 22.1494 8.05367 22.1094 8.08315 22.0799C8.11263 22.0505 8.15261 22.0339 8.1943 22.0339C8.23599 22.0339 8.27597 22.0505 8.30545 22.0799C8.33493 22.1094 8.35149 22.1494 8.35149 22.1911V22.7491C8.35149 22.7908 8.33493 22.8308 8.30545 22.8603C8.27597 22.8898 8.23599 22.9063 8.1943 22.9063Z" fill="#DFEAEF"/>
<path d="M9.08252 22.0198H8.52291C8.48122 22.0198 8.44124 22.0032 8.41176 21.9737C8.38228 21.9442 8.36572 21.9043 8.36572 21.8626C8.36572 21.8209 8.38228 21.7809 8.41176 21.7514C8.44124 21.7219 8.48122 21.7054 8.52291 21.7054H9.08252C9.12421 21.7054 9.16419 21.7219 9.19367 21.7514C9.22315 21.7809 9.23971 21.8209 9.23971 21.8626C9.23971 21.9043 9.22315 21.9442 9.19367 21.9737C9.16419 22.0032 9.12421 22.0198 9.08252 22.0198Z" fill="#DFEAEF"/>
<path d="M7.86756 22.0198H7.30954C7.26785 22.0198 7.22786 22.0032 7.19838 21.9737C7.1689 21.9442 7.15234 21.9043 7.15234 21.8626C7.15234 21.8209 7.1689 21.7809 7.19838 21.7514C7.22786 21.7219 7.26785 21.7054 7.30954 21.7054H7.86756C7.90925 21.7054 7.94924 21.7219 7.97872 21.7514C8.00819 21.7809 8.02476 21.8209 8.02476 21.8626C8.02476 21.9043 8.00819 21.9442 7.97872 21.9737C7.94924 22.0032 7.90925 22.0198 7.86756 22.0198Z" fill="#DFEAEF"/>
<path d="M31.0576 22.0197C31.0159 22.0197 30.9759 22.0032 30.9464 21.9737C30.9169 21.9442 30.9004 21.9042 30.9004 21.8626V21.3045C30.9004 21.2628 30.9169 21.2229 30.9464 21.1934C30.9759 21.1639 31.0159 21.1473 31.0576 21.1473C31.0993 21.1473 31.1393 21.1639 31.1687 21.1934C31.1982 21.2229 31.2148 21.2628 31.2148 21.3045V21.8626C31.2148 21.9042 31.1982 21.9442 31.1687 21.9737C31.1393 22.0032 31.0993 22.0197 31.0576 22.0197Z" fill="#DFEAEF"/>
<path d="M31.0576 23.2348C31.0159 23.2348 30.9759 23.2183 30.9464 23.1888C30.9169 23.1593 30.9004 23.1193 30.9004 23.0776V22.5196C30.9004 22.4779 30.9169 22.4379 30.9464 22.4085C30.9759 22.379 31.0159 22.3624 31.0576 22.3624C31.0993 22.3624 31.1393 22.379 31.1687 22.4085C31.1982 22.4379 31.2148 22.4779 31.2148 22.5196V23.0776C31.2148 23.1193 31.1982 23.1593 31.1687 23.1888C31.1393 23.2183 31.0993 23.2348 31.0576 23.2348Z" fill="#DFEAEF"/>
<path d="M31.9458 22.3483H31.3862C31.3445 22.3483 31.3045 22.3317 31.275 22.3022C31.2456 22.2728 31.229 22.2328 31.229 22.1911C31.229 22.1494 31.2456 22.1094 31.275 22.0799C31.3045 22.0505 31.3445 22.0339 31.3862 22.0339H31.9458C31.9875 22.0339 32.0275 22.0505 32.0569 22.0799C32.0864 22.1094 32.103 22.1494 32.103 22.1911C32.103 22.2328 32.0864 22.2728 32.0569 22.3022C32.0275 22.3317 31.9875 22.3483 31.9458 22.3483Z" fill="#DFEAEF"/>
<path d="M30.7305 22.3483H30.1709C30.1292 22.3483 30.0892 22.3317 30.0597 22.3022C30.0302 22.2728 30.0137 22.2328 30.0137 22.1911C30.0137 22.1494 30.0302 22.1094 30.0597 22.0799C30.0892 22.0505 30.1292 22.0339 30.1709 22.0339H30.7305C30.7722 22.0339 30.8121 22.0505 30.8416 22.0799C30.8711 22.1094 30.8877 22.1494 30.8877 22.1911C30.8877 22.2328 30.8711 22.2728 30.8416 22.3022C30.8121 22.3317 30.7722 22.3483 30.7305 22.3483Z" fill="#DFEAEF"/>
<path d="M32.5586 16.9331C32.5169 16.9331 32.4769 16.9165 32.4474 16.887C32.4179 16.8575 32.4014 16.8175 32.4014 16.7759V16.3043C32.4014 16.2626 32.4179 16.2226 32.4474 16.1931C32.4769 16.1637 32.5169 16.1471 32.5586 16.1471C32.6002 16.1471 32.6402 16.1637 32.6697 16.1931C32.6992 16.2226 32.7158 16.2626 32.7158 16.3043V16.7759C32.7158 16.8175 32.6992 16.8575 32.6697 16.887C32.6402 16.9165 32.6002 16.9331 32.5586 16.9331Z" fill="#DFEAEF"/>
<path d="M32.5586 17.9564C32.5169 17.9564 32.4769 17.9398 32.4474 17.9103C32.4179 17.8808 32.4014 17.8409 32.4014 17.7992V17.3276C32.4014 17.2859 32.4179 17.2459 32.4474 17.2165C32.4769 17.187 32.5169 17.1704 32.5586 17.1704C32.6002 17.1704 32.6402 17.187 32.6697 17.2165C32.6992 17.2459 32.7158 17.2859 32.7158 17.3276V17.7992C32.7158 17.8409 32.6992 17.8808 32.6697 17.9103C32.6402 17.9398 32.6002 17.9564 32.5586 17.9564Z" fill="#DFEAEF"/>
<path d="M33.2992 17.2097H32.8276C32.7859 17.2097 32.7459 17.1931 32.7165 17.1637C32.687 17.1342 32.6704 17.0942 32.6704 17.0525C32.6704 17.0108 32.687 16.9708 32.7165 16.9414C32.7459 16.9119 32.7859 16.8953 32.8276 16.8953H33.2992C33.3409 16.8953 33.3809 16.9119 33.4103 16.9414C33.4398 16.9708 33.4564 17.0108 33.4564 17.0525C33.4564 17.0942 33.4398 17.1342 33.4103 17.1637C33.3809 17.1931 33.3409 17.2097 33.2992 17.2097Z" fill="#DFEAEF"/>
<path d="M32.2757 17.2097H31.8042C31.7625 17.2097 31.7225 17.1931 31.693 17.1637C31.6635 17.1342 31.647 17.0942 31.647 17.0525C31.647 17.0108 31.6635 16.9708 31.693 16.9414C31.7225 16.9119 31.7625 16.8953 31.8042 16.8953H32.2757C32.3174 16.8953 32.3574 16.9119 32.3869 16.9414C32.4164 16.9708 32.4329 17.0108 32.4329 17.0525C32.4329 17.0942 32.4164 17.1342 32.3869 17.1637C32.3574 17.1931 32.3174 17.2097 32.2757 17.2097Z" fill="#DFEAEF"/>
</svg>
