<svg width="412" height="528" viewBox="0 0 412 528" fill="none" xmlns="http://www.w3.org/2000/svg">
<path d="M38.8619 482.07C22.4896 481.465 24.926 471.754 0.659856 471.149C0.438109 471.144 0.218162 471.137 0 471.13V0H412V512.711C401.9 521.505 387.973 527.757 368.803 527.585C337.169 527.293 332.141 478.248 313.897 478.248C299.201 478.248 300.663 521.989 288.286 522.223C280.997 522.359 281.153 481.895 268.425 480.081C258.68 478.696 252.696 492.25 244.159 491.684C236.928 491.216 232.796 480.081 223.694 482.811C213.442 485.892 212.506 505.12 206.639 504.321C200.441 503.482 194.594 479.632 177.539 477.136C160.173 474.601 155.612 488.895 145.691 490.338C135.77 491.782 134.426 478.599 122.263 476.922C110.082 475.245 99.5175 495.116 91.7796 495.116C81.0207 495.116 78.2724 469.316 66.1491 470.486C54.0258 471.656 55.2343 482.675 38.8619 482.07Z" fill="#BB0A1E"/>
</svg>
