<svg width="360" height="461" viewBox="0 0 360 461" fill="none" xmlns="http://www.w3.org/2000/svg">
<path d="M33.957 421.226C19.6511 420.698 21.78 412.212 0.576574 411.684C0.382814 411.679 0.190627 411.673 0 411.667V0H360V448C351.175 455.684 339.006 461.147 322.255 460.997C294.614 460.741 290.22 417.886 274.279 417.886C261.438 417.886 262.715 456.107 251.901 456.311C245.531 456.43 245.667 421.073 234.546 419.488C226.031 418.278 220.802 430.121 213.343 429.627C207.024 429.218 203.414 419.488 195.461 421.874C186.502 424.566 185.685 441.367 180.559 440.669C175.143 439.936 170.033 419.096 155.132 416.915C139.957 414.7 135.972 427.19 127.303 428.451C118.634 429.712 117.459 418.193 106.832 416.728C96.1878 415.262 86.957 432.626 80.1958 432.626C70.7948 432.626 68.3934 410.082 57.8002 411.105C47.207 412.127 48.2629 421.754 33.957 421.226Z" fill="#BB0A1E"/>
</svg>
