<svg width="31" height="131" viewBox="0 0 31 131" fill="none" xmlns="http://www.w3.org/2000/svg">
<path d="M30.4234 0.901215H0V130.952H30.4234V0.901215Z" fill="#FDFDFD"/>
<path d="M7.27398 9.86182L23.1465 9.86182V7.39612L7.27398 7.39612V9.86182Z" fill="#6D6E71"/>
<path d="M7.27398 36.126H23.1465V33.6603H7.27398V36.126Z" fill="#6D6E71"/>
<path d="M7.27398 17.5101L23.1465 17.5101V10.6851L7.27398 10.6851V17.5101Z" fill="#6D6E71"/>
<path d="M7.27398 19.125L23.1465 19.125V18.336L7.27398 18.336V19.125Z" fill="#6D6E71"/>
<path d="M7.27398 20.4747L23.1465 20.4747V19.6857L7.27398 19.6857V20.4747Z" fill="#6D6E71"/>
<path d="M7.27398 21.7073L23.1465 21.7073V20.9183L7.27398 20.9183V21.7073Z" fill="#6D6E71"/>
<path d="M7.27398 37.4747H23.1465V36.6857H7.27398V37.4747Z" fill="#6D6E71"/>
<path d="M7.27398 38.8244H23.1465V38.0354H7.27398V38.8244Z" fill="#6D6E71"/>
<path d="M7.27398 40.6877H23.1465V39.4253H7.27398V40.6877Z" fill="#6D6E71"/>
<path d="M7.27398 43.061H23.1465V41.792H7.27398V43.061Z" fill="#6D6E71"/>
<path d="M7.27398 45.2201H23.1465V43.9511H7.27398V45.2201Z" fill="#6D6E71"/>
<path d="M7.27398 48.2078H23.1465V46.1826H7.27398V48.2078Z" fill="#6D6E71"/>
<path d="M7.27398 25.5264L23.1465 25.5264V22.9818H7.27398V25.5264Z" fill="#6D6E71"/>
<path d="M7.27398 33.181H23.1465V26.1061H7.27398V33.181Z" fill="#6D6E71"/>
<path d="M7.27398 50.674H23.1465V48.2083H7.27398V50.674Z" fill="#6D6E71"/>
<path d="M7.27398 76.9382H23.1465V74.4725H7.27398V76.9382Z" fill="#6D6E71"/>
<path d="M7.27398 54.9148H23.1465V51.5023H7.27398V54.9148Z" fill="#6D6E71"/>
<path d="M7.27398 58.7409H23.1465V55.3284H7.27398V58.7409Z" fill="#6D6E71"/>
<path d="M7.27398 59.9438H23.1465V59.1548H7.27398V59.9438Z" fill="#6D6E71"/>
<path d="M7.27398 61.2935H23.1465V60.5045H7.27398V61.2935Z" fill="#6D6E71"/>
<path d="M7.27398 62.5259H23.1465V61.7369H7.27398V62.5259Z" fill="#6D6E71"/>
<path d="M7.27398 78.2934H23.1465V77.5044H7.27398V78.2934Z" fill="#6D6E71"/>
<path d="M7.27398 79.6432H23.1465V78.8542H7.27398V79.6432Z" fill="#6D6E71"/>
<path d="M7.27398 81.4999H23.1465V80.2375H7.27398V81.4999Z" fill="#6D6E71"/>
<path d="M7.27398 83.8732H23.1465V82.6042H7.27398V83.8732Z" fill="#6D6E71"/>
<path d="M7.27398 86.0388H23.1465V84.7698H7.27398V86.0388Z" fill="#6D6E71"/>
<path d="M7.27398 89.0199H23.1465V86.9947H7.27398V89.0199Z" fill="#6D6E71"/>
<path d="M7.27398 66.3386H23.1465V63.794H7.27398V66.3386Z" fill="#6D6E71"/>
<path d="M7.27398 69.5189H23.1465V66.9282H7.27398V69.5189Z" fill="#6D6E71"/>
<path d="M7.27398 73.9737H23.1465V69.8905H7.27398V73.9737Z" fill="#6D6E71"/>
<path d="M23.1513 123.193H7.27881V124.462H23.1513V123.193Z" fill="#6D6E71"/>
<path d="M23.1513 121.03H7.27881V122.299H23.1513V121.03Z" fill="#6D6E71"/>
<path d="M23.1513 118.045H7.27881V120.07H23.1513V118.045Z" fill="#6D6E71"/>
<path d="M23.1513 115.572H7.27881V118.038H23.1513V115.572Z" fill="#6D6E71"/>
<path d="M23.1513 89.311H7.27881V91.7767H23.1513V89.311Z" fill="#6D6E71"/>
<path d="M23.1513 111.338H7.27881V114.75H23.1513V111.338Z" fill="#6D6E71"/>
<path d="M23.1513 107.511H7.27881V110.924H23.1513V107.511Z" fill="#6D6E71"/>
<path d="M23.1513 106.308H7.27881V107.097H23.1513V106.308Z" fill="#6D6E71"/>
<path d="M23.1513 104.96H7.27881V105.749H23.1513V104.96Z" fill="#6D6E71"/>
<path d="M23.1513 103.724H7.27881V104.513H23.1513V103.724Z" fill="#6D6E71"/>
<path d="M23.1513 99.9102H7.27881V102.455H23.1513V99.9102Z" fill="#6D6E71"/>
<path d="M23.1513 96.7343H7.27881V99.325H23.1513V96.7343Z" fill="#6D6E71"/>
<path d="M23.1513 92.2764H7.27881V96.3596H23.1513V92.2764Z" fill="#6D6E71"/>
</svg>
