<svg width="14" height="79" viewBox="0 0 14 79" fill="none" xmlns="http://www.w3.org/2000/svg">
<path d="M0 70.0624H7.82525C8.62229 70.0624 9.22162 70.0995 9.62014 70.1767C10.0187 70.2539 10.3832 70.3775 10.7169 70.5536C11.4768 70.9274 12.0731 71.468 12.5025 72.1755C12.9319 72.883 13.1451 73.6646 13.1451 74.5234C13.1451 75.8178 12.7095 76.8867 11.8352 77.727C10.9609 78.5704 9.85802 78.9905 8.52034 78.9905C7.92102 78.9905 7.34949 78.8886 6.80577 78.6816C6.26205 78.4746 5.77394 78.178 5.34452 77.7826C4.89657 77.3841 4.55057 76.9052 4.30651 76.3492C4.06246 75.7931 3.93888 75.2123 3.93888 74.6099C3.93888 74.1681 3.98831 73.748 4.08717 73.3464C4.18603 72.9447 4.34049 72.5617 4.54439 72.2002H6.25896C5.98092 72.5678 5.77394 72.9355 5.6411 73.3031C5.50826 73.6676 5.44029 74.0445 5.44029 74.4307C5.44029 75.2834 5.73378 75.9846 6.32075 76.5345C6.90772 77.0844 7.65842 77.3594 8.57904 77.3594C9.48112 77.3594 10.2164 77.0906 10.7879 76.5562C11.3594 76.0217 11.6436 75.3359 11.6436 74.5018C11.6436 73.6615 11.3563 72.9787 10.7786 72.4535C10.2009 71.9284 9.44714 71.6658 8.51725 71.6658H0L0 70.0624Z" fill="#FDFDFD"/>
<path d="M8.52351 68.6013C7.90564 68.6013 7.32176 68.487 6.76568 68.2553C6.20961 68.0266 5.70914 67.693 5.26118 67.2574C4.82559 66.828 4.49503 66.3461 4.26951 65.8116C4.04399 65.2771 3.92969 64.7056 3.92969 64.1032C3.92969 63.4977 4.04399 62.9262 4.26951 62.3794C4.49503 61.8356 4.82559 61.3506 5.26118 60.9274C5.69678 60.498 6.19416 60.1705 6.75642 59.945C7.31867 59.7195 7.90873 59.6052 8.52351 59.6052C9.15373 59.6052 9.74997 59.7195 10.3153 59.945C10.8807 60.1705 11.3811 60.498 11.8167 60.9274C12.2523 61.3506 12.5829 61.8326 12.8084 62.3794C13.0339 62.9231 13.1482 63.4977 13.1482 64.1032C13.1482 64.7087 13.0339 65.2771 12.8084 65.8116C12.5829 66.3461 12.2523 66.828 11.8167 67.2574C11.3749 67.693 10.8745 68.0236 10.3122 68.2553C9.74688 68.487 9.15064 68.6013 8.52351 68.6013ZM8.50497 66.9423C9.36998 66.9423 10.1021 66.6643 10.7046 66.1113C11.307 65.5583 11.6066 64.8879 11.6066 64.1032C11.6066 63.3185 11.307 62.6481 10.7046 62.0952C10.1021 61.5422 9.36998 61.2641 8.50497 61.2641C7.64614 61.2641 6.91706 61.5391 6.32082 62.089C5.72149 62.6389 5.42183 63.3093 5.42183 64.1032C5.42183 64.8879 5.72149 65.5583 6.32082 66.1113C6.91706 66.6673 7.64614 66.9423 8.50497 66.9423Z" fill="#FDFDFD"/>
<path d="M12.9844 58.0945H8.13417C6.83974 58.0945 5.81718 57.7485 5.06029 57.0596C4.30341 56.3706 3.92651 55.4531 3.92651 54.3039C3.92651 53.1547 4.30341 52.2402 5.06029 51.5575C5.81718 50.8747 6.83974 50.5318 8.13417 50.5318H12.9844V52.1105H7.84377C7.1425 52.1105 6.57097 52.3144 6.1292 52.7222C5.68743 53.1299 5.46808 53.6582 5.46808 54.3039C5.46808 54.9434 5.68743 55.4716 6.1292 55.8856C6.57097 56.2996 7.1425 56.5066 7.84377 56.5066H12.9844V58.0945Z" fill="#FDFDFD"/>
<path d="M12.9842 41.6562H8.55106C7.62117 41.6562 6.86738 41.9188 6.28967 42.444C5.71197 42.9692 5.42466 43.6519 5.42466 44.4922C5.42466 45.3263 5.70888 46.0122 6.28041 46.5466C6.85193 47.0811 7.58719 47.3499 8.48927 47.3499C9.4068 47.3499 10.1606 47.0749 10.7476 46.525C11.3345 45.9751 11.628 45.2738 11.628 44.4212C11.628 44.035 11.5631 43.6581 11.4272 43.2936C11.2944 42.929 11.0874 42.5614 10.8093 42.1907H12.5208C12.7278 42.5521 12.8792 42.9352 12.9781 43.3368C13.0769 43.7384 13.1263 44.1617 13.1263 44.6004C13.1263 45.0236 13.0615 45.4437 12.9317 45.8608C12.802 46.2779 12.6197 46.6548 12.3818 46.9946C11.94 47.6341 11.3901 48.1253 10.7259 48.462C10.0617 48.7987 9.32956 48.9687 8.51707 48.9687C7.18867 48.9687 6.08887 48.5485 5.22077 47.7082C4.35267 46.8679 3.92017 45.8021 3.92017 44.5077C3.92017 43.655 4.13642 42.8765 4.56275 42.1691C4.99216 41.4616 5.58222 40.9179 6.32983 40.5379C6.66966 40.3618 7.03729 40.2382 7.4389 40.161C7.84051 40.0869 8.43984 40.0467 9.23997 40.0467H12.9842V41.6562Z" fill="#FDFDFD"/>
<path d="M1.73315 38.122L1.73315 36.5248H4.0903L4.0903 33.8309H5.5948L5.5948 36.5248H9.40085C10.1145 36.5248 10.6366 36.3518 10.964 36.0027C11.2946 35.6536 11.4583 35.1006 11.4583 34.3407V33.834H12.9814V34.3592C12.9814 35.6165 12.7064 36.5588 12.1565 37.1828C11.6066 37.81 10.7787 38.122 9.67271 38.122H1.73315Z" fill="#FDFDFD"/>
<path d="M9.04859 23.732C10.3183 23.9544 11.3223 24.4704 12.0576 25.2736C12.7959 26.0768 13.1636 27.0561 13.1636 28.2115C13.1636 28.6039 13.111 28.9931 13.006 29.3762C12.901 29.7593 12.7434 30.1207 12.5395 30.4605C12.1039 31.1742 11.5355 31.7272 10.8342 32.1195C10.1329 32.5118 9.3637 32.7096 8.5234 32.7096C7.90554 32.7096 7.32166 32.5953 6.76558 32.3697C6.2095 32.1442 5.70903 31.8168 5.26108 31.3873C4.81931 30.9579 4.48566 30.4698 4.25396 29.923C4.02535 29.3762 3.90796 28.8016 3.90796 28.1961C3.90796 27.294 4.14584 26.4908 4.6185 25.7802C5.09426 25.0697 5.78318 24.4951 6.69144 24.0533L9.91978 29.8828L8.71494 30.5532L6.30218 26.2282C6.00561 26.4939 5.78318 26.7935 5.6318 27.1272C5.48042 27.4608 5.40628 27.8223 5.40628 28.2146C5.40628 29.0116 5.70285 29.6851 6.29909 30.2319C6.89533 30.7787 7.63059 31.0537 8.50796 31.0537C9.37914 31.0537 10.1144 30.7787 10.7106 30.2288C11.3069 29.6789 11.6096 29.0086 11.6096 28.2146C11.6096 27.4577 11.3594 26.8244 10.862 26.3147C10.3646 25.8049 9.67881 25.4836 8.80762 25.357L9.04859 23.732Z" fill="#FDFDFD"/>
<path d="M12.9844 22.1007L0 22.1007L0 20.5035L12.9844 20.5035V22.1007Z" fill="#FFBB0D"/>
<path d="M1.56014 18.4832C1.29446 18.4832 1.06894 18.3905 0.880493 18.2021C0.692045 18.0136 0.599365 17.785 0.599365 17.5132C0.599365 17.2413 0.692045 17.0127 0.877404 16.8273C1.06276 16.642 1.28828 16.5524 1.56323 16.5524C1.84127 16.5524 2.07606 16.6451 2.26451 16.8273C2.45605 17.0127 2.54873 17.2413 2.54873 17.5132C2.54873 17.7789 2.45296 18.0075 2.25833 18.199C2.0637 18.3874 1.832 18.4832 1.56014 18.4832ZM12.9844 18.3102L4.0903 18.3102V16.713L12.9844 16.713V18.3102Z" fill="#FFBB0D"/>
<path d="M12.9844 14.5227L3.30866 14.5227C2.20269 14.5227 1.37475 14.2107 0.824848 13.5897C0.274949 12.9688 0 12.0265 0 10.7692L0 9.80837H1.52303L1.52303 10.7321C1.52303 11.5013 1.68986 12.0605 2.02042 12.4127C2.35406 12.7648 2.87616 12.944 3.58979 12.944H4.08717L4.08717 9.80837H5.59167L5.59167 12.944L12.9844 12.944V14.5227Z" fill="#FFBB0D"/>
<path d="M9.04859 0.296487C10.3183 0.518918 11.3223 1.03483 12.0576 1.83805C12.7959 2.64128 13.1636 3.62059 13.1636 4.776C13.1636 5.16834 13.111 5.55759 13.006 5.94067C12.901 6.32375 12.7434 6.6852 12.5395 7.02502C12.1039 7.73866 11.5355 8.29164 10.8342 8.68399C10.1329 9.07633 9.3637 9.27405 8.5234 9.27405C7.90554 9.27405 7.32166 9.15974 6.76558 8.93422C6.2095 8.7087 5.70903 8.38124 5.26108 7.95182C4.81931 7.5224 4.48566 7.03429 4.25396 6.48748C4.02535 5.94067 3.90796 5.36605 3.90796 4.76055C3.90796 3.85847 4.14584 3.05524 4.6185 2.3447C5.09426 1.63415 5.78318 1.05954 6.69144 0.617769L9.91978 6.44731L8.71494 7.1177L6.30218 2.79265C6.00561 3.05833 5.78318 3.358 5.6318 3.69165C5.48042 4.02529 5.40628 4.38674 5.40628 4.77908C5.40628 5.57613 5.70285 6.2496 6.29909 6.79641C6.89533 7.34322 7.63059 7.61817 8.50796 7.61817C9.37914 7.61817 10.1144 7.34322 10.7106 6.79332C11.3069 6.24343 11.6096 5.57304 11.6096 4.77908C11.6096 4.0222 11.3594 3.38889 10.862 2.87915C10.3646 2.36942 9.67881 2.04812 8.80762 1.92146L9.04859 0.296487Z" fill="#FFBB0D"/>
</svg>
