<svg width="91" height="131" viewBox="0 0 91 131" fill="none" xmlns="http://www.w3.org/2000/svg">
<g opacity="0.2">
<path d="M45.6861 0C48.8208 3.8335 52.1067 7.57258 55.0715 11.5572C60.4158 18.6954 64.9857 26.3246 68.0261 34.7659C69.5935 39.1282 70.6321 43.5848 70.4244 48.2681C70.2545 52.3471 69.0459 56.1617 66.9119 59.5042C63.4184 64.9996 59.6226 70.306 55.808 75.5747C52.0312 80.7868 48.141 85.9044 45.3272 91.7397C40.7761 101.182 41.1349 110.36 47.0079 119.103C50.747 124.674 56.0346 128.148 62.6063 129.791C56.9599 131.189 42.6457 129.64 32.1838 119.027C31.9194 119.726 31.6551 120.312 31.4662 120.916C31.2963 121.501 31.2018 122.124 30.7864 122.71C30.8997 121.331 30.7297 119.858 31.183 118.593C33.2413 112.701 32.0516 107.338 29.1057 102.069C27.4816 99.1423 26.0087 96.083 24.8378 92.9482C24.1202 91.0221 24.0447 88.8504 23.7992 86.7731C23.6104 85.1679 22.6284 83.8838 21.2121 83.6761C20.0224 83.5061 18.6249 84.3937 18.4172 85.98C18.1717 88.0195 18.3228 90.1156 18.4361 92.1929C18.5305 94.0435 18.8138 95.8942 18.8515 97.7448C16.982 92.665 14.6592 87.7551 16.3777 82.0331C17.2464 79.1627 17.4352 76.0468 17.6807 73.0065C17.8318 71.1558 16.9065 70.1172 15.2824 69.5884C14.1494 72.9309 12.9219 76.2357 11.9021 79.6348C8.78624 90.0778 8.29525 100.54 12.0154 110.945C14.7348 118.555 19.3614 124.844 25.6499 129.924C25.8954 130.131 26.1409 130.32 26.3864 130.528C26.4241 130.547 26.4241 130.603 26.5752 131C25.0645 130.207 23.7614 129.621 22.5529 128.885C9.54161 121.067 2.10122 109.585 0.25056 94.5345C-0.86361 85.3945 1.83684 77.1421 6.38794 69.3429C10.8069 61.7515 16.3022 54.9154 21.7031 48.0226C27.0473 41.1865 32.3349 34.3316 36.6972 26.7967C41.0594 19.2619 44.1375 11.2739 45.044 2.54937C45.0818 2.13392 45.1006 1.73735 45.1384 1.3219C45.1573 0.981981 45.1951 0.62318 45.2139 0.283264C45.365 0.188842 45.5161 0.0944212 45.6861 0ZM18.5683 82.4108C20.0601 79.0872 21.6653 75.8014 21.8353 72.1C21.873 71.1747 21.6842 70.1738 21.3254 69.3429C20.9099 68.4176 20.079 67.8511 18.8515 68.1532C20.3245 72.9876 18.4172 77.652 18.5683 82.4108ZM21.1932 82.4675C21.382 82.5053 21.5709 82.5619 21.7597 82.5997C22.9305 79.9937 24.1958 77.4254 25.2533 74.7816C25.6499 73.7618 25.6876 72.5533 25.6688 71.4391C25.6499 70.1738 24.6868 69.3807 23.1949 69.2485C23.9692 73.8563 21.8541 78.0486 21.1932 82.4675ZM23.8559 83.9593C23.9314 83.9782 23.9881 83.9971 24.0636 84.016C24.7057 83.0907 25.4044 82.1842 25.9709 81.2211C26.6318 80.0881 27.2739 78.9361 27.746 77.7087C28.2937 76.2546 27.916 75.4425 26.8962 74.9516C25.8954 77.9353 24.8756 80.9379 23.8559 83.9593Z" fill="#FDFDFD"/>
<path d="M77.638 50.7043C79.8286 55.312 81.9436 59.5421 83.8698 63.8477C86.9857 70.8727 89.3651 78.162 90.0261 85.8667C90.9514 96.6496 88.3643 106.564 82.2458 115.553C79.4887 119.575 76.1084 122.71 71.1985 123.654C65.2122 124.787 59.9813 122.993 55.5057 119.065C50.5391 114.703 48.0275 109.132 48.8018 102.504C49.1417 99.6711 50.1237 96.8196 51.2945 94.1947C53.9761 88.1895 58.2628 83.2229 62.2851 78.0864C65.6088 73.8564 68.8569 69.5696 71.8972 65.1318C74.5788 61.2417 76.3539 56.8794 77.2415 52.1961C77.2792 51.8373 77.4114 51.4974 77.638 50.7043Z" fill="#FDFDFD"/>
</g>
</svg>
