<svg width="412" height="170" viewBox="0 0 412 170" fill="none" xmlns="http://www.w3.org/2000/svg">
<path d="M38.8619 123.859C22.4896 123.254 24.926 113.543 0.659857 112.938C0.43811 112.933 0.218162 112.926 0 112.919V1.14444L206 0L412 1.14444V154.5C401.9 163.294 387.973 169.546 368.803 169.374C337.17 169.082 332.141 120.037 313.897 120.037C299.201 120.037 300.663 163.778 288.286 164.012C280.997 164.148 281.153 123.683 268.425 121.87C258.68 120.485 252.696 134.038 244.159 133.473C236.928 133.005 232.796 121.87 223.694 124.6C213.442 127.681 212.506 146.909 206.639 146.11C200.441 145.271 194.594 121.421 177.539 118.925C160.173 116.39 155.612 130.684 145.691 132.127C135.77 133.57 134.426 120.388 122.263 118.711C110.082 117.033 99.5175 136.905 91.7796 136.905C81.0207 136.905 78.2725 111.105 66.1491 112.275C54.0258 113.445 55.2343 124.463 38.8619 123.859Z" fill="#BB0A1E"/>
</svg>
