<svg width="35" height="44" viewBox="0 0 35 44" fill="none" xmlns="http://www.w3.org/2000/svg">
<path d="M6.63316 33.03V40H5.72316V36.84H2.17316V40H1.26316V33.03H2.17316V36.09H5.72316V33.03H6.63316ZM8.65699 33.63C8.48366 33.63 8.33699 33.57 8.21699 33.45C8.09699 33.33 8.03699 33.1833 8.03699 33.01C8.03699 32.8367 8.09699 32.69 8.21699 32.57C8.33699 32.45 8.48366 32.39 8.65699 32.39C8.82366 32.39 8.96366 32.45 9.07699 32.57C9.19699 32.69 9.25699 32.8367 9.25699 33.01C9.25699 33.1833 9.19699 33.33 9.07699 33.45C8.96366 33.57 8.82366 33.63 8.65699 33.63ZM9.09699 34.52V40H8.18699V34.52H9.09699ZM12.5879 40.09C12.1679 40.09 11.7913 40.02 11.4579 39.88C11.1246 39.7333 10.8613 39.5333 10.6679 39.28C10.4746 39.02 10.3679 38.7233 10.3479 38.39H11.2879C11.3146 38.6633 11.4413 38.8867 11.6679 39.06C11.9013 39.2333 12.2046 39.32 12.5779 39.32C12.9246 39.32 13.1979 39.2433 13.3979 39.09C13.5979 38.9367 13.6979 38.7433 13.6979 38.51C13.6979 38.27 13.5913 38.0933 13.3779 37.98C13.1646 37.86 12.8346 37.7433 12.3879 37.63C11.9813 37.5233 11.6479 37.4167 11.3879 37.31C11.1346 37.1967 10.9146 37.0333 10.7279 36.82C10.5479 36.6 10.4579 36.3133 10.4579 35.96C10.4579 35.68 10.5413 35.4233 10.7079 35.19C10.8746 34.9567 11.1113 34.7733 11.4179 34.64C11.7246 34.5 12.0746 34.43 12.4679 34.43C13.0746 34.43 13.5646 34.5833 13.9379 34.89C14.3113 35.1967 14.5113 35.6167 14.5379 36.15H13.6279C13.6079 35.8633 13.4913 35.6333 13.2779 35.46C13.0713 35.2867 12.7913 35.2 12.4379 35.2C12.1113 35.2 11.8513 35.27 11.6579 35.41C11.4646 35.55 11.3679 35.7333 11.3679 35.96C11.3679 36.14 11.4246 36.29 11.5379 36.41C11.6579 36.5233 11.8046 36.6167 11.9779 36.69C12.1579 36.7567 12.4046 36.8333 12.7179 36.92C13.1113 37.0267 13.4313 37.1333 13.6779 37.24C13.9246 37.34 14.1346 37.4933 14.3079 37.7C14.4879 37.9067 14.5813 38.1767 14.5879 38.51C14.5879 38.81 14.5046 39.08 14.3379 39.32C14.1713 39.56 13.9346 39.75 13.6279 39.89C13.3279 40.0233 12.9813 40.09 12.5879 40.09ZM16.9825 35.27V38.5C16.9825 38.7667 17.0392 38.9567 17.1525 39.07C17.2659 39.1767 17.4625 39.23 17.7425 39.23H18.4125V40H17.5925C17.0859 40 16.7059 39.8833 16.4525 39.65C16.1992 39.4167 16.0725 39.0333 16.0725 38.5V35.27H15.3625V34.52H16.0725V33.14H16.9825V34.52H18.4125V35.27H16.9825ZM21.9051 40.09C21.3918 40.09 20.9251 39.9733 20.5051 39.74C20.0918 39.5067 19.7651 39.1767 19.5251 38.75C19.2918 38.3167 19.1751 37.8167 19.1751 37.25C19.1751 36.69 19.2951 36.1967 19.5351 35.77C19.7818 35.3367 20.1151 35.0067 20.5351 34.78C20.9551 34.5467 21.4251 34.43 21.9451 34.43C22.4651 34.43 22.9351 34.5467 23.3551 34.78C23.7751 35.0067 24.1051 35.3333 24.3451 35.76C24.5918 36.1867 24.7151 36.6833 24.7151 37.25C24.7151 37.8167 24.5885 38.3167 24.3351 38.75C24.0885 39.1767 23.7518 39.5067 23.3251 39.74C22.8985 39.9733 22.4251 40.09 21.9051 40.09ZM21.9051 39.29C22.2318 39.29 22.5385 39.2133 22.8251 39.06C23.1118 38.9067 23.3418 38.6767 23.5151 38.37C23.6951 38.0633 23.7851 37.69 23.7851 37.25C23.7851 36.81 23.6985 36.4367 23.5251 36.13C23.3518 35.8233 23.1251 35.5967 22.8451 35.45C22.5651 35.2967 22.2618 35.22 21.9351 35.22C21.6018 35.22 21.2951 35.2967 21.0151 35.45C20.7418 35.5967 20.5218 35.8233 20.3551 36.13C20.1885 36.4367 20.1051 36.81 20.1051 37.25C20.1051 37.6967 20.1851 38.0733 20.3451 38.38C20.5118 38.6867 20.7318 38.9167 21.0051 39.07C21.2785 39.2167 21.5785 39.29 21.9051 39.29ZM26.8216 35.41C26.9816 35.0967 27.2083 34.8533 27.5016 34.68C27.8016 34.5067 28.1649 34.42 28.5916 34.42V35.36H28.3516C27.3316 35.36 26.8216 35.9133 26.8216 37.02V40H25.9116V34.52H26.8216V35.41ZM34.3621 34.52L31.0621 42.58H30.1221L31.2021 39.94L28.9921 34.52H30.0021L31.7221 38.96L33.4221 34.52H34.3621Z" fill="#BB0A1E"/>
<g clip-path="url(#clip0_179_72)">
<path d="M9.00805 10.3791C9.29633 9.51803 9.71001 8.63521 10.3203 7.7685C13.0779 3.85194 18.4842 2.9132 22.4007 5.67086C26.3255 8.43427 27.2642 13.8405 24.5066 17.7571C21.7489 21.6736 16.3426 22.6124 12.4261 19.8547C10.9707 18.83 9.92424 17.4327 9.32553 15.886M7.4396 7.25675L8.49041 11.5311L12.442 10.1919" stroke="#BB0A1E" stroke-width="1.5" stroke-linecap="round" stroke-linejoin="round"/>
<path d="M17 8V13.5L21 15.5" stroke="#BB0A1E" stroke-width="1.5" stroke-linecap="round"/>
</g>
<defs>
<clipPath id="clip0_179_72">
<rect width="24" height="24" fill="white" transform="translate(5)"/>
</clipPath>
</defs>
</svg>
