<svg width="34" height="44" viewBox="0 0 34 44" fill="none" xmlns="http://www.w3.org/2000/svg">
<path d="M6.26336 33.07V40H5.34336V36.87H1.85336V40H0.943359V33.07H1.85336V36.15H5.34336V33.07H6.26336ZM7.60977 33.01C7.60977 32.8367 7.66977 32.69 7.78977 32.57C7.90977 32.45 8.0531 32.39 8.21977 32.39C8.3931 32.39 8.53977 32.45 8.65977 32.57C8.77977 32.69 8.83977 32.8367 8.83977 33.01C8.83977 33.1833 8.77977 33.33 8.65977 33.45C8.53977 33.57 8.3931 33.63 8.21977 33.63C8.04643 33.63 7.89977 33.57 7.77977 33.45C7.66643 33.33 7.60977 33.1833 7.60977 33.01ZM8.66977 34.51V40H7.75977V34.51H8.66977ZM12.0619 34.42C12.6552 34.42 13.1252 34.5767 13.4719 34.89C13.8185 35.1967 14.0085 35.62 14.0419 36.16H13.1019C13.0885 35.8533 12.9852 35.6067 12.7919 35.42C12.5985 35.2333 12.3319 35.14 11.9919 35.14C11.6452 35.14 11.3719 35.2233 11.1719 35.39C10.9785 35.55 10.8819 35.7533 10.8819 36C10.8819 36.2067 10.9419 36.3733 11.0619 36.5C11.1885 36.62 11.3419 36.71 11.5219 36.77C11.7085 36.83 11.9585 36.8933 12.2719 36.96C12.6719 37.0533 12.9919 37.1467 13.2319 37.24C13.4785 37.3267 13.6885 37.4767 13.8619 37.69C14.0352 37.8967 14.1219 38.18 14.1219 38.54C14.1219 38.84 14.0352 39.11 13.8619 39.35C13.6885 39.5833 13.4452 39.7667 13.1319 39.9C12.8185 40.0267 12.4585 40.09 12.0519 40.09C11.4385 40.09 10.9452 39.9367 10.5719 39.63C10.2052 39.3233 10.0052 38.9 9.97188 38.36H10.9119C10.9252 38.6667 11.0319 38.9133 11.2319 39.1C11.4385 39.28 11.7119 39.37 12.0519 39.37C12.4252 39.37 12.7119 39.2933 12.9119 39.14C13.1185 38.9867 13.2219 38.7833 13.2219 38.53C13.2219 38.3233 13.1585 38.16 13.0319 38.04C12.9119 37.9133 12.7585 37.82 12.5719 37.76C12.3852 37.6933 12.1285 37.6233 11.8019 37.55C11.4085 37.4633 11.0885 37.3767 10.8419 37.29C10.6019 37.1967 10.3952 37.0533 10.2219 36.86C10.0552 36.6667 9.97188 36.4 9.97188 36.06C9.97188 35.76 10.0552 35.4867 10.2219 35.24C10.3952 34.9867 10.6385 34.7867 10.9519 34.64C11.2719 34.4933 11.6419 34.42 12.0619 34.42ZM17.9855 39.26V40H17.0655C16.5989 40 16.2422 39.8867 15.9955 39.66C15.7555 39.4333 15.6355 39.0767 15.6355 38.59V35.25H14.9255V34.51H15.6355V33.15H16.5555V34.51H17.9755V35.25H16.5555V38.59C16.5555 38.8367 16.6055 39.01 16.7055 39.11C16.8055 39.21 16.9822 39.26 17.2355 39.26H17.9855ZM21.4002 34.42C21.9202 34.42 22.3902 34.5367 22.8102 34.77C23.2302 35.0033 23.5602 35.3367 23.8002 35.77C24.0469 36.2033 24.1702 36.7 24.1702 37.26C24.1702 37.8133 24.0436 38.3067 23.7902 38.74C23.5369 39.1667 23.1936 39.5 22.7602 39.74C22.3269 39.9733 21.8469 40.09 21.3202 40.09C20.8069 40.09 20.3436 39.9733 19.9302 39.74C19.5236 39.5067 19.2036 39.1767 18.9702 38.75C18.7436 38.3167 18.6302 37.82 18.6302 37.26C18.6302 36.6933 18.7502 36.1967 18.9902 35.77C19.2369 35.3367 19.5702 35.0033 19.9902 34.77C20.4102 34.5367 20.8802 34.42 21.4002 34.42ZM21.3702 35.17C21.0369 35.17 20.7336 35.25 20.4602 35.41C20.1869 35.57 19.9669 35.8067 19.8002 36.12C19.6402 36.4333 19.5602 36.8133 19.5602 37.26C19.5602 37.7 19.6369 38.0767 19.7902 38.39C19.9502 38.7033 20.1636 38.94 20.4302 39.1C20.6969 39.26 20.9936 39.34 21.3202 39.34C21.6536 39.34 21.9636 39.26 22.2502 39.1C22.5436 38.9333 22.7802 38.6933 22.9602 38.38C23.1402 38.0667 23.2302 37.6933 23.2302 37.26C23.2302 36.82 23.1436 36.4433 22.9702 36.13C22.8036 35.81 22.5769 35.57 22.2902 35.41C22.0102 35.25 21.7036 35.17 21.3702 35.17ZM26.2186 35.44C26.5453 34.76 27.1019 34.42 27.8886 34.42V35.37H27.6486C27.1819 35.37 26.8253 35.4933 26.5786 35.74C26.3386 35.98 26.2186 36.4 26.2186 37V40H25.3086V34.51H26.2186V35.44ZM29.3602 34.51L31.0402 38.95L32.7502 34.51H33.6902L30.3802 42.57H29.4402L30.5302 39.91L28.3602 34.51H29.3602Z" fill="#6D6E71"/>
<g clip-path="url(#clip0_179_53)">
<path d="M9.00805 10.3791C9.29633 9.51803 9.71001 8.63521 10.3203 7.7685C13.0779 3.85194 18.4842 2.9132 22.4007 5.67086C26.3255 8.43427 27.2642 13.8405 24.5066 17.7571C21.7489 21.6736 16.3426 22.6124 12.4261 19.8547C10.9707 18.83 9.92424 17.4327 9.32553 15.886M7.4396 7.25675L8.49041 11.5311L12.442 10.1919" stroke="#6D6E71" stroke-width="1.5" stroke-linecap="round" stroke-linejoin="round"/>
<path d="M17 8V13.5L21 15.5" stroke="#6D6E71" stroke-width="1.5" stroke-linecap="round"/>
</g>
<defs>
<clipPath id="clip0_179_53">
<rect width="24" height="24" fill="white" transform="translate(5)"/>
</clipPath>
</defs>
</svg>
