<svg width="30" height="44" viewBox="0 0 30 44" fill="none" xmlns="http://www.w3.org/2000/svg">
<path d="M15 17.99V14.99M12.02 2.84004L6.63 7.04004C5.73 7.74004 5 9.23004 5 10.36V17.77C5 20.09 6.89 21.99 9.21 21.99H20.79C23.11 21.99 25 20.09 25 17.78V10.5C25 9.29004 24.19 7.74004 23.2 7.05004L17.02 2.72004C15.62 1.74004 13.37 1.79004 12.02 2.84004Z" stroke="#BB0A1E" stroke-width="1.5" stroke-linecap="round" stroke-linejoin="round"/>
<path d="M6.22789 33.03V40H5.31789V36.84H1.76789V40H0.857891V33.03H1.76789V36.09H5.31789V33.03H6.22789ZM10.1717 40.09C9.65839 40.09 9.19172 39.9733 8.77172 39.74C8.35839 39.5067 8.03172 39.1767 7.79172 38.75C7.55839 38.3167 7.44172 37.8167 7.44172 37.25C7.44172 36.69 7.56172 36.1967 7.80172 35.77C8.04839 35.3367 8.38172 35.0067 8.80172 34.78C9.22172 34.5467 9.69172 34.43 10.2117 34.43C10.7317 34.43 11.2017 34.5467 11.6217 34.78C12.0417 35.0067 12.3717 35.3333 12.6117 35.76C12.8584 36.1867 12.9817 36.6833 12.9817 37.25C12.9817 37.8167 12.8551 38.3167 12.6017 38.75C12.3551 39.1767 12.0184 39.5067 11.5917 39.74C11.1651 39.9733 10.6917 40.09 10.1717 40.09ZM10.1717 39.29C10.4984 39.29 10.8051 39.2133 11.0917 39.06C11.3784 38.9067 11.6084 38.6767 11.7817 38.37C11.9617 38.0633 12.0517 37.69 12.0517 37.25C12.0517 36.81 11.9651 36.4367 11.7917 36.13C11.6184 35.8233 11.3917 35.5967 11.1117 35.45C10.8317 35.2967 10.5284 35.22 10.2017 35.22C9.86839 35.22 9.56172 35.2967 9.28172 35.45C9.00839 35.5967 8.78839 35.8233 8.62172 36.13C8.45505 36.4367 8.37172 36.81 8.37172 37.25C8.37172 37.6967 8.45172 38.0733 8.61172 38.38C8.77839 38.6867 8.99839 38.9167 9.27172 39.07C9.54505 39.2167 9.84505 39.29 10.1717 39.29ZM20.7682 34.42C21.1949 34.42 21.5749 34.51 21.9082 34.69C22.2415 34.8633 22.5049 35.1267 22.6982 35.48C22.8915 35.8333 22.9882 36.2633 22.9882 36.77V40H22.0882V36.9C22.0882 36.3533 21.9515 35.9367 21.6782 35.65C21.4115 35.3567 21.0482 35.21 20.5882 35.21C20.1149 35.21 19.7382 35.3633 19.4582 35.67C19.1782 35.97 19.0382 36.4067 19.0382 36.98V40H18.1382V36.9C18.1382 36.3533 18.0015 35.9367 17.7282 35.65C17.4615 35.3567 17.0982 35.21 16.6382 35.21C16.1649 35.21 15.7882 35.3633 15.5082 35.67C15.2282 35.97 15.0882 36.4067 15.0882 36.98V40H14.1782V34.52H15.0882V35.31C15.2682 35.0233 15.5082 34.8033 15.8082 34.65C16.1149 34.4967 16.4515 34.42 16.8182 34.42C17.2782 34.42 17.6849 34.5233 18.0382 34.73C18.3915 34.9367 18.6549 35.24 18.8282 35.64C18.9815 35.2533 19.2349 34.9533 19.5882 34.74C19.9415 34.5267 20.3349 34.42 20.7682 34.42ZM29.4809 37.05C29.4809 37.2233 29.4709 37.4067 29.4509 37.6H25.0709C25.1043 38.14 25.2876 38.5633 25.6209 38.87C25.9609 39.17 26.3709 39.32 26.8509 39.32C27.2443 39.32 27.5709 39.23 27.8309 39.05C28.0976 38.8633 28.2843 38.6167 28.3909 38.31H29.3709C29.2243 38.8367 28.9309 39.2667 28.4909 39.6C28.0509 39.9267 27.5043 40.09 26.8509 40.09C26.3309 40.09 25.8643 39.9733 25.4509 39.74C25.0443 39.5067 24.7243 39.1767 24.4909 38.75C24.2576 38.3167 24.1409 37.8167 24.1409 37.25C24.1409 36.6833 24.2543 36.1867 24.4809 35.76C24.7076 35.3333 25.0243 35.0067 25.4309 34.78C25.8443 34.5467 26.3176 34.43 26.8509 34.43C27.3709 34.43 27.8309 34.5433 28.2309 34.77C28.6309 34.9967 28.9376 35.31 29.1509 35.71C29.3709 36.1033 29.4809 36.55 29.4809 37.05ZM28.5409 36.86C28.5409 36.5133 28.4643 36.2167 28.3109 35.97C28.1576 35.7167 27.9476 35.5267 27.6809 35.4C27.4209 35.2667 27.1309 35.2 26.8109 35.2C26.3509 35.2 25.9576 35.3467 25.6309 35.64C25.3109 35.9333 25.1276 36.34 25.0809 36.86H28.5409Z" fill="#BB0A1E"/>
</svg>
