<svg width="27" height="42" viewBox="0 0 27 42" fill="none" xmlns="http://www.w3.org/2000/svg">
<path d="M1.78156 31.03V38H0.871563V31.03H1.78156ZM6.0025 32.42C6.66917 32.42 7.20917 32.6233 7.6225 33.03C8.03583 33.43 8.2425 34.01 8.2425 34.77V38H7.3425V34.9C7.3425 34.3533 7.20583 33.9367 6.9325 33.65C6.65917 33.3567 6.28583 33.21 5.8125 33.21C5.3325 33.21 4.94917 33.36 4.6625 33.66C4.3825 33.96 4.2425 34.3967 4.2425 34.97V38H3.3325V32.52H4.2425V33.3C4.4225 33.02 4.66583 32.8033 4.9725 32.65C5.28583 32.4967 5.62917 32.42 6.0025 32.42ZM10.639 33.54C10.8257 33.2133 11.099 32.9467 11.459 32.74C11.819 32.5333 12.229 32.43 12.689 32.43C13.1823 32.43 13.6257 32.5467 14.019 32.78C14.4123 33.0133 14.7223 33.3433 14.949 33.77C15.1757 34.19 15.289 34.68 15.289 35.24C15.289 35.7933 15.1757 36.2867 14.949 36.72C14.7223 37.1533 14.409 37.49 14.009 37.73C13.6157 37.97 13.1757 38.09 12.689 38.09C12.2157 38.09 11.799 37.9867 11.439 37.78C11.0857 37.5733 10.819 37.31 10.639 36.99V38H9.72898V30.6H10.639V33.54ZM14.359 35.24C14.359 34.8267 14.2757 34.4667 14.109 34.16C13.9423 33.8533 13.7157 33.62 13.429 33.46C13.149 33.3 12.839 33.22 12.499 33.22C12.1657 33.22 11.8557 33.3033 11.569 33.47C11.289 33.63 11.0623 33.8667 10.889 34.18C10.7223 34.4867 10.639 34.8433 10.639 35.25C10.639 35.6633 10.7223 36.0267 10.889 36.34C11.0623 36.6467 11.289 36.8833 11.569 37.05C11.8557 37.21 12.1657 37.29 12.499 37.29C12.839 37.29 13.149 37.21 13.429 37.05C13.7157 36.8833 13.9423 36.6467 14.109 36.34C14.2757 36.0267 14.359 35.66 14.359 35.24ZM18.8768 38.09C18.3635 38.09 17.8968 37.9733 17.4768 37.74C17.0635 37.5067 16.7368 37.1767 16.4968 36.75C16.2635 36.3167 16.1468 35.8167 16.1468 35.25C16.1468 34.69 16.2668 34.1967 16.5068 33.77C16.7535 33.3367 17.0868 33.0067 17.5068 32.78C17.9268 32.5467 18.3968 32.43 18.9168 32.43C19.4368 32.43 19.9068 32.5467 20.3268 32.78C20.7468 33.0067 21.0768 33.3333 21.3168 33.76C21.5635 34.1867 21.6868 34.6833 21.6868 35.25C21.6868 35.8167 21.5601 36.3167 21.3068 36.75C21.0601 37.1767 20.7235 37.5067 20.2968 37.74C19.8701 37.9733 19.3968 38.09 18.8768 38.09ZM18.8768 37.29C19.2035 37.29 19.5101 37.2133 19.7968 37.06C20.0835 36.9067 20.3135 36.6767 20.4868 36.37C20.6668 36.0633 20.7568 35.69 20.7568 35.25C20.7568 34.81 20.6701 34.4367 20.4968 34.13C20.3235 33.8233 20.0968 33.5967 19.8168 33.45C19.5368 33.2967 19.2335 33.22 18.9068 33.22C18.5735 33.22 18.2668 33.2967 17.9868 33.45C17.7135 33.5967 17.4935 33.8233 17.3268 34.13C17.1601 34.4367 17.0768 34.81 17.0768 35.25C17.0768 35.6967 17.1568 36.0733 17.3168 36.38C17.4835 36.6867 17.7035 36.9167 17.9768 37.07C18.2501 37.2167 18.5501 37.29 18.8768 37.29ZM25.7433 38L24.4433 35.96L23.1933 38H22.2433L24.0133 35.28L22.2433 32.52H23.2733L24.5733 34.55L25.8133 32.52H26.7633L25.0033 35.23L26.7733 38H25.7433Z" fill="#6D6E71"/>
<path d="M24 9V12C24 16 22 18 18 18H17.5C17.19 18 16.89 18.15 16.7 18.4L15.2 20.4C14.54 21.28 13.46 21.28 12.8 20.4L11.3 18.4C11.14 18.18 10.77 18 10.5 18H10C6 18 4 17 4 12V7C4 3 6 1 10 1H16" stroke="#6D6E71" stroke-width="1.5" stroke-miterlimit="10" stroke-linecap="round" stroke-linejoin="round"/>
<path d="M21.5 6C22.163 6 22.7989 5.73661 23.2678 5.26777C23.7366 4.79893 24 4.16304 24 3.5C24 2.83696 23.7366 2.20107 23.2678 1.73223C22.7989 1.26339 22.163 1 21.5 1C20.837 1 20.2011 1.26339 19.7322 1.73223C19.2634 2.20107 19 2.83696 19 3.5C19 4.16304 19.2634 4.79893 19.7322 5.26777C20.2011 5.73661 20.837 6 21.5 6Z" stroke="#6D6E71" stroke-width="1.5" stroke-linecap="round" stroke-linejoin="round"/>
<path d="M17.996 10H18.006M13.995 10H14.005M9.995 10H10.003" stroke="#6D6E71" stroke-width="1.5" stroke-linecap="round" stroke-linejoin="round"/>
</svg>
