<svg width="27" height="41" viewBox="0 0 27 41" fill="none" xmlns="http://www.w3.org/2000/svg">
<path d="M1.91781 30.07V37H1.00781V30.07H1.91781ZM6.11992 31.42C6.51326 31.42 6.86992 31.51 7.18992 31.69C7.51659 31.8633 7.77326 32.1267 7.95992 32.48C8.15326 32.8267 8.24992 33.25 8.24992 33.75V37H7.34992V33.9C7.34992 33.3467 7.21659 32.9267 6.94992 32.64C6.68326 32.3533 6.31326 32.21 5.83992 32.21C5.37326 32.21 5.00326 32.3533 4.72992 32.64C4.46326 32.9267 4.32992 33.3467 4.32992 33.9V37H3.41992V31.51H4.32992V32.4C4.50992 32.08 4.75659 31.8367 5.06992 31.67C5.38326 31.5033 5.73326 31.42 6.11992 31.42ZM12.6392 31.42C13.1326 31.42 13.5759 31.5367 13.9692 31.77C14.3692 32.0033 14.6826 32.3333 14.9092 32.76C15.1426 33.18 15.2592 33.6667 15.2592 34.22C15.2592 34.7733 15.1426 35.27 14.9092 35.71C14.6826 36.1433 14.3692 36.4833 13.9692 36.73C13.5759 36.97 13.1326 37.09 12.6392 37.09C12.1726 37.09 11.7626 36.98 11.4092 36.76C11.0626 36.5333 10.7959 36.24 10.6092 35.88V37H9.69922V29.6H10.6092V32.61C10.7959 32.2567 11.0626 31.97 11.4092 31.75C11.7626 31.53 12.1726 31.42 12.6392 31.42ZM12.4592 32.21C12.1326 32.21 11.8259 32.2933 11.5392 32.46C11.2592 32.6267 11.0326 32.8667 10.8592 33.18C10.6926 33.4867 10.6092 33.8467 10.6092 34.26C10.6092 34.6733 10.6926 35.0367 10.8592 35.35C11.0326 35.6567 11.2592 35.8933 11.5392 36.06C11.8259 36.2267 12.1326 36.31 12.4592 36.31C12.7859 36.31 13.0926 36.2267 13.3792 36.06C13.6659 35.8867 13.8926 35.64 14.0592 35.32C14.2326 35 14.3192 34.6333 14.3192 34.22C14.3192 33.8067 14.2326 33.45 14.0592 33.15C13.8926 32.8433 13.6659 32.61 13.3792 32.45C13.0992 32.29 12.7926 32.21 12.4592 32.21ZM18.8084 31.42C19.3284 31.42 19.7984 31.5367 20.2184 31.77C20.6384 32.0033 20.9684 32.3367 21.2084 32.77C21.4551 33.2033 21.5784 33.7 21.5784 34.26C21.5784 34.8133 21.4518 35.3067 21.1984 35.74C20.9451 36.1667 20.6018 36.5 20.1684 36.74C19.7351 36.9733 19.2551 37.09 18.7284 37.09C18.2151 37.09 17.7518 36.9733 17.3384 36.74C16.9318 36.5067 16.6118 36.1767 16.3784 35.75C16.1518 35.3167 16.0384 34.82 16.0384 34.26C16.0384 33.6933 16.1584 33.1967 16.3984 32.77C16.6451 32.3367 16.9784 32.0033 17.3984 31.77C17.8184 31.5367 18.2884 31.42 18.8084 31.42ZM18.7784 32.17C18.4451 32.17 18.1418 32.25 17.8684 32.41C17.5951 32.57 17.3751 32.8067 17.2084 33.12C17.0484 33.4333 16.9684 33.8133 16.9684 34.26C16.9684 34.7 17.0451 35.0767 17.1984 35.39C17.3584 35.7033 17.5718 35.94 17.8384 36.1C18.1051 36.26 18.4018 36.34 18.7284 36.34C19.0618 36.34 19.3718 36.26 19.6584 36.1C19.9518 35.9333 20.1884 35.6933 20.3684 35.38C20.5484 35.0667 20.6384 34.6933 20.6384 34.26C20.6384 33.82 20.5518 33.4433 20.3784 33.13C20.2118 32.81 19.9851 32.57 19.6984 32.41C19.4184 32.25 19.1118 32.17 18.7784 32.17ZM24.8568 34.25L26.6168 37H25.5868L24.2868 34.96L23.0768 37H22.0868L23.8568 34.28L22.0868 31.51H23.1168L24.4268 33.56L25.6468 31.51H26.6268L24.8568 34.25Z" fill="#BB0A1E"/>
<path d="M24 9V12C24 16 22 18 18 18H17.5C17.19 18 16.89 18.15 16.7 18.4L15.2 20.4C14.54 21.28 13.46 21.28 12.8 20.4L11.3 18.4C11.14 18.18 10.77 18 10.5 18H10C6 18 4 17 4 12V7C4 3 6 1 10 1H16" stroke="#BB0A1E" stroke-width="1.5" stroke-miterlimit="10" stroke-linecap="round" stroke-linejoin="round"/>
<path d="M21.5 6C22.163 6 22.7989 5.73661 23.2678 5.26777C23.7366 4.79893 24 4.16304 24 3.5C24 2.83696 23.7366 2.20107 23.2678 1.73223C22.7989 1.26339 22.163 1 21.5 1C20.837 1 20.2011 1.26339 19.7322 1.73223C19.2634 2.20107 19 2.83696 19 3.5C19 4.16304 19.2634 4.79893 19.7322 5.26777C20.2011 5.73661 20.837 6 21.5 6Z" stroke="#BB0A1E" stroke-width="1.5" stroke-linecap="round" stroke-linejoin="round"/>
<path d="M17.996 10H18.006M13.995 10H14.005M9.995 10H10.003" stroke="#BB0A1E" stroke-width="1.5" stroke-linecap="round" stroke-linejoin="round"/>
</svg>
