<svg width="28" height="44" viewBox="0 0 28 44" fill="none" xmlns="http://www.w3.org/2000/svg">
<path d="M8.19695 33.07V40H7.27695V34.95L4.95695 40H4.36695L2.03695 34.95V40H1.12695V33.07H2.05695L4.66695 38.75L7.26695 33.07H8.19695ZM14.6812 37.03C14.6812 37.2233 14.6678 37.4033 14.6412 37.57H10.2712C10.2978 38.1167 10.4678 38.55 10.7812 38.87C11.1012 39.1833 11.5078 39.34 12.0012 39.34C12.3745 39.34 12.6878 39.2567 12.9412 39.09C13.2012 38.9233 13.3912 38.7033 13.5112 38.43H14.4912C14.3178 38.91 14.0178 39.3067 13.5912 39.62C13.1712 39.9333 12.6412 40.09 12.0012 40.09C11.4878 40.09 11.0278 39.9733 10.6212 39.74C10.2212 39.5067 9.90784 39.1767 9.68117 38.75C9.45451 38.3167 9.34117 37.82 9.34117 37.26C9.34117 36.6933 9.45451 36.1967 9.68117 35.77C9.90784 35.3367 10.2278 35.0033 10.6412 34.77C11.0545 34.5367 11.5312 34.42 12.0712 34.42C12.5845 34.42 13.0378 34.5333 13.4312 34.76C13.8245 34.9867 14.1312 35.2967 14.3512 35.69C14.5712 36.0833 14.6812 36.53 14.6812 37.03ZM13.7312 36.91C13.7312 36.5567 13.6545 36.25 13.5012 35.99C13.3478 35.7233 13.1378 35.52 12.8712 35.38C12.6112 35.24 12.3212 35.17 12.0012 35.17C11.5278 35.17 11.1312 35.3267 10.8112 35.64C10.4912 35.9467 10.3145 36.37 10.2812 36.91H13.7312ZM18.5145 34.42C18.9078 34.42 19.2645 34.51 19.5845 34.69C19.9111 34.8633 20.1678 35.1267 20.3545 35.48C20.5478 35.8267 20.6445 36.25 20.6445 36.75V40H19.7445V36.9C19.7445 36.3467 19.6111 35.9267 19.3445 35.64C19.0778 35.3533 18.7078 35.21 18.2345 35.21C17.7678 35.21 17.3978 35.3533 17.1245 35.64C16.8578 35.9267 16.7245 36.3467 16.7245 36.9V40H15.8145V34.51H16.7245V35.4C16.9045 35.08 17.1511 34.8367 17.4645 34.67C17.7778 34.5033 18.1278 34.42 18.5145 34.42ZM26.8738 34.51V40H25.9638V39.12C25.7838 39.44 25.5371 39.6833 25.2238 39.85C24.9104 40.01 24.5604 40.09 24.1738 40.09C23.7804 40.09 23.4204 40.0033 23.0938 39.83C22.7738 39.65 22.5171 39.3867 22.3238 39.04C22.1371 38.6933 22.0438 38.27 22.0438 37.77V34.51H22.9438V37.62C22.9438 38.1667 23.0771 38.5867 23.3438 38.88C23.6171 39.1667 23.9871 39.31 24.4538 39.31C24.9204 39.31 25.2871 39.1667 25.5538 38.88C25.8271 38.5867 25.9638 38.1667 25.9638 37.62V34.51H26.8738Z" fill="#6D6E71"/>
<path d="M17.59 12.26C18.9506 12.26 20.2554 11.7195 21.2175 10.7575C22.1795 9.7954 22.72 8.49056 22.72 7.13C22.72 5.76944 22.1795 4.4646 21.2175 3.50254C20.2554 2.54048 18.9506 2 17.59 2C16.2295 2 14.9246 2.54048 13.9626 3.50254C13.0005 4.4646 12.46 5.76944 12.46 7.13C12.46 8.49056 13.0005 9.7954 13.9626 10.7575C14.9246 11.7195 16.2295 12.26 17.59 12.26ZM8.36003 19.44C9.1769 19.44 9.96031 19.1155 10.5379 18.5379C11.1155 17.9603 11.44 17.1769 11.44 16.36C11.44 15.5431 11.1155 14.7597 10.5379 14.1821C9.96031 13.6045 9.1769 13.28 8.36003 13.28C7.54316 13.28 6.75975 13.6045 6.18214 14.1821C5.60453 14.7597 5.28003 15.5431 5.28003 16.36C5.28003 17.1769 5.60453 17.9603 6.18214 18.5379C6.75975 19.1155 7.54316 19.44 8.36003 19.44ZM18.62 22C18.9562 22 19.2891 21.9338 19.5997 21.8051C19.9103 21.6765 20.1925 21.4879 20.4302 21.2502C20.6679 21.0125 20.8565 20.7303 20.9852 20.4197C21.1138 20.1091 21.18 19.7762 21.18 19.44C21.18 19.1038 21.1138 18.7709 20.9852 18.4603C20.8565 18.1497 20.6679 17.8675 20.4302 17.6298C20.1925 17.3921 19.9103 17.2035 19.5997 17.0749C19.2891 16.9462 18.9562 16.88 18.62 16.88C17.9411 16.88 17.2899 17.1497 16.8098 17.6298C16.3297 18.1099 16.06 18.761 16.06 19.44C16.06 20.119 16.3297 20.7701 16.8098 21.2502C17.2899 21.7303 17.9411 22 18.62 22Z" stroke="#6D6E71" stroke-width="1.5" stroke-miterlimit="10"/>
</svg>
