<svg width="28" height="44" viewBox="0 0 28 44" fill="none" xmlns="http://www.w3.org/2000/svg">
<path d="M8.03629 33.08V40H7.12629V34.84L4.82629 40H4.18629L1.87629 34.83V40H0.966289V33.08H1.94629L4.50629 38.8L7.06629 33.08H8.03629ZM14.5796 37.05C14.5796 37.2233 14.5696 37.4067 14.5496 37.6H10.1696C10.2029 38.14 10.3862 38.5633 10.7196 38.87C11.0596 39.17 11.4696 39.32 11.9496 39.32C12.3429 39.32 12.6696 39.23 12.9296 39.05C13.1962 38.8633 13.3829 38.6167 13.4896 38.31H14.4696C14.3229 38.8367 14.0296 39.2667 13.5896 39.6C13.1496 39.9267 12.6029 40.09 11.9496 40.09C11.4296 40.09 10.9629 39.9733 10.5496 39.74C10.1429 39.5067 9.8229 39.1767 9.58957 38.75C9.35624 38.3167 9.23957 37.8167 9.23957 37.25C9.23957 36.6833 9.3529 36.1867 9.57957 35.76C9.80624 35.3333 10.1229 35.0067 10.5296 34.78C10.9429 34.5467 11.4162 34.43 11.9496 34.43C12.4696 34.43 12.9296 34.5433 13.3296 34.77C13.7296 34.9967 14.0362 35.31 14.2496 35.71C14.4696 36.1033 14.5796 36.55 14.5796 37.05ZM13.6396 36.86C13.6396 36.5133 13.5629 36.2167 13.4096 35.97C13.2562 35.7167 13.0462 35.5267 12.7796 35.4C12.5196 35.2667 12.2296 35.2 11.9096 35.2C11.4496 35.2 11.0562 35.3467 10.7296 35.64C10.4096 35.9333 10.2262 36.34 10.1796 36.86H13.6396ZM18.4507 34.42C19.1174 34.42 19.6574 34.6233 20.0707 35.03C20.4841 35.43 20.6907 36.01 20.6907 36.77V40H19.7907V36.9C19.7907 36.3533 19.6541 35.9367 19.3807 35.65C19.1074 35.3567 18.7341 35.21 18.2607 35.21C17.7807 35.21 17.3974 35.36 17.1107 35.66C16.8307 35.96 16.6907 36.3967 16.6907 36.97V40H15.7807V34.52H16.6907V35.3C16.8707 35.02 17.1141 34.8033 17.4207 34.65C17.7341 34.4967 18.0774 34.42 18.4507 34.42ZM27.0372 34.52V40H26.1272V39.19C25.9539 39.47 25.7106 39.69 25.3972 39.85C25.0906 40.0033 24.7506 40.08 24.3772 40.08C23.9506 40.08 23.5672 39.9933 23.2272 39.82C22.8872 39.64 22.6172 39.3733 22.4172 39.02C22.2239 38.6667 22.1272 38.2367 22.1272 37.73V34.52H23.0272V37.61C23.0272 38.15 23.1639 38.5667 23.4372 38.86C23.7106 39.1467 24.0839 39.29 24.5572 39.29C25.0439 39.29 25.4272 39.14 25.7072 38.84C25.9872 38.54 26.1272 38.1033 26.1272 37.53V34.52H27.0372Z" fill="#BB0A1E"/>
<path d="M17.59 12.26C18.9506 12.26 20.2554 11.7195 21.2175 10.7575C22.1795 9.7954 22.72 8.49056 22.72 7.13C22.72 5.76944 22.1795 4.4646 21.2175 3.50254C20.2554 2.54048 18.9506 2 17.59 2C16.2295 2 14.9246 2.54048 13.9626 3.50254C13.0005 4.4646 12.46 5.76944 12.46 7.13C12.46 8.49056 13.0005 9.7954 13.9626 10.7575C14.9246 11.7195 16.2295 12.26 17.59 12.26ZM8.36003 19.44C9.1769 19.44 9.96031 19.1155 10.5379 18.5379C11.1155 17.9603 11.44 17.1769 11.44 16.36C11.44 15.5431 11.1155 14.7597 10.5379 14.1821C9.96031 13.6045 9.1769 13.28 8.36003 13.28C7.54316 13.28 6.75975 13.6045 6.18214 14.1821C5.60453 14.7597 5.28003 15.5431 5.28003 16.36C5.28003 17.1769 5.60453 17.9603 6.18214 18.5379C6.75975 19.1155 7.54316 19.44 8.36003 19.44ZM18.62 22C18.9562 22 19.2891 21.9338 19.5997 21.8051C19.9103 21.6765 20.1925 21.4879 20.4302 21.2502C20.6679 21.0125 20.8565 20.7303 20.9852 20.4197C21.1138 20.1091 21.18 19.7762 21.18 19.44C21.18 19.1038 21.1138 18.7709 20.9852 18.4603C20.8565 18.1497 20.6679 17.8675 20.4302 17.6298C20.1925 17.3921 19.9103 17.2035 19.5997 17.0749C19.2891 16.9462 18.9562 16.88 18.62 16.88C17.9411 16.88 17.2899 17.1497 16.8098 17.6298C16.3297 18.1099 16.06 18.761 16.06 19.44C16.06 20.119 16.3297 20.7701 16.8098 21.2502C17.2899 21.7303 17.9411 22 18.62 22Z" stroke="#BB0A1E" stroke-width="1.5" stroke-miterlimit="10"/>
</svg>
