<svg width="57" height="44" viewBox="0 0 57 44" fill="none" xmlns="http://www.w3.org/2000/svg">
<path d="M28.02 2.90997C24.71 2.90997 22.02 5.59997 22.02 8.90997V11.8C22.02 12.41 21.76 13.34 21.45 13.86L20.3 15.77C19.59 16.95 20.08 18.26 21.38 18.7C25.69 20.14 30.34 20.14 34.65 18.7C35.86 18.3 36.39 16.87 35.73 15.77L34.58 13.86C34.28 13.34 34.02 12.41 34.02 11.8V8.90997C34.02 5.60997 31.32 2.90997 28.02 2.90997Z" stroke="#6D6E71" stroke-width="1.5" stroke-miterlimit="10" stroke-linecap="round"/>
<path d="M29.87 3.2C28.6608 2.85559 27.3793 2.85559 26.17 3.2C26.46 2.46 27.18 1.94 28.02 1.94C28.86 1.94 29.58 2.46 29.87 3.2Z" stroke="#6D6E71" stroke-width="1.5" stroke-miterlimit="10" stroke-linecap="round" stroke-linejoin="round"/>
<path d="M31.02 19.06C31.02 20.71 29.67 22.06 28.02 22.06C27.2 22.06 26.44 21.72 25.9 21.18C25.3382 20.6173 25.0218 19.8552 25.02 19.06" stroke="#6D6E71" stroke-width="1.5" stroke-miterlimit="10"/>
<path d="M6.60988 40H5.69988L2.03988 34.5V40H1.12988V33.07H2.03988L5.69988 38.57V33.07H6.60988V40ZM10.5223 34.42C11.0423 34.42 11.5123 34.5367 11.9323 34.77C12.3523 35.0033 12.6823 35.3367 12.9223 35.77C13.169 36.2033 13.2923 36.7 13.2923 37.26C13.2923 37.8133 13.1656 38.3067 12.9123 38.74C12.659 39.1667 12.3156 39.5 11.8823 39.74C11.449 39.9733 10.969 40.09 10.4423 40.09C9.92897 40.09 9.46564 39.9733 9.0523 39.74C8.64564 39.5067 8.32564 39.1767 8.0923 38.75C7.86564 38.3167 7.7523 37.82 7.7523 37.26C7.7523 36.6933 7.8723 36.1967 8.1123 35.77C8.35897 35.3367 8.6923 35.0033 9.1123 34.77C9.5323 34.5367 10.0023 34.42 10.5223 34.42ZM10.4923 35.17C10.159 35.17 9.85564 35.25 9.5823 35.41C9.30897 35.57 9.08897 35.8067 8.9223 36.12C8.7623 36.4333 8.6823 36.8133 8.6823 37.26C8.6823 37.7 8.75897 38.0767 8.9123 38.39C9.0723 38.7033 9.28564 38.94 9.5523 39.1C9.81897 39.26 10.1156 39.34 10.4423 39.34C10.7756 39.34 11.0856 39.26 11.3723 39.1C11.6656 38.9333 11.9023 38.6933 12.0823 38.38C12.2623 38.0667 12.3523 37.6933 12.3523 37.26C12.3523 36.82 12.2656 36.4433 12.0923 36.13C11.9256 35.81 11.699 35.57 11.4123 35.41C11.1323 35.25 10.8256 35.17 10.4923 35.17ZM16.9807 39.26V40H16.0607C15.594 40 15.2373 39.8867 14.9907 39.66C14.7507 39.4333 14.6307 39.0767 14.6307 38.59V35.25H13.9207V34.51H14.6307V33.15H15.5507V34.51H16.9707V35.25H15.5507V38.59C15.5507 38.8367 15.6007 39.01 15.7007 39.11C15.8007 39.21 15.9773 39.26 16.2307 39.26H16.9807ZM17.8354 33.01C17.8354 32.8367 17.8954 32.69 18.0154 32.57C18.1354 32.45 18.2787 32.39 18.4454 32.39C18.6187 32.39 18.7654 32.45 18.8854 32.57C19.0054 32.69 19.0654 32.8367 19.0654 33.01C19.0654 33.1833 19.0054 33.33 18.8854 33.45C18.7654 33.57 18.6187 33.63 18.4454 33.63C18.272 33.63 18.1254 33.57 18.0054 33.45C17.892 33.33 17.8354 33.1833 17.8354 33.01ZM18.8954 34.51V40H17.9854V34.51H18.8954ZM21.5075 34.51H24.6075V40H23.6975V35.25H21.5075V40H20.5875V35.25H19.8775V34.51H20.5875V34.05C20.5875 33.45 20.7475 33.0133 21.0675 32.74C21.3875 32.4667 21.8908 32.33 22.5775 32.33V33.07C22.1775 33.07 21.8975 33.1467 21.7375 33.3C21.5841 33.4467 21.5075 33.6967 21.5075 34.05V34.51ZM24.1575 33.63C23.9841 33.63 23.8375 33.57 23.7175 33.45C23.6041 33.33 23.5475 33.1833 23.5475 33.01C23.5475 32.8367 23.6075 32.69 23.7275 32.57C23.8475 32.45 23.9908 32.39 24.1575 32.39C24.3308 32.39 24.4741 32.45 24.5875 32.57C24.7075 32.69 24.7675 32.8367 24.7675 33.01C24.7675 33.1833 24.7075 33.33 24.5875 33.45C24.4741 33.57 24.3308 33.63 24.1575 33.63ZM28.4104 34.42C29.0704 34.42 29.607 34.5733 30.0204 34.88C30.4404 35.1867 30.7337 35.6233 30.9004 36.19H29.9204C29.8137 35.87 29.6304 35.62 29.3704 35.44C29.1104 35.26 28.7904 35.17 28.4104 35.17C27.8904 35.17 27.4704 35.3533 27.1504 35.72C26.837 36.08 26.6804 36.5933 26.6804 37.26C26.6804 37.92 26.837 38.4333 27.1504 38.8C27.4704 39.16 27.8904 39.34 28.4104 39.34C28.797 39.34 29.117 39.2533 29.3704 39.08C29.6237 38.9067 29.807 38.6533 29.9204 38.32H30.9004C30.7337 38.86 30.437 39.29 30.0104 39.61C29.5904 39.93 29.057 40.09 28.4104 40.09C27.897 40.09 27.437 39.9733 27.0304 39.74C26.6304 39.5067 26.317 39.1767 26.0904 38.75C25.8637 38.3167 25.7504 37.82 25.7504 37.26C25.7504 36.6933 25.8637 36.1967 26.0904 35.77C26.317 35.3367 26.6304 35.0033 27.0304 34.77C27.4304 34.5367 27.8904 34.42 28.4104 34.42ZM34.3664 34.42C34.8331 34.42 35.2398 34.53 35.5864 34.75C35.9398 34.97 36.2064 35.2567 36.3864 35.61V34.51H37.3064V40H36.3864V38.88C36.2064 39.24 35.9398 39.5333 35.5864 39.76C35.2398 39.98 34.8331 40.09 34.3664 40.09C33.8731 40.09 33.4264 39.97 33.0264 39.73C32.6331 39.4833 32.3198 39.1433 32.0864 38.71C31.8598 38.27 31.7464 37.7733 31.7464 37.22C31.7464 36.6667 31.8598 36.18 32.0864 35.76C32.3198 35.3333 32.6331 35.0033 33.0264 34.77C33.4264 34.5367 33.8731 34.42 34.3664 34.42ZM34.5264 35.21C34.1998 35.21 33.8931 35.29 33.6064 35.45C33.3264 35.61 33.0998 35.8433 32.9264 36.15C32.7598 36.45 32.6764 36.8067 32.6764 37.22C32.6764 37.6333 32.7598 38 32.9264 38.32C33.0998 38.6333 33.3264 38.8767 33.6064 39.05C33.8931 39.2233 34.1998 39.31 34.5264 39.31C34.8598 39.31 35.1664 39.2267 35.4464 39.06C35.7331 38.8933 35.9598 38.6567 36.1264 38.35C36.2998 38.0367 36.3864 37.6733 36.3864 37.26C36.3864 36.8467 36.2998 36.4867 36.1264 36.18C35.9598 35.8667 35.7331 35.6267 35.4464 35.46C35.1664 35.2933 34.8598 35.21 34.5264 35.21ZM41.3557 39.26V40H40.4357C39.969 40 39.6123 39.8867 39.3657 39.66C39.1257 39.4333 39.0057 39.0767 39.0057 38.59V35.25H38.2957V34.51H39.0057V33.15H39.9257V34.51H41.3457V35.25H39.9257V38.59C39.9257 38.8367 39.9757 39.01 40.0757 39.11C40.1757 39.21 40.3523 39.26 40.6057 39.26H41.3557ZM42.2104 33.01C42.2104 32.8367 42.2704 32.69 42.3904 32.57C42.5104 32.45 42.6537 32.39 42.8204 32.39C42.9937 32.39 43.1404 32.45 43.2604 32.57C43.3804 32.69 43.4404 32.8367 43.4404 33.01C43.4404 33.1833 43.3804 33.33 43.2604 33.45C43.1404 33.57 42.9937 33.63 42.8204 33.63C42.647 33.63 42.5004 33.57 42.3804 33.45C42.267 33.33 42.2104 33.1833 42.2104 33.01ZM43.2704 34.51V40H42.3604V34.51H43.2704ZM47.1825 34.42C47.7025 34.42 48.1725 34.5367 48.5925 34.77C49.0125 35.0033 49.3425 35.3367 49.5825 35.77C49.8291 36.2033 49.9525 36.7 49.9525 37.26C49.9525 37.8133 49.8258 38.3067 49.5725 38.74C49.3191 39.1667 48.9758 39.5 48.5425 39.74C48.1091 39.9733 47.6291 40.09 47.1025 40.09C46.5891 40.09 46.1258 39.9733 45.7125 39.74C45.3058 39.5067 44.9858 39.1767 44.7525 38.75C44.5258 38.3167 44.4125 37.82 44.4125 37.26C44.4125 36.6933 44.5325 36.1967 44.7725 35.77C45.0191 35.3367 45.3525 35.0033 45.7725 34.77C46.1925 34.5367 46.6625 34.42 47.1825 34.42ZM47.1525 35.17C46.8191 35.17 46.5158 35.25 46.2425 35.41C45.9691 35.57 45.7491 35.8067 45.5825 36.12C45.4225 36.4333 45.3425 36.8133 45.3425 37.26C45.3425 37.7 45.4191 38.0767 45.5725 38.39C45.7325 38.7033 45.9458 38.94 46.2125 39.1C46.4791 39.26 46.7758 39.34 47.1025 39.34C47.4358 39.34 47.7458 39.26 48.0325 39.1C48.3258 38.9333 48.5625 38.6933 48.7425 38.38C48.9225 38.0667 49.0125 37.6933 49.0125 37.26C49.0125 36.82 48.9258 36.4433 48.7525 36.13C48.5858 35.81 48.3591 35.57 48.0725 35.41C47.7925 35.25 47.4858 35.17 47.1525 35.17ZM53.7908 34.42C54.1842 34.42 54.5408 34.51 54.8608 34.69C55.1875 34.8633 55.4442 35.1267 55.6308 35.48C55.8242 35.8267 55.9208 36.25 55.9208 36.75V40H55.0208V36.9C55.0208 36.3467 54.8875 35.9267 54.6208 35.64C54.3542 35.3533 53.9842 35.21 53.5108 35.21C53.0442 35.21 52.6742 35.3533 52.4008 35.64C52.1342 35.9267 52.0008 36.3467 52.0008 36.9V40H51.0908V34.51H52.0008V35.4C52.1808 35.08 52.4275 34.8367 52.7408 34.67C53.0542 34.5033 53.4042 34.42 53.7908 34.42Z" fill="#6D6E71"/>
</svg>
