<svg width="58" height="44" viewBox="0 0 58 44" fill="none" xmlns="http://www.w3.org/2000/svg">
<path d="M29.02 2.91003C25.71 2.91003 23.02 5.60003 23.02 8.91003V11.8C23.02 12.41 22.76 13.34 22.45 13.86L21.3 15.77C20.59 16.95 21.08 18.26 22.38 18.7C26.69 20.14 31.34 20.14 35.65 18.7C36.86 18.3 37.39 16.87 36.73 15.77L35.58 13.86C35.28 13.34 35.02 12.41 35.02 11.8V8.91003C35.02 5.61003 32.32 2.91003 29.02 2.91003Z" stroke="#BB0A1E" stroke-width="1.5" stroke-miterlimit="10" stroke-linecap="round"/>
<path d="M30.87 3.19994C29.6608 2.85553 28.3793 2.85553 27.17 3.19994C27.46 2.45994 28.18 1.93994 29.02 1.93994C29.86 1.93994 30.58 2.45994 30.87 3.19994Z" stroke="#BB0A1E" stroke-width="1.5" stroke-miterlimit="10" stroke-linecap="round" stroke-linejoin="round"/>
<path d="M32.02 19.0601C32.02 20.7101 30.67 22.0601 29.02 22.0601C28.2 22.0601 27.44 21.7201 26.9 21.1801C26.3382 20.6174 26.0218 19.8552 26.02 19.0601" stroke="#BB0A1E" stroke-width="1.5" stroke-miterlimit="10"/>
<path d="M6.74414 40H5.83414L2.17414 34.45V40H1.26414V33.02H2.17414L5.83414 38.56V33.02H6.74414V40ZM10.6854 40.09C10.1721 40.09 9.70539 39.9733 9.28539 39.74C8.87206 39.5067 8.54539 39.1767 8.30539 38.75C8.07206 38.3167 7.95539 37.8167 7.95539 37.25C7.95539 36.69 8.07539 36.1967 8.31539 35.77C8.56206 35.3367 8.89539 35.0067 9.31539 34.78C9.73539 34.5467 10.2054 34.43 10.7254 34.43C11.2454 34.43 11.7154 34.5467 12.1354 34.78C12.5554 35.0067 12.8854 35.3333 13.1254 35.76C13.3721 36.1867 13.4954 36.6833 13.4954 37.25C13.4954 37.8167 13.3687 38.3167 13.1154 38.75C12.8687 39.1767 12.5321 39.5067 12.1054 39.74C11.6787 39.9733 11.2054 40.09 10.6854 40.09ZM10.6854 39.29C11.0121 39.29 11.3187 39.2133 11.6054 39.06C11.8921 38.9067 12.1221 38.6767 12.2954 38.37C12.4754 38.0633 12.5654 37.69 12.5654 37.25C12.5654 36.81 12.4787 36.4367 12.3054 36.13C12.1321 35.8233 11.9054 35.5967 11.6254 35.45C11.3454 35.2967 11.0421 35.22 10.7154 35.22C10.3821 35.22 10.0754 35.2967 9.79539 35.45C9.52206 35.5967 9.30206 35.8233 9.13539 36.13C8.96872 36.4367 8.88539 36.81 8.88539 37.25C8.88539 37.6967 8.96539 38.0733 9.12539 38.38C9.29206 38.6867 9.51206 38.9167 9.78539 39.07C10.0587 39.2167 10.3587 39.29 10.6854 39.29ZM15.8019 35.27V38.5C15.8019 38.7667 15.8585 38.9567 15.9719 39.07C16.0852 39.1767 16.2819 39.23 16.5619 39.23H17.2319V40H16.4119C15.9052 40 15.5252 39.8833 15.2719 39.65C15.0185 39.4167 14.8919 39.0333 14.8919 38.5V35.27H14.1819V34.52H14.8919V33.14H15.8019V34.52H17.2319V35.27H15.8019ZM18.8045 33.63C18.6311 33.63 18.4845 33.57 18.3645 33.45C18.2445 33.33 18.1845 33.1833 18.1845 33.01C18.1845 32.8367 18.2445 32.69 18.3645 32.57C18.4845 32.45 18.6311 32.39 18.8045 32.39C18.9711 32.39 19.1111 32.45 19.2245 32.57C19.3445 32.69 19.4045 32.8367 19.4045 33.01C19.4045 33.1833 19.3445 33.33 19.2245 33.45C19.1111 33.57 18.9711 33.63 18.8045 33.63ZM19.2445 34.52V40H18.3345V34.52H19.2445ZM23.0254 35.27H21.8754V40H20.9654V35.27H20.2554V34.52H20.9654V34.13C20.9654 33.5167 21.1221 33.07 21.4354 32.79C21.7554 32.5033 22.2654 32.36 22.9654 32.36V33.12C22.5654 33.12 22.2821 33.2 22.1154 33.36C21.9554 33.5133 21.8754 33.77 21.8754 34.13V34.52H23.0254V35.27ZM24.5564 33.63C24.3831 33.63 24.2364 33.57 24.1164 33.45C23.9964 33.33 23.9364 33.1833 23.9364 33.01C23.9364 32.8367 23.9964 32.69 24.1164 32.57C24.2364 32.45 24.3831 32.39 24.5564 32.39C24.7231 32.39 24.8631 32.45 24.9764 32.57C25.0964 32.69 25.1564 32.8367 25.1564 33.01C25.1564 33.1833 25.0964 33.33 24.9764 33.45C24.8631 33.57 24.7231 33.63 24.5564 33.63ZM24.9964 34.52V40H24.0864V34.52H24.9964ZM26.2073 37.25C26.2073 36.6833 26.3207 36.19 26.5473 35.77C26.774 35.3433 27.0873 35.0133 27.4873 34.78C27.894 34.5467 28.3573 34.43 28.8773 34.43C29.5507 34.43 30.104 34.5933 30.5373 34.92C30.9773 35.2467 31.2673 35.7 31.4073 36.28H30.4273C30.334 35.9467 30.1507 35.6833 29.8773 35.49C29.6107 35.2967 29.2773 35.2 28.8773 35.2C28.3573 35.2 27.9373 35.38 27.6173 35.74C27.2973 36.0933 27.1373 36.5967 27.1373 37.25C27.1373 37.91 27.2973 38.42 27.6173 38.78C27.9373 39.14 28.3573 39.32 28.8773 39.32C29.2773 39.32 29.6107 39.2267 29.8773 39.04C30.144 38.8533 30.3273 38.5867 30.4273 38.24H31.4073C31.2607 38.8 30.9673 39.25 30.5273 39.59C30.0873 39.9233 29.5373 40.09 28.8773 40.09C28.3573 40.09 27.894 39.9733 27.4873 39.74C27.0873 39.5067 26.774 39.1767 26.5473 38.75C26.3207 38.3233 26.2073 37.8233 26.2073 37.25ZM32.2816 37.24C32.2816 36.68 32.3949 36.19 32.6216 35.77C32.8482 35.3433 33.1582 35.0133 33.5516 34.78C33.9516 34.5467 34.3949 34.43 34.8816 34.43C35.3616 34.43 35.7782 34.5333 36.1316 34.74C36.4849 34.9467 36.7482 35.2067 36.9216 35.52V34.52H37.8416V40H36.9216V38.98C36.7416 39.3 36.4716 39.5667 36.1116 39.78C35.7582 39.9867 35.3449 40.09 34.8716 40.09C34.3849 40.09 33.9449 39.97 33.5516 39.73C33.1582 39.49 32.8482 39.1533 32.6216 38.72C32.3949 38.2867 32.2816 37.7933 32.2816 37.24ZM36.9216 37.25C36.9216 36.8367 36.8382 36.4767 36.6716 36.17C36.5049 35.8633 36.2782 35.63 35.9916 35.47C35.7116 35.3033 35.4016 35.22 35.0616 35.22C34.7216 35.22 34.4116 35.3 34.1316 35.46C33.8516 35.62 33.6282 35.8533 33.4616 36.16C33.2949 36.4667 33.2116 36.8267 33.2116 37.24C33.2116 37.66 33.2949 38.0267 33.4616 38.34C33.6282 38.6467 33.8516 38.8833 34.1316 39.05C34.4116 39.21 34.7216 39.29 35.0616 39.29C35.4016 39.29 35.7116 39.21 35.9916 39.05C36.2782 38.8833 36.5049 38.6467 36.6716 38.34C36.8382 38.0267 36.9216 37.6633 36.9216 37.25ZM40.4894 35.27V38.5C40.4894 38.7667 40.546 38.9567 40.6594 39.07C40.7727 39.1767 40.9694 39.23 41.2494 39.23H41.9194V40H41.0994C40.5927 40 40.2127 39.8833 39.9594 39.65C39.706 39.4167 39.5794 39.0333 39.5794 38.5V35.27H38.8694V34.52H39.5794V33.14H40.4894V34.52H41.9194V35.27H40.4894ZM43.492 33.63C43.3186 33.63 43.172 33.57 43.052 33.45C42.932 33.33 42.872 33.1833 42.872 33.01C42.872 32.8367 42.932 32.69 43.052 32.57C43.172 32.45 43.3186 32.39 43.492 32.39C43.6586 32.39 43.7986 32.45 43.912 32.57C44.032 32.69 44.092 32.8367 44.092 33.01C44.092 33.1833 44.032 33.33 43.912 33.45C43.7986 33.57 43.6586 33.63 43.492 33.63ZM43.932 34.52V40H43.022V34.52H43.932ZM47.8729 40.09C47.3596 40.09 46.8929 39.9733 46.4729 39.74C46.0596 39.5067 45.7329 39.1767 45.4929 38.75C45.2596 38.3167 45.1429 37.8167 45.1429 37.25C45.1429 36.69 45.2629 36.1967 45.5029 35.77C45.7496 35.3367 46.0829 35.0067 46.5029 34.78C46.9229 34.5467 47.3929 34.43 47.9129 34.43C48.4329 34.43 48.9029 34.5467 49.3229 34.78C49.7429 35.0067 50.0729 35.3333 50.3129 35.76C50.5596 36.1867 50.6829 36.6833 50.6829 37.25C50.6829 37.8167 50.5562 38.3167 50.3029 38.75C50.0562 39.1767 49.7196 39.5067 49.2929 39.74C48.8662 39.9733 48.3929 40.09 47.8729 40.09ZM47.8729 39.29C48.1996 39.29 48.5062 39.2133 48.7929 39.06C49.0796 38.9067 49.3096 38.6767 49.4829 38.37C49.6629 38.0633 49.7529 37.69 49.7529 37.25C49.7529 36.81 49.6662 36.4367 49.4929 36.13C49.3196 35.8233 49.0929 35.5967 48.8129 35.45C48.5329 35.2967 48.2296 35.22 47.9029 35.22C47.5696 35.22 47.2629 35.2967 46.9829 35.45C46.7096 35.5967 46.4896 35.8233 46.3229 36.13C46.1562 36.4367 46.0729 36.81 46.0729 37.25C46.0729 37.6967 46.1529 38.0733 46.3129 38.38C46.4796 38.6867 46.6996 38.9167 46.9729 39.07C47.2462 39.2167 47.5462 39.29 47.8729 39.29ZM54.5494 34.42C55.216 34.42 55.756 34.6233 56.1694 35.03C56.5827 35.43 56.7894 36.01 56.7894 36.77V40H55.8894V36.9C55.8894 36.3533 55.7527 35.9367 55.4794 35.65C55.206 35.3567 54.8327 35.21 54.3594 35.21C53.8794 35.21 53.496 35.36 53.2094 35.66C52.9294 35.96 52.7894 36.3967 52.7894 36.97V40H51.8794V34.52H52.7894V35.3C52.9694 35.02 53.2127 34.8033 53.5194 34.65C53.8327 34.4967 54.176 34.42 54.5494 34.42Z" fill="#BB0A1E"/>
</svg>
